<?xml version="1.0" encoding="utf-8"?>
<!-- Generator: Adobe Illustrator 27.0.0, SVG Export Plug-In . SVG Version: 6.00 Build 0)  -->
<svg version="1.1" id="Layer_1" xmlns="http://www.w3.org/2000/svg" xmlns:xlink="http://www.w3.org/1999/xlink" x="0px" y="0px"
	 viewBox="0 0 800 800" style="enable-background:new 0 0 800 800;" xml:space="preserve">
<style type="text/css">
	.st0{fill:#FFFFFF;}
	.st1{fill:#04A37B;}
</style>
<g>
	<path class="st0" d="M426.45,325.56v7.92h-0.01v-3.81C426.44,328.21,426.44,326.84,426.45,325.56z"/>
	<g>
		<path class="st1" d="M348.88,415.24c-4.04,1.52-7.15,3.62-9.36,6.35c-2.21,2.71-3.73,6.08-4.53,10.1
			c-0.8,4.03-1.21,8.46-1.21,13.29h67.61v-37.14c-9.66,3.43-21.93,5.14-36.83,5.14C358.13,412.98,352.89,413.73,348.88,415.24z"/>
		<path class="st1" d="M528.24,468.85l-29.53-56.74c-3.95-7.59-3.95-16.64,0-24.23l33.48-64.32c0.01-0.01,0.01-0.02,0.02-0.03
			c13.24-32.04-10.32-67.66-45.3-67.66H322.51c-32.26,0-58.41,26.14-58.41,58.4v171.46c0,32.25,26.14,58.41,58.41,58.41h164.41
			c35.11,0,58.52-35.79,45.27-67.71L528.24,468.85z M463.58,445.01l-12.13,25.02H309.64v-24.75c0-11.67,1.71-21.18,5.13-28.51
			c3.42-7.35,7.75-13.08,12.98-17.21c5.24-4.12,11.12-6.94,17.66-8.45c6.55-1.51,12.93-2.27,19.16-2.27
			c7.24,0,13.14-0.34,17.67-1.05c4.52-0.71,8.14-1.61,10.87-2.72c2.71-1.1,4.68-2.35,5.88-3.76c1.21-1.41,2.02-2.82,2.41-4.23
			v-54.28l25.05-25.05v27.84c-0.01,1.28-0.01,2.65-0.01,4.11v115.3h37.14V445.01z"/>
	</g>
</g>
</svg>
