<?xml version="1.0" encoding="utf-8"?>
<!-- Generator: Adobe Illustrator 27.0.0, SVG Export Plug-In . SVG Version: 6.00 Build 0)  -->
<svg version="1.1" id="Layer_1" xmlns="http://www.w3.org/2000/svg" xmlns:xlink="http://www.w3.org/1999/xlink" x="0px" y="0px"
	 viewBox="0 0 1600 800" style="enable-background:new 0 0 1600 800;" xml:space="preserve">
<style type="text/css">
	.st0{fill:#04A37B;}
</style>
<g>
	<path class="st0" d="M364.93,413.25c12.35,0,23.63-5.53,31.71-15.75v13.2h27.24V268.73h-27.24v52.36
		c-8.09-10.43-19.58-15.75-31.71-15.75c-26.18,0-45.55,20.43-45.55,54.06C319.38,393.67,338.96,413.25,364.93,413.25z
		 M373.23,329.39c9.15,0,18.94,4.9,23.41,11.71v36.4c-4.47,6.81-14.26,11.71-23.41,11.71c-15.32,0-25.97-12.13-25.97-29.8
		C347.26,341.52,357.9,329.39,373.23,329.39z"/>
	<path class="st0" d="M499.02,413.25c15.96,0,32.14-4.89,42.36-14.26l-11.92-17.45c-6.6,6.38-18.73,10.22-27.46,10.22
		c-17.45,0-27.88-10.85-29.59-23.84h76.41v-5.96c0-33.63-20.86-56.62-51.51-56.62c-31.29,0-53.21,24.05-53.21,53.85
		C444.1,392.18,467.73,413.25,499.02,413.25z M497.32,326.84c17.88,0,24.69,12.98,25.33,22.77h-50.66
		C473.26,339.4,480.5,326.84,497.32,326.84z"/>
	<path class="st0" d="M616.72,413.25c15.96,0,32.14-4.89,42.36-14.26l-11.92-17.45c-6.6,6.38-18.73,10.22-27.46,10.22
		c-17.45,0-27.88-10.85-29.59-23.84h76.41v-5.96c0-33.63-20.86-56.62-51.51-56.62c-31.29,0-53.21,24.05-53.21,53.85
		C561.81,392.18,585.43,413.25,616.72,413.25z M615.02,326.84c17.88,0,24.69,12.98,25.33,22.77h-50.66
		C590.97,339.4,598.2,326.84,615.02,326.84z"/>
	<path class="st0" d="M749.11,305.34c-16.81,0-29.37,8.09-35.97,15.96v-13.41h-27.03v102.8h27.03v-69.17
		c4.47-6.17,12.77-12.13,23.41-12.13c11.49,0,18.94,4.9,18.94,19.16v62.15h27.03v-72.58C782.53,318.11,771.67,305.34,749.11,305.34z
		"/>
	<path class="st0" d="M836.38,397.5c8.09,10.22,19.37,15.75,31.71,15.75c25.97,0,45.55-19.58,45.55-53.85
		c0-33.63-19.37-54.06-45.55-54.06c-12.13,0-23.63,5.32-31.71,15.75v-52.36h-27.03V410.7h27.03V397.5z M836.38,341.31
		c4.47-6.81,14.47-11.92,23.2-11.92c15.75,0,26.18,12.13,26.18,30.01c0,17.88-10.43,29.8-26.18,29.8c-8.73,0-18.73-4.9-23.2-11.49
		V341.31z"/>
	<path class="st0" d="M981.75,413.25c34.05,0,54.49-24.69,54.49-54.06c0-29.16-20.43-53.85-54.49-53.85
		c-33.84,0-54.28,24.69-54.28,53.85C927.47,388.56,947.91,413.25,981.75,413.25z M981.75,329.39c16.81,0,26.39,13.83,26.39,29.8
		c0,16.18-9.58,30.01-26.39,30.01c-16.82,0-26.18-13.83-26.18-30.01C955.57,343.23,964.93,329.39,981.75,329.39z"/>
	<path class="st0" d="M1103.92,413.25c34.05,0,54.49-24.69,54.49-54.06c0-29.16-20.43-53.85-54.49-53.85
		c-33.84,0-54.28,24.69-54.28,53.85C1049.65,388.56,1070.08,413.25,1103.92,413.25z M1103.92,329.39c16.81,0,26.39,13.83,26.39,29.8
		c0,16.18-9.58,30.01-26.39,30.01c-16.82,0-26.18-13.83-26.18-30.01C1077.74,343.23,1087.11,329.39,1103.92,329.39z"/>
	<polygon class="st0" points="1205.45,384.31 1217.79,371.11 1245.04,410.7 1278.88,410.7 1236.95,354.51 1277.6,307.89 
		1244.4,307.89 1205.45,353.66 1205.45,268.73 1178.42,268.73 1178.42,410.7 1205.45,410.7 	"/>
	<path class="st0" d="M352.72,487.01c-1.29,0.27-3.91,0.4-7.87,0.4c-0.65,0-1.35,0-2.1,0c-0.75,0-1.55-0.02-2.39-0.06v5.19
		c1.04,0.15,2.07,0.26,3.11,0.32s2,0.09,2.88,0.09c3.73,0,6.74-0.58,9.05-1.76c2.3-1.17,3.46-3.18,3.46-6.02
		c0-1.88-0.55-3.26-1.64-4.15c-1.09-0.88-2.78-1.67-5.04-2.36c-1.38-0.42-2.7-0.83-3.95-1.21c-1.25-0.38-1.87-0.9-1.87-1.56
		c0-0.73,0.97-1.6,2.91-2.62c1.94-1.02,4.58-2.03,7.92-3.03l-1.5-5.47c-1.81,0.35-3.78,1.15-5.94,2.42c-2.15,1.27-4,2.81-5.56,4.64
		c-1.56,1.83-2.33,3.74-2.33,5.73c0,1.61,0.6,2.84,1.79,3.69c1.19,0.85,3.02,1.59,5.47,2.25c1.65,0.38,2.99,0.73,4,1.04
		c1.02,0.31,1.53,0.73,1.53,1.27S354.01,486.75,352.72,487.01z"/>
	<path class="st0" d="M377.38,489.35c-0.25-2.94-0.53-5.92-0.84-8.96c-0.27-2.96-0.55-5.99-0.84-9.1c-0.29-3.11-0.58-6.13-0.86-9.05
		c-0.29-2.92-0.57-5.61-0.84-8.07l-8.24,0.58c0.35,2.34,0.74,5.12,1.18,8.33c0.44,3.21,0.88,6.58,1.33,10.11
		c0.44,3.53,0.85,6.97,1.24,10.31c0.38,3.42,0.74,6.59,1.07,9.51c0.33,2.92,0.59,5.42,0.78,7.49c0.19,2.11,0.04,3.39-0.46,3.83
		c-0.5,0.44-1.73,0.7-3.69,0.78c-2.34,0.12-4.73,0.19-7.17,0.23c-2.44,0.04-4.6,0.06-6.48,0.06c-1.88,0-3.15,0-3.8,0
		c-7.88,0-13.61-1.01-17.2-3.03c-3.59-2.02-5.39-5.85-5.39-11.5c0-2.3,0.33-5.13,0.98-8.47l-5.94-0.69
		c-0.96,4.57-1.44,8.66-1.44,12.27c0,7.45,2.23,12.94,6.68,16.45c4.46,3.51,11.54,5.27,21.26,5.27c3.65,0,7.15-0.02,10.52-0.06
		c3.36-0.04,6.12-0.12,8.27-0.23c1.57-0.12,2.95-0.3,4.12-0.55c1.17-0.25,2.22-0.8,3.14-1.64c1.27-1.08,2.17-2.6,2.71-4.58
		c0.54-1.98,0.81-4.2,0.81-6.66c0-1-0.09-2.62-0.26-4.87S377.63,492.29,377.38,489.35z"/>
	<polygon class="st0" points="743.6,530.86 752.99,537.84 758.58,530.63 749.25,523.66 	"/>
	<path class="st0" d="M757.72,482.12l-7.78,0.63c1.54,3.96,2.83,7.59,3.89,10.89c1.06,3.3,1.78,5.84,2.16,7.61
		c0.35,1.73,0.38,2.78,0.09,3.14s-1.03,0.55-2.22,0.55h-16.25h-16.13c0,0,0,0,0,0s0,0,0,0h-16.13H689.2h-16.13c0,0,0,0,0,0s0,0,0,0
		h-16.13H640.8h0h-16.13h-16.13H592.4h0h-16.13h-16.13H544h0h-16.13h-16.13h-16.13h0h-16.13h-16.13h0h-16.13h-16.13h-6.55
		c-0.17-2.5-0.54-4.99-1.14-7.49c-0.75-3.11-1.84-5.94-3.28-8.5c-1.44-2.55-3.24-4.61-5.39-6.17c-2.15-1.56-4.69-2.33-7.61-2.33
		c-3.11,0-5.91,1.01-8.38,3.03c-2.48,2.02-4.45,4.58-5.91,7.69c-1.46,3.11-2.17,6.3-2.13,9.57c0.04,2.88,0.7,5.42,1.99,7.61
		c1.29,2.19,3.22,3.89,5.79,5.1c2.57,1.21,5.84,1.82,9.8,1.82h9.62c-1.01,2.91-3.03,5.56-6.05,7.95c-2.46,1.96-5.57,3.78-9.33,5.47
		c-3.77,1.69-7.89,3.25-12.39,4.67l3.28,9.68c5.07-1.42,9.64-3.27,13.71-5.53c4.07-2.27,7.55-5.07,10.43-8.41
		c1.81-2.15,3.29-4.52,4.47-7.12c0.94-2.07,1.61-4.31,2.04-6.71h7.03h16.13h16.13h0h16.13h16.13h0h16.13h16.13H544h0h16.13h16.13
		h16.13h0h16.13h16.13h16.13h0h16.13h16.13c0,0,0,0,0,0s0,0,0,0h16.13h16.13h16.13c0,0,0,0,0,0s0,0,0,0h16.13h18.67
		c1.3,0,2.31-0.24,3.02-0.72c0.71-0.48,1.41-1.45,2.1-2.91c0.5-1.08,0.89-2.32,1.18-3.75c0.29-1.42,0.43-2.94,0.43-4.55
		c0-2.96-0.44-6.19-1.33-9.71C760.81,490.1,759.48,486.26,757.72,482.12z M410.77,505.22c-4.53,0-8.01-0.45-10.43-1.35
		c-2.42-0.9-3.63-2.62-3.63-5.16c0-2.27,0.9-4.29,2.71-6.08c1.81-1.79,4.01-2.68,6.63-2.68c1.92,0,3.61,0.55,5.07,1.64
		c1.46,1.09,2.72,2.49,3.77,4.18c1.06,1.69,1.88,3.5,2.48,5.42c0.42,1.35,0.71,2.62,0.9,3.8c-0.89,0.04-1.76,0.08-2.62,0.12
		C413.93,505.18,412.31,505.22,410.77,505.22z"/>
	<polygon class="st0" points="820.24,474.57 810.9,467.6 805.25,474.8 814.65,481.77 	"/>
	<polygon class="st0" points="1216.9,530.69 1225.72,537.2 1230.96,530.46 1222.26,523.89 	"/>
	<path class="st0" d="M1224.16,515.25c1.3,0,2.31-0.24,3.02-0.72c0.71-0.48,1.41-1.45,2.1-2.91c0.5-1.08,0.89-2.32,1.18-3.75
		c0.29-1.42,0.43-2.94,0.43-4.55c0-2.96-0.44-6.19-1.33-9.71c-0.88-3.52-2.21-7.35-3.98-11.5l-7.78,0.63
		c1.54,3.96,2.83,7.59,3.89,10.89c1.06,3.3,1.78,5.84,2.16,7.61c0.35,1.73,0.38,2.78,0.09,3.14s-1.03,0.55-2.22,0.55h-16.25h-16.13
		h-16.13c0,0,0,0,0,0c0,0,0,0,0,0h-16.13h-16.13h-16.13c0,0,0,0,0,0c0,0,0,0,0,0h-16.13h-16.13h-16.13c0,0,0,0,0,0c0,0,0,0,0,0
		h-16.13h-16.13h-16.13c0,0,0,0,0,0c0,0,0,0,0,0h-16.13h-16.13h-16.13c0,0,0,0,0,0s0,0,0,0h-16.13h-16.13h-16.13h-16.13c0,0,0,0,0,0
		s0,0,0,0h-16.13h-16.13h-16.13c0,0,0,0,0,0s0,0,0,0h-16.13c-2.77,0-4.87-0.06-6.31-0.17s-2.47-0.42-3.08-0.92
		c-0.61-0.5-1.08-1.33-1.38-2.48c-0.27-1.19-0.67-2.65-1.21-4.38c-0.54-1.73-1.15-3.59-1.84-5.59c-0.69-2-1.42-3.96-2.19-5.88
		l-8.12,0.58c1.46,3.84,2.85,7.58,4.18,11.21s2.42,6.91,3.28,9.82c0.86,2.92,1.3,5.26,1.3,7.03c0,2.15-0.86,4.16-2.59,6.02
		c-1.73,1.86-4,3.37-6.83,4.52c-2.82,1.15-5.85,1.73-9.08,1.73c-5.95,0-10.35-1.29-13.2-3.86c-2.84-2.57-4.26-6.17-4.26-10.78
		c0-3.8,0.92-8.12,2.77-12.96l-5.7-1.9c-1.27,3.3-2.22,6.47-2.85,9.51c-0.63,3.04-0.95,5.92-0.95,8.64c0,4.57,0.87,8.54,2.62,11.9
		s4.29,5.97,7.63,7.84c3.34,1.86,7.39,2.79,12.16,2.79c8.14,0,14.58-2.28,19.3-6.83c4.33-4.17,6.67-9.71,7.06-16.57
		c1.07,0.43,2.16,0.71,3.28,0.81c1.59,0.15,3.6,0.23,6.02,0.23h16.13c0,0,0,0,0,0s0,0,0,0h16.13h16.13h16.13c0,0,0,0,0,0s0,0,0,0
		h16.13h16.13h16.13h16.13c0,0,0,0,0,0s0,0,0,0h16.13h16.13h16.13c0,0,0,0,0,0c0,0,0,0,0,0h16.13h16.13h16.13c0,0,0,0,0,0
		c0,0,0,0,0,0h16.13h16.13h16.13c0,0,0,0,0,0c0,0,0,0,0,0h16.13h16.13h16.13c0,0,0,0,0,0c0,0,0,0,0,0h16.13h16.13H1224.16z"/>
	<polygon class="st0" points="1202.79,530.69 1211.6,537.2 1216.85,530.46 1208.09,523.89 	"/>
	<path class="st0" d="M1282.02,499.46c-0.77-3.38-2.09-6.86-3.98-10.43s-4.06-7.09-6.54-10.54c-2.48-3.46-5.04-6.68-7.69-9.68
		l-6.74,6.97c2.27,2.34,4.59,4.93,6.97,7.75s4.58,5.7,6.6,8.61c2.02,2.92,3.56,5.65,4.64,8.18c0.27,0.61,0.49,1.17,0.66,1.67
		c0.17,0.5,0.26,0.92,0.26,1.27c0,0.58-0.2,0.98-0.6,1.21s-1.09,0.38-2.05,0.46c-1.81,0.19-3.78,0.33-5.93,0.4
		c-2.15,0.08-4.09,0.12-5.82,0.12c-4.26,0-7.68-0.52-10.26-1.56c-2.57-1.04-4.3-3.48-5.19-7.32l-5.19,2.65
		c0.5,4.26,1.49,7.62,2.97,10.05c1.48,2.44,3.6,4.17,6.37,5.19c2.77,1.02,6.32,1.53,10.66,1.53c1.84,0,3.81-0.06,5.91-0.17
		s4.05-0.27,5.88-0.46c1.82-0.19,3.2-0.38,4.12-0.58c0.92-0.23,1.74-0.71,2.45-1.44c0.71-0.73,1.3-1.59,1.76-2.59
		c0.92-2,1.38-4.23,1.38-6.68C1282.65,502.57,1282.44,501.04,1282.02,499.46z"/>
</g>
</svg>
