<?xml version="1.0" encoding="UTF-8"?><svg id="Layer_2" xmlns="http://www.w3.org/2000/svg" viewBox="0 0 16 16"><defs><style>.cls-1{fill:#04a37b;}.cls-2{fill:none;}</style></defs><g id="Layer_1-2"><g><rect class="cls-2" width="16" height="16"/><g><path class="cls-1" d="M13.2,5.88l-1.03,.32-.59,.19-1.79,.56-.6,.19-.93,.29h0c-.17,.05-.36,.05-.53,0l-.94-.3-.6-.19-1.79-.56-.59-.18-1.01-.32c-.08-.03-.17,.04-.17,.12v.6c0,.06,.04,.11,.09,.12l.89,.28s.03,.01,.05,.02l.07,.02s.08,.06,.08,.11v.38c0,.08-.07,.13-.15,.11l-.9-.28h0c-.07,0-.13,.05-.13,.13v3.74c0,.26,.17,.49,.42,.57l4.77,1.49c.12,.04,.24,.04,.36,0l4.77-1.49c.25-.08,.42-.31,.42-.57v-3.74c0-.08-.07-.14-.15-.12,0,0,0,0-.01,0l-.43,.13-.22,.07s-.01,0-.02,0l-.22,.07c-.07,.02-.15-.03-.15-.11v-.38s.03-.09,.08-.11l.12-.04s0,0,.01,0l.89-.28c.05-.02,.09-.07,.09-.12v-.6c0-.09-.08-.15-.17-.12Zm-7.35,2.44h0s-.02,0-.02,0l-.32-.1h-.01s-1.04-.33-1.04-.33c-.03,0-.05-.04-.05-.07v-.47s.05-.08,.09-.07l.25,.08h0s.04,0,.06,.01l1.19,.37s.04,.01,.05,.02h0s.08,.03,.08,.03c.03,0,.05,.04,.05,.07v.47s-.05,.08-.09,.07l-.25-.08Zm3.3,.3l-.09,.03s-.05,.03-.07,.03l-.72,.22c-.17,.05-.36,.05-.53,0l-.72-.22s-.03-.01-.05-.02h0s-.13-.04-.13-.04c-.03,0-.05-.04-.05-.07v-.46c0-.05,.05-.09,.1-.07l.26,.08s.04,0,.05,.01h0l.72,.22s.1,.02,.15,0l1.04-.33s.08,.02,.08,.06v.48s-.02,.05-.05,.06Zm2.38-.74l-.12,.04s-.03,.01-.04,.02l-1.19,.37s-.04,.01-.06,.01l-.18,.06c-.07,.02-.14-.03-.14-.11v-.24s0-.02,0-.02v-.13s.03-.09,.08-.11l.13-.04h0s1.19-.37,1.19-.37c0,0,.01,0,.02,0l.28-.09s.09,.02,.09,.07v.48s-.02,.06-.05,.07Z"/><path class="cls-1" d="M12.95,4.12l-4.77-1.41c-.12-.03-.24-.03-.36,0l-4.77,1.41c-.25,.07-.42,.29-.42,.54v.26c0,.24,.16,.44,.38,.51l3.18,.94,.6,.18,1.12,.33c.06,.02,.12,.02,.18,0l1.11-.33,.6-.18,3.19-.94c.23-.07,.38-.28,.38-.51v-.26c0-.25-.17-.47-.42-.54Zm-.97,.76l-3.73,1.1c-.17,.05-.34,.05-.51,0l-3.73-1.1c-.08-.02-.08-.13,0-.16l3.73-1.1c.17-.05,.34-.05,.51,0l3.73,1.1c.08,.02,.08,.13,0,.16Z"/></g></g></g></svg>