<?xml version="1.0" encoding="UTF-8"?><svg id="Layer_2" xmlns="http://www.w3.org/2000/svg" viewBox="0 0 16 16"><defs><style>.cls-1{fill:#04a37b;}.cls-2{fill:none;}</style></defs><g id="Layer_1-2"><g><rect class="cls-2" width="16" height="16"/><g><path class="cls-1" d="M11.54,7.34v1.38c0,.07,0,.13-.03,.19-.08,.26-.32,.45-.61,.45h-.06c-.35,0-.64-.28-.64-.64v-1.38c0-.35,.28-.64,.64-.64h.06c.29,0,.53,.19,.61,.45,.02,.06,.03,.12,.03,.19Z"/><path class="cls-1" d="M9.22,6.04c-.37,0-.66,.3-.66,.66v.74c0,.1,.03,.21,.1,.28,.14,.17,.23,.39,.23,.63,0,.2-.06,.38-.16,.53-.06,.09-.04,.2,.03,.28,.12,.12,.29,.19,.46,.19,.37,0,.66-.3,.66-.66v-1.99c0-.37-.3-.66-.66-.66h0Z"/><path class="cls-1" d="M11.51,9.81v1.26c0,1.26-1.02,2.28-2.28,2.28h-2.49c-1.26,0-2.28-1.02-2.28-2.28v-1.99c0-.31,.05-.61,.13-.91h0s0-.02,.01-.03c.02-.04,.03-.08,.06-.12,.02-.04,.05-.07,.08-.1,.03-.03,.06-.06,.09-.08,.03-.03,.07-.05,.11-.07,.08-.04,.17-.06,.25-.06,.01,0,.02,0,.03,0h2.66c.38,0,.69,.32,.66,.71-.02,.35-.33,.62-.69,.62h-1.8c-.1,0-.18,.08-.17,.18,0,.09,.09,.15,.17,.15h.03c.89,0,1.62,1.04,1.62,2.32,0,.1,.08,.17,.18,.17,.09,0,.15-.09,.15-.17,0-.91-.34-1.72-.86-2.19-.05-.04-.02-.12,.05-.12h.65c.2,0,.34-.05,.42-.09,.04-.02,.09,0,.12,.03,.08,.1,.17,.18,.28,.25,.03,.02,.05,.03,.08,.04,.04,.02,.09,.04,.14,.05,.02,0,.04,.01,.07,.02,.07,.02,.15,.03,.23,.03,.08,0,.15-.01,.23-.03,.02,0,.04-.01,.07-.02,.1-.03,.19-.07,.27-.13,.02-.01,.04-.03,.06-.05,.02-.02,.04-.03,.06-.05,0,0,0,0,0,0,.07-.07,.2-.06,.27,0,.18,.17,.42,.27,.68,.27h.04c.12,0,.24-.02,.34-.06,.13-.05,.27,.04,.27,.18Z"/><path class="cls-1" d="M8.22,7.15v-.42c0-.35-.27-.66-.62-.69-.39-.03-.71,.28-.71,.66v.45c0,.12,.1,.22,.22,.22h.89c.12,0,.22-.1,.22-.22Z"/><path class="cls-1" d="M6.5,3.32v3.84c-.01,.12-.11,.21-.24,.21h-1c-.13,0-.23-.09-.23-.21V3.31s.01-.66,.74-.66c.72,0,.73,.65,.73,.67Z"/></g></g></g></svg>