<?xml version="1.0" encoding="UTF-8"?><svg id="Layer_2" xmlns="http://www.w3.org/2000/svg" viewBox="0 0 32 32"><defs><style>.cls-1{fill:#04a37b;}.cls-2{fill:none;}</style></defs><g id="Layer_1-2"><g><rect class="cls-2" width="32" height="32"/><g><path class="cls-1" d="M13.94,20.76c-.31,1.36-1.67,2.2-3.03,1.89l-2.69-.62c-3.07-.68-2.52-4.36-2.51-4.41h0c-.08-.73-.2-1.75-.35-3.08-.05-.42,.26-.8,.69-.82,.38-.02,.7,.28,.76,.61,.04,.22,.06,.51,.07,.61h0c0,.09-.21,2.13,1.58,2.62,1.18,.27,1.51,1.74,1.23,2.93-.02,.1,.05,.21,.15,.22,.09,.01,.18-.06,.2-.15,.23-.98,.06-1.94-.38-2.58,0,0,0-.02-.01-.03-.05-.1-.28-.45-1.09-.75,0,0-.01,0-.03,0-.75-.28-1.04-.82-1.17-1.31-.11-.41-.11-.85-.01-1.27l.92-3.95c.09-.4,.49-.65,.89-.55,.39,.1,.63,.5,.53,.89l-1.02,4.38c-.04,.17,.06,.35,.25,.38,.17,.03,.34-.08,.37-.25l1.31-5.67c.09-.4,.49-.65,.89-.55,.39,.1,.63,.5,.54,.89l-1.31,5.66c-.04,.17,.07,.34,.24,.38,.17,.04,.35-.06,.39-.24l1.1-4.75c.09-.4,.49-.65,.89-.55,.39,.1,.63,.5,.54,.89l-1.1,4.74c-.04,.17,.07,.34,.24,.38h0c.17,.04,.34-.07,.38-.24l.66-2.84c.09-.39,.48-.65,.87-.56,.4,.09,.66,.49,.56,.88l-1.57,6.78Z"/><path class="cls-1" d="M18.06,20.76c.31,1.36,1.67,2.2,3.03,1.89l2.69-.62c3.07-.68,2.52-4.36,2.51-4.41h0c.08-.73,.2-1.75,.35-3.08,.05-.42-.26-.8-.69-.82-.38-.02-.7,.28-.76,.61-.04,.22-.06,.51-.07,.61h0c0,.09,.21,2.13-1.58,2.62-1.18,.27-1.51,1.74-1.23,2.93,.02,.1-.05,.21-.15,.22-.09,.01-.18-.06-.2-.15-.23-.98-.06-1.94,.38-2.58,0,0,0-.02,.01-.03,.05-.1,.28-.45,1.09-.75,0,0,.01,0,.03,0,.75-.28,1.04-.82,1.17-1.31,.11-.41,.11-.85,.01-1.27l-.92-3.95c-.09-.4-.49-.65-.89-.55-.39,.1-.63,.5-.53,.89l1.02,4.38c.04,.17-.06,.35-.25,.38-.17,.03-.34-.08-.37-.25l-1.31-5.67c-.09-.4-.49-.65-.89-.55-.39,.1-.63,.5-.54,.89l1.31,5.66c.04,.17-.07,.34-.24,.38-.17,.04-.35-.06-.39-.24l-1.1-4.75c-.09-.4-.49-.65-.89-.55-.39,.1-.63,.5-.54,.89l1.1,4.74c.04,.17-.07,.34-.24,.38h0c-.17,.04-.34-.07-.38-.24l-.66-2.84c-.09-.39-.48-.65-.87-.56-.4,.09-.66,.49-.56,.88l1.57,6.78Z"/></g></g></g></svg>