<?xml version="1.0" encoding="UTF-8"?><svg id="Layer_2" xmlns="http://www.w3.org/2000/svg" viewBox="0 0 32 32"><defs><style>.cls-1{fill:#04a37b;}.cls-2{fill:none;}</style></defs><g id="Layer_1-2"><g><rect class="cls-2" width="32" height="32"/><g><path class="cls-1" d="M26.4,11.77l-2.06,.64-1.18,.37-3.58,1.12-1.19,.37-1.86,.58h0c-.35,.11-.72,.11-1.07,0l-1.89-.59-1.19-.37-3.58-1.12-1.18-.37-2.03-.63c-.16-.05-.33,.07-.33,.24v1.19c0,.11,.07,.21,.18,.24l1.79,.56s.06,.02,.09,.04l.14,.04c.09,.03,.16,.12,.16,.22v.77c0,.15-.15,.26-.29,.22l-1.8-.56h0c-.14,0-.26,.11-.26,.25v7.48c0,.52,.34,.98,.84,1.14l9.54,2.98c.23,.07,.48,.07,.71,0l9.54-2.98c.5-.15,.84-.62,.84-1.14v-7.48c0-.16-.14-.27-.3-.25-.01,0-.02,0-.03,0l-.86,.27-.43,.13s-.02,0-.03,0l-.45,.14c-.15,.05-.29-.06-.29-.22v-.77c0-.1,.06-.19,.16-.22l.23-.07s.02,0,.03,0l1.79-.56c.11-.03,.18-.13,.18-.24v-1.2c0-.17-.17-.3-.33-.24Zm-14.7,4.88h0s-.03,0-.05-.01l-.64-.2h-.02s-2.08-.65-2.08-.65c-.06-.02-.1-.07-.1-.13v-.95c0-.09,.09-.16,.18-.13l.51,.16h0s.08,.01,.12,.02l2.39,.75s.07,.03,.11,.05h0s.17,.05,.17,.05c.06,.02,.1,.07,.1,.14v.93c0,.1-.09,.16-.18,.14l-.5-.16Zm6.6,.61l-.18,.06s-.09,.05-.15,.07l-1.44,.45c-.35,.11-.72,.11-1.07,0l-1.44-.45s-.06-.02-.09-.04h0s-.26-.08-.26-.08c-.06-.02-.11-.08-.11-.14v-.91c0-.1,.1-.17,.2-.14l.51,.16s.07,.01,.11,.02h0l1.44,.45c.1,.03,.21,.04,.31,.01l2.09-.65c.08-.03,.17,.04,.17,.12v.95c0,.06-.04,.11-.09,.13Zm4.76-1.47l-.24,.07s-.05,.02-.08,.03l-2.39,.75s-.08,.02-.13,.02l-.36,.11c-.14,.04-.29-.06-.29-.21v-.47s0-.03,0-.05v-.25c0-.1,.06-.18,.15-.21l.26-.08h0s2.39-.75,2.39-.75c.01,0,.02,0,.03,0l.56-.18c.09-.03,.18,.04,.18,.13v.95c0,.06-.04,.11-.1,.13Z"/><path class="cls-1" d="M25.9,8.23l-9.54-2.82c-.23-.07-.48-.07-.71,0l-9.54,2.82c-.5,.14-.84,.58-.84,1.08v.51c0,.47,.31,.89,.76,1.02l6.36,1.88,1.19,.35,2.25,.66c.12,.04,.24,.04,.35,0l2.22-.65,1.19-.35,6.39-1.89c.45-.13,.76-.55,.76-1.02v-.51c0-.49-.34-.93-.84-1.08Zm-1.94,1.52l-7.46,2.2c-.33,.1-.69,.1-1.02,0l-7.46-2.2c-.16-.05-.16-.27,0-.32l7.46-2.2c.33-.1,.69-.1,1.02,0l7.46,2.2c.16,.05,.16,.27,0,.32Z"/></g></g></g></svg>