<?xml version="1.0" encoding="UTF-8"?><svg id="Layer_2" xmlns="http://www.w3.org/2000/svg" viewBox="0 0 32 32"><defs><style>.cls-1{fill:#04a37b;}.cls-2{fill:none;}</style></defs><g id="Layer_1-2"><g><rect class="cls-2" width="32" height="32"/><g><path class="cls-1" d="M10.49,18.96h11.03c.42,0,.81-.21,1.04-.56,.36-.56,.57-1.23,.57-1.95,0-1.18-.58-2.29-1.57-2.95-.19-.12-.37-.25-.55-.36-1.51-1-2.76-1.82-3.8-2.91-.26-.3-.67-.88-.8-1.71h0c.18-.02,.37-.07,.54-.14,.43-.18,.76-.52,.93-.96,.07-.19-.02-.4-.2-.47-.19-.07-.4,.02-.47,.2-.1,.26-.29,.45-.54,.56-.26,.11-.55,.11-.81,0-.26-.11-.46-.32-.55-.59-.14-.4-.02-.85,.31-1.12,.15-.13,.17-.36,.05-.51-.13-.15-.36-.17-.51-.05-.55,.46-.76,1.23-.52,1.91,.16,.45,.5,.82,.94,1.01,0,0,.02,0,.03,.01v.13s-.03,.8-.67,1.57c-.12,.13-.24,.25-.36,.37-.02,.02-.04,.03-.05,.05-.99,.95-2.14,1.72-3.52,2.63-.18,.12-.36,.24-.55,.36-.99,.66-1.57,1.77-1.57,2.95,0,.72,.21,1.39,.57,1.95,.23,.35,.62,.57,1.04,.57Z"/><path class="cls-1" d="M23.13,20.06H8.87c-.61,0-1.1,.49-1.1,1.1v4.39c0,.61,.49,1.1,1.1,1.1h.91c.4,0,.73-.33,.73-.73v-1.73c0-.46,.37-.83,.83-.82,.45,0,.81,.38,.81,.84v1.72c0,.41,.33,.74,.74,.74h.72c.41,0,.74-.33,.74-.74v-1.25c0-.65,.29-1.27,.79-1.69l.86-.71,.86,.71c.5,.42,.79,1.03,.79,1.69v1.25c0,.41,.33,.74,.74,.74h.72c.41,0,.74-.33,.74-.74v-1.73c0-.46,.37-.83,.83-.82,.45,0,.81,.38,.81,.84v1.72c0,.4,.33,.73,.73,.73h.91c.61,0,1.1-.49,1.1-1.1v-4.39c0-.61-.49-1.1-1.1-1.1Z"/></g></g></g></svg>