<?xml version="1.0" encoding="UTF-8"?><svg id="Layer_2" xmlns="http://www.w3.org/2000/svg" viewBox="0 0 32 32"><defs><style>.cls-1{fill:#04a37b;}.cls-2{fill:none;}</style></defs><g id="Layer_1-2"><g><rect class="cls-2" width="32" height="32"/><g><path class="cls-1" d="M18.66,12.57c-.12-.12-.23-.35-.23-.52v-1.16h-1.16c-.17,0-.34-.05-.52-.23l-.81-.81-.8,.81c-.12,.12-.35,.23-.52,.23h-1.16v1.16c0,.17-.05,.34-.23,.52l-.8,.8,.8,.81c.12,.12,.23,.35,.23,.52l-.05,1.15h1.15c.17,0,.35,.06,.52,.23l.81,.81,.81-.81c.11-.11,.34-.23,.51-.23h1.16v-1.15c0-.17,.06-.35,.23-.52l.81-.81-.75-.8Zm-1.25,.67l-.25,.22,.08,.33c.02,.08-.07,.14-.14,.1l-.29-.18-.29,.18c-.07,.04-.16-.02-.14-.1l.08-.33-.26-.22c-.06-.06-.02-.16,.06-.16l.33-.03,.13-.31c.04-.08,.14-.08,.18,0l.12,.31,.34,.03c.08,0,.12,.1,.05,.16Zm1.25-.67c-.12-.12-.23-.35-.23-.52v-1.16h-1.16c-.17,0-.34-.05-.52-.23l-.81-.81-.8,.81c-.12,.12-.35,.23-.52,.23h-1.16v1.16c0,.17-.05,.34-.23,.52l-.8,.8,.8,.81c.12,.12,.23,.35,.23,.52l-.05,1.15h1.15c.17,0,.35,.06,.52,.23l.81,.81,.81-.81c.11-.11,.34-.23,.51-.23h1.16v-1.15c0-.17,.06-.35,.23-.52l.81-.81-.75-.8Zm-1.25,.67l-.25,.22,.08,.33c.02,.08-.07,.14-.14,.1l-.29-.18-.29,.18c-.07,.04-.16-.02-.14-.1l.08-.33-.26-.22c-.06-.06-.02-.16,.06-.16l.33-.03,.13-.31c.04-.08,.14-.08,.18,0l.12,.31,.34,.03c.08,0,.12,.1,.05,.16Zm3.91-7.88H8.02c-.73,0-1.33,.6-1.33,1.33v13.3c0,.74,.6,1.33,1.33,1.33v2.66c-.73,0-1.33,.6-1.33,1.33s.6,1.33,1.33,1.33h13.3c2.21,0,3.99-1.78,3.99-3.99V9.35c0-2.2-1.78-3.99-3.99-3.99Zm-10.45,7.49l1.15-1.15v-1.61c0-.41,.35-.75,.75-.75h1.62l1.09-1.1c.12-.12,.35-.23,.52-.23,.18,0,.35,.06,.52,.23l1.1,1.1h1.61c.41,0,.75,.34,.75,.75v1.61l1.16,1.15c.11,.12,.23,.35,.23,.52,0,.18-.06,.35-.23,.52l-1.16,1.1v1.61c0,.41-.34,.75-.75,.75h-1.61l-1.1,1.1c-.23,.11-.4,.23-.58,.23-.17,0-.34-.06-.51-.23l-1.1-1.1h-1.61c-.41,0-.75-.34-.75-.75v-1.61l-1.1-1.1c-.12-.11-.23-.34-.23-.52,0-.17,.06-.34,.23-.52Zm10.45,11.13H10.68v-2.66h10.64c.74,0,1.33,.6,1.33,1.33s-.59,1.33-1.33,1.33Zm-7.86-9.28l-.05,1.15h1.15c.17,0,.35,.06,.52,.23l.81,.81,.81-.81c.11-.11,.34-.23,.51-.23h1.16v-1.15c0-.17,.06-.35,.23-.52l.81-.81-.75-.8c-.12-.12-.23-.35-.23-.52v-1.16h-1.16c-.17,0-.34-.05-.52-.23l-.81-.81-.8,.81c-.12,.12-.35,.23-.52,.23h-1.16v1.16c0,.17-.05,.34-.23,.52l-.8,.8,.8,.81c.12,.12,.23,.35,.23,.52Zm3.9-1.62c.08,0,.12,.1,.05,.16l-.25,.22,.08,.33c.02,.08-.07,.14-.14,.1l-.29-.18-.29,.18c-.07,.04-.16-.02-.14-.1l.08-.33-.26-.22c-.06-.06-.02-.16,.06-.16l.33-.03,.13-.31c.04-.08,.14-.08,.18,0l.12,.31,.34,.03Z"/><path class="cls-2" d="M17.05,14.76c.02,.05,0,.11-.05,.14-.29,.19-.64,.3-1.01,.3-1.03,0-1.86-.83-1.86-1.86s.83-1.86,1.86-1.86c.37,0,.72,.11,1.01,.3,.05,.03,.07,.09,.05,.14s-.08,.08-.13,.07c-.09-.02-.18-.03-.28-.03-.76,0-1.38,.62-1.38,1.38s.62,1.38,1.38,1.38c.09,0,.19-.01,.28-.03,.06-.01,.11,.02,.13,.07Z"/></g></g></g></svg>