<?xml version="1.0" encoding="UTF-8"?><svg id="Layer_2" xmlns="http://www.w3.org/2000/svg" viewBox="0 0 32 32"><defs><style>.cls-1{fill:#04a37b;}.cls-2{fill:none;}</style></defs><g id="Layer_1-2"><g><rect class="cls-2" width="32" height="32"/><g><path class="cls-1" d="M10.91,19.1c.28,0,.42-.33,.24-.54-1.16-1.31-3.94-4.79-3.24-7.23,.33-1.15,1.27-1.78,2.32-2.13,1.86-.61,3.91-.27,5.5,.88l8.95,6.44c.29,.21,.3,.64,.01,.86l-2.23,1.7c-.26,.19-.61,.2-.87,.02l-2.28-1.62c-.17-.11-.39-.09-.53,.05l-.59,.6c-.17,.17-.16,.45,.02,.62l3.85,3.51c.25,.23,.09,.65-.25,.65l-2.27-.02c-.1,0-.2-.04-.26-.11l-4.37-4.57c-.34-.35-.3-.92,.08-1.23l2.31-1.88h0c.15-.18-.04-.43-.25-.33l-3.01,1.42c-.3,.14-.42,.51-.26,.8l1.49,2.73c.38,2.51-.93,3.28-.93,3.28l-6.47,.06c-.31,0-.57-.23-.61-.54l-.05-.46c-.02-.19-.23-.29-.39-.19l-1.99,1.17c-.31,.18-.69-.03-.7-.39l-.08-2.99c0-.26,.2-.47,.46-.48l6.42-.08Z"/><path class="cls-1" d="M26.83,22.83h-.8s-.08-.04-.08-.08v-4.84s.04-.08,.08-.08h.8c.63,0,1.14,.51,1.14,1.14v2.72c0,.63-.51,1.14-1.14,1.14Z"/><path class="cls-1" d="M22.34,19.91l3.14-2.02c.05-.03,.12,0,.12,.07v4.76c0,.06-.06,.1-.11,.08l-2.32-.81c-.55-.19-.92-.71-.92-1.3v-.61c0-.07,.04-.13,.1-.16Z"/></g></g></g></svg>