<?xml version="1.0" encoding="UTF-8"?><svg id="Layer_2" xmlns="http://www.w3.org/2000/svg" viewBox="0 0 32 32"><defs><style>.cls-1{fill:#04a37b;}.cls-2{fill:none;}</style></defs><g id="Layer_1-2"><g><rect class="cls-2" width="32" height="32"/><g><path class="cls-1" d="M14.17,11.96c1.31,0,2.94-.92,2.94-2.66,0-1.63-1.36-3.29-2.79-3.91-.57-.24-1.22,.11-1.31,.73-.08,.54-.27,.78-.69,1.16-2.05,1.9-.24,4.68,1.86,4.68Z"/><path class="cls-1" d="M22.65,18.8c-1.57,0-2.85,1.28-2.85,2.85,0,.33,.06,.65,.16,.95,0,0,0,0,0,0h-.96c0-.06,0-.13,0-.19v-7.6c0-1.05-.85-1.9-1.9-1.9h-2.5c-.17,0-.31,.14-.31,.31,0,.31,0,1.02,0,2.74,0,.52-.42,.94-.93,.95-.53,.01-.97-.44-.97-.97,0-1.7,0-2.4,0-2.71,0-.17-.14-.31-.31-.31h-.68c-1.05,0-1.9,.85-1.9,1.9v7.6c0,.07,0,.13,0,.19h0s-2.07,0-2.07,0c-.52,0-.95,.43-.95,.95,0,.47,.34,.86,.79,.94,.44,1.29,1.53,2.21,2.82,2.21h8.32c1.28,0,2.37-.91,2.81-2.19h1.41s.03,0,.05,0c1.55-.03,2.8-1.29,2.8-2.85s-1.28-2.85-2.85-2.85Zm0,3.8c-.52,0-.95-.43-.95-.95s.43-.95,.95-.95,.95,.43,.95,.95-.43,.95-.95,.95Z"/></g></g></g></svg>