<?xml version="1.0" encoding="UTF-8"?><svg id="Layer_2" xmlns="http://www.w3.org/2000/svg" viewBox="0 0 32 32"><defs><style>.cls-1{fill:#04a37b;}.cls-2{fill:none;}</style></defs><g id="Layer_1-2"><g><rect class="cls-2" width="32" height="32"/><g><path class="cls-1" d="M21.74,21.11c-.6-.6-1.57-.6-2.16,0-.6,.6-.6,1.57,0,2.16,.6,.6,1.57,.6,2.16,0,.6-.6,.6-1.57,0-2.16Z"/><g><path class="cls-1" d="M22.66,26.42c-.53,.28-1.72-.95-2-1.48-.28-.53-.07-1.19,.46-1.46,.53-.28,1.19-.07,1.46,.46,.62,1.17-.79,1.3,.08,2.49Z"/><path class="cls-1" d="M22.01,26.64c.59-.1,.78-1.8,.68-2.4-.1-.59-.67-.98-1.26-.88-.59,.1-.98,.67-.88,1.26,.23,1.31,1.42,.54,1.46,2.02Z"/><path class="cls-1" d="M23.06,26.09c-.38,.46-1.96-.19-2.42-.57-.46-.38-.53-1.06-.16-1.53,.38-.46,1.06-.53,1.53-.16,1.03,.84-.21,1.5,1.05,2.26Z"/><path class="cls-1" d="M21.47,26.62c.58,.14,1.43-1.35,1.56-1.94,.14-.58-.23-1.17-.81-1.3-.58-.14-1.17,.23-1.3,.81-.3,1.29,1.09,1.06,.55,2.43Z"/></g><path class="cls-1" d="M13.64,6.89c0,.84,.68,1.53,1.53,1.53s1.53-.69,1.53-1.53-.69-1.53-1.53-1.53-1.53,.69-1.53,1.53Z"/><path class="cls-1" d="M16.66,7.41c0,.84,.68,1.53,1.53,1.53s1.53-.69,1.53-1.53-.69-1.53-1.53-1.53-1.53,.69-1.53,1.53Z"/><path class="cls-1" d="M19.36,8.68c0,.84,.68,1.53,1.53,1.53s1.53-.69,1.53-1.53-.69-1.53-1.53-1.53-1.53,.69-1.53,1.53Z"/><path class="cls-1" d="M21.31,10.88c0,.84,.68,1.53,1.53,1.53s1.53-.69,1.53-1.53-.69-1.53-1.53-1.53-1.53,.69-1.53,1.53Z"/><path class="cls-1" d="M22.69,13.56c0,.84,.68,1.53,1.53,1.53s1.53-.69,1.53-1.53-.69-1.53-1.53-1.53-1.53,.69-1.53,1.53Z"/><path class="cls-1" d="M22.42,16.56c0,.84,.68,1.53,1.53,1.53s1.53-.69,1.53-1.53-.69-1.53-1.53-1.53-1.53,.69-1.53,1.53Z"/><path class="cls-1" d="M21.23,19.22c0,.84,.68,1.53,1.53,1.53s1.53-.69,1.53-1.53-.69-1.53-1.53-1.53-1.53,.69-1.53,1.53Z"/><path class="cls-1" d="M18.24,19.28c0,.84,.68,1.53,1.53,1.53s1.53-.69,1.53-1.53-.69-1.53-1.53-1.53-1.53,.69-1.53,1.53Z"/><path class="cls-1" d="M15.18,19.37c0,.84,.68,1.53,1.53,1.53s1.53-.69,1.53-1.53-.69-1.53-1.53-1.53-1.53,.69-1.53,1.53Z"/><path class="cls-1" d="M12.33,20.4c0,.84,.68,1.53,1.53,1.53s1.53-.69,1.53-1.53-.69-1.53-1.53-1.53-1.53,.69-1.53,1.53Z"/><path class="cls-1" d="M9.42,19.49c0,.84,.68,1.53,1.53,1.53s1.53-.69,1.53-1.53-.69-1.53-1.53-1.53-1.53,.69-1.53,1.53Z"/><path class="cls-1" d="M6.86,17.84c0,.84,.68,1.53,1.53,1.53s1.53-.69,1.53-1.53-.69-1.53-1.53-1.53-1.53,.69-1.53,1.53Z"/><path class="cls-1" d="M6.25,14.84c0,.84,.68,1.53,1.53,1.53s1.53-.69,1.53-1.53-.69-1.53-1.53-1.53-1.53,.69-1.53,1.53Z"/><path class="cls-1" d="M6.25,11.81c0,.84,.68,1.53,1.53,1.53s1.53-.69,1.53-1.53-.69-1.53-1.53-1.53-1.53,.69-1.53,1.53Z"/><path class="cls-1" d="M8.13,9.4c0,.84,.68,1.53,1.53,1.53s1.53-.69,1.53-1.53-.69-1.53-1.53-1.53-1.53,.69-1.53,1.53Z"/><path class="cls-1" d="M10.42,7.29c0,.89,.72,1.61,1.61,1.61s1.61-.72,1.61-1.61-.72-1.61-1.61-1.61-1.61,.72-1.61,1.61Z"/></g></g></g></svg>