<?xml version="1.0" encoding="UTF-8"?><svg id="Layer_2" xmlns="http://www.w3.org/2000/svg" viewBox="0 0 32 32"><defs><style>.cls-1,.cls-2{fill:#04a37b;}.cls-3{fill:none;}.cls-2{fill-rule:evenodd;}</style></defs><g id="Layer_1-2"><g><rect class="cls-3" width="32" height="32"/><g><path class="cls-1" d="M22.5,16.03c-1.91,.91-2.62,3.79-4.53,4.7-1.04,.49-2.35,.59-3.33,.58-.29,0-.34-.41-.07-.49,.92-.28,2.12-.68,2.93-1.07,1.48-.71,1.67-1.42,1.34-2.1-.46-.97-1.69-.98-2.61-.82-2.59,.45-6.04,.89-8.71,1.72-.48,.15-.75,.66-.6,1.14,.48,1.56,1.49,4.88,1.92,6.3,.12,.4,.5,.67,.91,.65,1.54-.07,3.08-.27,4.6-.52,1.44-.24,2.9-.47,4.24-1.07s2.34-1.62,3.28-2.72c.94-1.11,1.8-2.31,2.49-3.59,.29-.53,.64-1.15,.74-1.75,.1-.6-.4-1.06-.95-1.19s-1.15,0-1.66,.23Z"/><path class="cls-2" d="M18.46,10.46c0,1.89-1.53,3.42-3.42,3.42-.9,0-1.71-.35-2.32-.91-.09-.08-.05-.23,.06-.27,1.4-.46,2.4-1.78,2.4-3.33,0-1.07-.51-2.06-1.18-2.9-.09-.11-.08-.28,.02-.38,.32-.31,.58-.53,.69-.62,.19-.15,.45-.15,.64,0,.21,.17,.97,.81,1.68,1.7,.7,.87,1.42,2.05,1.42,3.29Z"/><path class="cls-2" d="M13.82,9.37c0,1.14-.9,2.08-2.03,2.14-.04,0-.07,0-.11,0-1.18,0-2.14-.96-2.14-2.14,0-.77,.45-1.51,.89-2.06,.45-.55,.92-.96,1.05-1.06,.06-.05,.13-.07,.2-.07s.14,.02,.2,.07c.13,.11,.61,.51,1.05,1.06,0,0,0,0,0,0,.44,.54,.88,1.28,.88,2.05Z"/></g></g></g></svg>