<?xml version="1.0" encoding="UTF-8"?><svg id="Layer_2" xmlns="http://www.w3.org/2000/svg" viewBox="0 0 32 32"><defs><style>.cls-1{fill:#04a37b;}.cls-2{fill:none;}</style></defs><g id="Layer_1-2"><g><rect class="cls-2" width="32" height="32"/><g><path class="cls-1" d="M9.3,16.25c1.97-.94,2.7-3.91,4.67-4.85,1.07-.51,2.42-.61,3.44-.59,.3,0,.35,.42,.07,.51-.95,.29-2.19,.7-3.02,1.1-1.53,.73-1.72,1.46-1.38,2.17,.48,1,1.75,1.01,2.69,.84,2.67-.47,6.23-.91,8.98-1.78,.5-.16,.77-.68,.62-1.18-.49-1.61-1.53-5.03-1.98-6.5-.13-.41-.51-.69-.94-.67-1.59,.07-3.18,.28-4.74,.53-1.48,.24-2.99,.48-4.37,1.1s-2.41,1.67-3.38,2.81c-.97,1.14-1.85,2.39-2.57,3.7-.3,.55-.66,1.18-.76,1.81-.1,.62,.41,1.09,.98,1.23s1.19,0,1.71-.24Z"/><g><path class="cls-1" d="M14.37,26.32c.15,.12,.06,.37-.13,.37-.91,0-1.82-.35-2.5-1.06-1.28-1.36-1.22-3.5,.14-4.79,.52-.49,1.14-.78,1.8-.88,.2-.03,.32,.2,.19,.35-1.54,1.76-1.33,4.51,.5,6.01Z"/><path class="cls-1" d="M17.28,25.77c-.2,.19-.42,.35-.65,.48-.48-.17-.92-.46-1.3-.86-1.28-1.36-1.22-3.5,.14-4.79,.2-.19,.42-.35,.65-.48,.48,.17,.92,.46,1.3,.86,1.28,1.36,1.22,3.5-.14,4.79Z"/><path class="cls-1" d="M20.13,25.53c-.65,.62-1.49,.92-2.32,.92-.4,0-.79-.07-1.17-.21-.48-.17-.92-.46-1.3-.86-1.28-1.36-1.22-3.5,.14-4.79,.2-.19,.42-.35,.65-.48,.52-.3,1.1-.45,1.68-.45,.9,0,1.8,.36,2.46,1.06,1.28,1.36,1.22,3.5-.14,4.79Z"/></g></g></g></g></svg>