<?xml version="1.0" encoding="UTF-8"?><svg id="Layer_2" xmlns="http://www.w3.org/2000/svg" viewBox="0 0 64 64"><defs><style>.cls-1{fill:#04a37b;}.cls-2{fill:none;}</style></defs><g id="Layer_1-2"><g><rect class="cls-2" width="64" height="64"/><g><path class="cls-1" d="M52.81,23.54l-4.12,1.29-2.37,.74-7.15,2.23-2.38,.74-3.71,1.16h0c-.69,.22-1.44,.22-2.13,0l-3.78-1.18-2.38-.74-7.15-2.23-2.37-.74-4.06-1.27c-.33-.1-.66,.14-.66,.49v2.39c0,.22,.14,.42,.36,.49l3.57,1.13c.06,.02,.13,.05,.18,.07l.28,.09c.19,.06,.32,.23,.32,.43v1.54c0,.31-.29,.52-.59,.43l-3.61-1.12h0c-.27,0-.51,.21-.51,.5v14.96c0,1.04,.68,1.97,1.67,2.27l19.09,5.96c.46,.14,.96,.14,1.42,0l19.09-5.96c1-.31,1.68-1.23,1.68-2.27v-14.96c0-.32-.29-.55-.59-.49-.02,0-.04,0-.06,.01l-1.71,.53-.86,.27s-.04,.01-.06,.02l-.9,.28c-.29,.09-.59-.13-.59-.43v-1.54c0-.2,.13-.38,.32-.43l.47-.15s.04-.01,.06-.02l3.58-1.12c.21-.07,.36-.26,.36-.49v-2.39c0-.35-.33-.59-.66-.49Zm-29.41,9.76h0s-.06-.02-.09-.03l-1.29-.4h-.04s-4.16-1.3-4.16-1.3c-.12-.04-.2-.14-.2-.27v-1.89c0-.19,.18-.32,.36-.27l1.02,.32h0c.08,0,.16,.02,.24,.05l4.77,1.49c.08,.02,.15,.06,.22,.09h0s.34,.11,.34,.11c.12,.04,.2,.15,.2,.27v1.87c0,.19-.19,.33-.37,.27l-1-.31Zm13.2,1.22l-.36,.11c-.09,.06-.18,.1-.29,.13l-2.87,.89c-.69,.22-1.44,.22-2.13,0l-2.87-.89c-.07-.02-.13-.05-.19-.08h0s-.52-.16-.52-.16c-.13-.04-.21-.16-.21-.29v-1.82c0-.2,.2-.35,.39-.29l1.02,.32c.07,0,.15,.02,.22,.05h0l2.87,.89c.2,.06,.41,.07,.61,.03l4.17-1.3c.17-.05,.34,.07,.34,.25v1.91c0,.11-.07,.22-.18,.25Zm9.53-2.95l-.48,.15c-.05,.03-.11,.05-.16,.06l-4.77,1.49c-.08,.03-.17,.04-.25,.05l-.72,.22c-.28,.09-.57-.12-.57-.42v-.94s0-.06,0-.09v-.51c0-.19,.13-.36,.31-.42l.52-.16h0s4.77-1.49,4.77-1.49c.02,0,.04-.01,.06-.02l1.12-.35c.18-.06,.36,.08,.36,.26v1.91c0,.12-.08,.23-.19,.26Z"/><path class="cls-1" d="M51.8,16.46l-19.09-5.64c-.46-.13-.96-.13-1.42,0l-19.09,5.64c-1,.29-1.68,1.16-1.68,2.15v1.03c0,.95,.62,1.78,1.53,2.05l12.72,3.76,2.38,.7,4.49,1.33c.23,.07,.48,.07,.71,0l4.43-1.31,2.38-.7,12.77-3.77c.91-.27,1.53-1.1,1.53-2.05v-1.03c0-.99-.68-1.86-1.67-2.15Zm-3.87,3.03l-14.91,4.4c-.66,.2-1.37,.2-2.04,0l-14.91-4.4c-.33-.1-.33-.53,0-.63l14.91-4.41c.66-.2,1.37-.2,2.04,0l14.91,4.41c.33,.1,.33,.53,0,.63Z"/></g></g></g></svg>