<?xml version="1.0" encoding="UTF-8"?><svg id="Layer_2" xmlns="http://www.w3.org/2000/svg" viewBox="0 0 64 64"><defs><style>.cls-1{fill:#04a37b;}.cls-2{fill:none;}</style></defs><g id="Layer_1-2"><g><rect class="cls-2" width="64" height="64"/><g><path class="cls-1" d="M20.97,37.93h22.06c.84,0,1.62-.42,2.08-1.13,.72-1.12,1.14-2.46,1.14-3.9,0-2.36-1.15-4.58-3.13-5.9-.38-.25-.74-.49-1.1-.73-3.02-1.99-5.52-3.64-7.61-5.83-.52-.6-1.35-1.76-1.6-3.42h0c.37-.05,.73-.14,1.08-.28,.85-.37,1.51-1.05,1.85-1.92,.15-.37-.04-.79-.41-.94-.37-.15-.79,.04-.94,.41-.2,.51-.59,.91-1.08,1.12-.52,.23-1.1,.22-1.62,0-.52-.23-.91-.65-1.1-1.18-.28-.79-.04-1.69,.61-2.23,.31-.26,.35-.71,.09-1.02-.26-.31-.71-.35-1.02-.09-1.11,.93-1.53,2.46-1.05,3.82,.32,.9,1.01,1.64,1.88,2.03,.02,0,.04,.01,.05,.02v.27s-.06,1.6-1.34,3.15c-.24,.26-.48,.51-.73,.75-.04,.04-.07,.07-.11,.1-1.97,1.91-4.29,3.44-7.04,5.25-.36,.24-.73,.48-1.1,.73-1.99,1.32-3.13,3.54-3.13,5.9,0,1.44,.42,2.77,1.15,3.9,.45,.71,1.24,1.13,2.08,1.13Z"/><path class="cls-1" d="M46.25,40.12H17.75c-1.21,0-2.19,.98-2.19,2.19v8.77c0,1.21,.98,2.19,2.19,2.19h1.82c.81,0,1.47-.66,1.47-1.47v-3.47c0-.92,.74-1.66,1.67-1.64,.9,.01,1.62,.77,1.62,1.67v3.44c0,.81,.66,1.47,1.47,1.47h1.45c.81,0,1.47-.66,1.47-1.47v-2.5c0-1.3,.58-2.54,1.58-3.37l1.71-1.43,1.71,1.43c1,.84,1.58,2.07,1.58,3.37v2.5c0,.81,.66,1.47,1.47,1.47h1.45c.81,0,1.47-.66,1.47-1.47v-3.46c0-.92,.74-1.66,1.67-1.64,.9,.01,1.62,.77,1.62,1.67v3.44c0,.81,.66,1.47,1.47,1.47h1.82c1.21,0,2.19-.98,2.19-2.19v-8.77c0-1.21-.98-2.19-2.19-2.19Z"/></g></g></g></svg>