<?xml version="1.0" encoding="UTF-8"?><svg id="Layer_2" xmlns="http://www.w3.org/2000/svg" viewBox="0 0 64 64"><defs><style>.cls-1{fill:#04a37b;}.cls-2{fill:none;}</style></defs><g id="Layer_1-2"><g><rect class="cls-2" width="64" height="64"/><path class="cls-1" d="M37.31,25.13c-.23-.23-.46-.69-.46-1.04v-2.31h-2.31c-.34,0-.69-.11-1.04-.46l-1.61-1.61-1.62,1.61c-.23,.23-.69,.46-1.03,.46h-2.31v2.31c0,.35-.12,.69-.46,1.04l-1.62,1.61,1.62,1.62c.23,.23,.46,.69,.46,1.04l-.12,2.3h2.31c.35,0,.69,.12,1.04,.46l1.61,1.62,1.62-1.62c.23-.23,.69-.46,1.04-.46h2.3v-2.3c0-.35,.12-.7,.46-1.04l1.62-1.62-1.5-1.61Zm-3.3,4.68c-.58,.38-1.28,.6-2.02,.6-2.06,0-3.72-1.67-3.72-3.73s1.66-3.72,3.72-3.72c.74,0,1.44,.22,2.02,.6,.1,.06,.14,.18,.09,.28-.04,.1-.15,.16-.26,.14-.18-.04-.36-.06-.55-.06-1.53,0-2.76,1.24-2.76,2.76s1.23,2.76,2.76,2.76c.19,0,.37-.02,.55-.05,.11-.02,.22,.04,.26,.14,.04,.1,0,.22-.09,.28Zm.82-3.34l-.51,.44,.15,.66c.04,.16-.13,.29-.28,.2l-.57-.35-.58,.35c-.14,.09-.31-.04-.28-.2l.16-.66-.51-.44c-.13-.11-.06-.31,.11-.32l.67-.06,.26-.62c.06-.16,.28-.16,.34,0l.26,.62,.67,.06c.17,.01,.23,.21,.11,.32Zm2.48-1.34c-.23-.23-.46-.69-.46-1.04v-2.31h-2.31c-.34,0-.69-.11-1.04-.46l-1.61-1.61-1.62,1.61c-.23,.23-.69,.46-1.03,.46h-2.31v2.31c0,.35-.12,.69-.46,1.04l-1.62,1.61,1.62,1.62c.23,.23,.46,.69,.46,1.04l-.12,2.3h2.31c.35,0,.69,.12,1.04,.46l1.61,1.62,1.62-1.62c.23-.23,.69-.46,1.04-.46h2.3v-2.3c0-.35,.12-.7,.46-1.04l1.62-1.62-1.5-1.61Zm-3.3,4.68c-.58,.38-1.28,.6-2.02,.6-2.06,0-3.72-1.67-3.72-3.73s1.66-3.72,3.72-3.72c.74,0,1.44,.22,2.02,.6,.1,.06,.14,.18,.09,.28-.04,.1-.15,.16-.26,.14-.18-.04-.36-.06-.55-.06-1.53,0-2.76,1.24-2.76,2.76s1.23,2.76,2.76,2.76c.19,0,.37-.02,.55-.05,.11-.02,.22,.04,.26,.14,.04,.1,0,.22-.09,.28Zm.82-3.34l-.51,.44,.15,.66c.04,.16-.13,.29-.28,.2l-.57-.35-.58,.35c-.14,.09-.31-.04-.28-.2l.16-.66-.51-.44c-.13-.11-.06-.31,.11-.32l.67-.06,.26-.62c.06-.16,.28-.16,.34,0l.26,.62,.67,.06c.17,.01,.23,.21,.11,.32Zm7.81-15.75H16.04c-1.47,0-2.66,1.19-2.66,2.66v26.6c0,1.48,1.19,2.66,2.66,2.66v5.32c-1.47,0-2.66,1.19-2.66,2.66s1.19,2.66,2.66,2.66h26.6c4.41,0,7.98-3.57,7.98-7.98V18.7c0-4.4-3.57-7.98-7.98-7.98Zm-20.9,14.98l2.3-2.3v-3.23c0-.81,.7-1.5,1.5-1.5h3.23l2.2-2.19c.23-.24,.69-.47,1.03-.47s.7,.12,1.04,.47l2.19,2.19h3.23c.81,0,1.5,.69,1.5,1.5v3.23l2.31,2.3c.23,.23,.46,.7,.46,1.04s-.11,.69-.46,1.04l-2.31,2.19v3.23c0,.81-.69,1.5-1.5,1.5h-3.23l-2.19,2.19c-.46,.23-.8,.47-1.15,.47s-.69-.12-1.04-.47l-2.19-2.19h-3.23c-.81,0-1.5-.69-1.5-1.5v-3.23l-2.19-2.19c-.23-.23-.46-.69-.46-1.04s.11-.69,.46-1.04Zm20.9,22.26H21.36v-5.32h21.28c1.48,0,2.66,1.19,2.66,2.66s-1.18,2.66-2.66,2.66Zm-15.71-18.56l-.12,2.3h2.31c.35,0,.69,.12,1.04,.46l1.61,1.62,1.62-1.62c.23-.23,.69-.46,1.04-.46h2.3v-2.3c0-.35,.12-.7,.46-1.04l1.62-1.62-1.5-1.61c-.23-.23-.46-.69-.46-1.04v-2.31h-2.31c-.34,0-.69-.11-1.04-.46l-1.61-1.61-1.62,1.61c-.23,.23-.69,.46-1.03,.46h-2.31v2.31c0,.35-.12,.69-.46,1.04l-1.62,1.61,1.62,1.62c.23,.23,.46,.69,.46,1.04Zm7.79-3.25c.17,.01,.23,.21,.11,.32l-.51,.44,.15,.66c.04,.16-.13,.29-.28,.2l-.57-.35-.58,.35c-.14,.09-.31-.04-.28-.2l.16-.66-.51-.44c-.13-.11-.06-.31,.11-.32l.67-.06,.26-.62c.06-.16,.28-.16,.34,0l.26,.62,.67,.06Zm-2.73-3.19c.74,0,1.44,.22,2.02,.6,.1,.06,.14,.18,.09,.28-.04,.1-.15,.16-.26,.14-.18-.04-.36-.06-.55-.06-1.53,0-2.76,1.24-2.76,2.76s1.23,2.76,2.76,2.76c.19,0,.37-.02,.55-.05,.11-.02,.22,.04,.26,.14,.04,.1,0,.22-.09,.28-.58,.38-1.28,.6-2.02,.6-2.06,0-3.72-1.67-3.72-3.73s1.66-3.72,3.72-3.72Zm5.32,2.17c-.23-.23-.46-.69-.46-1.04v-2.31h-2.31c-.34,0-.69-.11-1.04-.46l-1.61-1.61-1.62,1.61c-.23,.23-.69,.46-1.03,.46h-2.31v2.31c0,.35-.12,.69-.46,1.04l-1.62,1.61,1.62,1.62c.23,.23,.46,.69,.46,1.04l-.12,2.3h2.31c.35,0,.69,.12,1.04,.46l1.61,1.62,1.62-1.62c.23-.23,.69-.46,1.04-.46h2.3v-2.3c0-.35,.12-.7,.46-1.04l1.62-1.62-1.5-1.61Zm-3.3,4.68c-.58,.38-1.28,.6-2.02,.6-2.06,0-3.72-1.67-3.72-3.73s1.66-3.72,3.72-3.72c.74,0,1.44,.22,2.02,.6,.1,.06,.14,.18,.09,.28-.04,.1-.15,.16-.26,.14-.18-.04-.36-.06-.55-.06-1.53,0-2.76,1.24-2.76,2.76s1.23,2.76,2.76,2.76c.19,0,.37-.02,.55-.05,.11-.02,.22,.04,.26,.14,.04,.1,0,.22-.09,.28Zm.82-3.34l-.51,.44,.15,.66c.04,.16-.13,.29-.28,.2l-.57-.35-.58,.35c-.14,.09-.31-.04-.28-.2l.16-.66-.51-.44c-.13-.11-.06-.31,.11-.32l.67-.06,.26-.62c.06-.16,.28-.16,.34,0l.26,.62,.67,.06c.17,.01,.23,.21,.11,.32Zm2.48-1.34c-.23-.23-.46-.69-.46-1.04v-2.31h-2.31c-.34,0-.69-.11-1.04-.46l-1.61-1.61-1.62,1.61c-.23,.23-.69,.46-1.03,.46h-2.31v2.31c0,.35-.12,.69-.46,1.04l-1.62,1.61,1.62,1.62c.23,.23,.46,.69,.46,1.04l-.12,2.3h2.31c.35,0,.69,.12,1.04,.46l1.61,1.62,1.62-1.62c.23-.23,.69-.46,1.04-.46h2.3v-2.3c0-.35,.12-.7,.46-1.04l1.62-1.62-1.5-1.61Zm-3.3,4.68c-.58,.38-1.28,.6-2.02,.6-2.06,0-3.72-1.67-3.72-3.73s1.66-3.72,3.72-3.72c.74,0,1.44,.22,2.02,.6,.1,.06,.14,.18,.09,.28-.04,.1-.15,.16-.26,.14-.18-.04-.36-.06-.55-.06-1.53,0-2.76,1.24-2.76,2.76s1.23,2.76,2.76,2.76c.19,0,.37-.02,.55-.05,.11-.02,.22,.04,.26,.14,.04,.1,0,.22-.09,.28Zm.82-3.34l-.51,.44,.15,.66c.04,.16-.13,.29-.28,.2l-.57-.35-.58,.35c-.14,.09-.31-.04-.28-.2l.16-.66-.51-.44c-.13-.11-.06-.31,.11-.32l.67-.06,.26-.62c.06-.16,.28-.16,.34,0l.26,.62,.67,.06c.17,.01,.23,.21,.11,.32Z"/></g></g></svg>