<?xml version="1.0" encoding="UTF-8"?><svg id="Layer_2" xmlns="http://www.w3.org/2000/svg" viewBox="0 0 64 64"><defs><style>.cls-1{fill:#04a37b;}.cls-2{fill:none;}</style></defs><g id="Layer_1-2"><g><rect class="cls-2" width="64" height="64"/><g><path class="cls-1" d="M21.82,38.2c.55,0,.84-.66,.48-1.07-2.32-2.63-7.88-9.58-6.48-14.47,.66-2.3,2.54-3.57,4.65-4.26,3.73-1.22,7.82-.53,11,1.76l17.9,12.88c.58,.42,.59,1.28,.02,1.71l-4.46,3.4c-.51,.39-1.22,.41-1.75,.04l-4.57-3.24c-.33-.23-.78-.18-1.06,.1l-1.18,1.2c-.34,.35-.33,.91,.03,1.24l7.69,7.03c.5,.46,.17,1.3-.51,1.29l-4.54-.05c-.2,0-.39-.08-.53-.23l-8.75-9.14c-.68-.71-.61-1.84,.15-2.46l4.63-3.76h0c.3-.35-.09-.86-.51-.67l-6.03,2.85c-.6,.28-.84,1.01-.52,1.6l2.97,5.47c.76,5.02-1.85,6.56-1.85,6.56l-12.94,.11c-.62,0-1.14-.46-1.21-1.07l-.1-.93c-.04-.37-.45-.58-.78-.39l-3.97,2.35c-.61,.36-1.38-.07-1.4-.78l-.15-5.98c-.01-.52,.4-.95,.92-.95l12.85-.15Z"/><path class="cls-1" d="M53.66,45.66h-1.6c-.09,0-.17-.07-.17-.17v-9.68c0-.09,.07-.16,.16-.16h1.61c1.26,0,2.29,1.02,2.29,2.29v5.43c0,1.26-1.02,2.29-2.29,2.29Z"/><path class="cls-1" d="M44.68,39.82l6.28-4.04c.11-.06,.23,.02,.23,.14v9.51c0,.11-.11,.19-.22,.16l-4.65-1.62c-1.1-.39-1.84-1.43-1.84-2.59v-1.22c0-.14,.08-.26,.2-.33Z"/></g></g></g></svg>