<?xml version="1.0" encoding="UTF-8"?><svg id="Layer_2" xmlns="http://www.w3.org/2000/svg" viewBox="0 0 64 64"><defs><style>.cls-1{fill:#04a37b;}.cls-2{fill:none;}</style></defs><g id="Layer_1-2"><g><rect class="cls-2" width="64" height="64"/><g><path class="cls-1" d="M28.35,23.91c2.63,0,5.88-1.84,5.88-5.33,0-3.26-2.72-6.59-5.59-7.81-1.14-.49-2.43,.23-2.62,1.45-.17,1.08-.55,1.55-1.39,2.33-4.09,3.79-.49,9.36,3.72,9.36Z"/><path class="cls-1" d="M45.3,37.6c-3.14,0-5.7,2.56-5.7,5.7,0,.67,.11,1.31,.33,1.9,0,0,0,0,0,0h-1.92c.01-.13,.02-.26,.02-.39v-15.2c0-2.1-1.7-3.8-3.8-3.8h-5.01c-.34,0-.62,.28-.61,.62,0,.63,0,2.04,0,5.47,0,1.04-.83,1.88-1.86,1.9-1.06,.02-1.94-.88-1.94-1.94,0-3.4,0-4.8,0-5.43,0-.34-.27-.62-.61-.62h-1.36c-2.1,0-3.8,1.7-3.8,3.8v15.2c0,.13,0,.26,.02,.39h0s-4.15,0-4.15,0c-1.05,0-1.9,.85-1.9,1.9,0,.94,.68,1.72,1.57,1.87,.88,2.58,3.07,4.41,5.63,4.42h16.64c2.56,0,4.74-1.82,5.62-4.39h2.82s.07,0,.1,0c3.1-.05,5.6-2.59,5.6-5.7s-2.56-5.7-5.7-5.7Zm0,7.6c-1.05,0-1.9-.85-1.9-1.9s.85-1.9,1.9-1.9,1.9,.85,1.9,1.9-.85,1.9-1.9,1.9Z"/></g></g></g></svg>