<?xml version="1.0" encoding="UTF-8"?><svg id="Layer_2" xmlns="http://www.w3.org/2000/svg" viewBox="0 0 64 64"><defs><style>.cls-1{fill:#04a37b;}.cls-2{fill:none;}</style></defs><g id="Layer_1-2"><g><rect class="cls-2" width="64" height="64"/><g><path class="cls-1" d="M43.47,42.22c-1.19-1.19-3.13-1.19-4.33,0-1.19,1.19-1.19,3.13,0,4.33,1.19,1.19,3.13,1.19,4.33,0,1.19-1.19,1.19-3.13,0-4.33Z"/><g><path class="cls-1" d="M45.32,52.84c-1.06,.56-3.45-1.89-4-2.96-.56-1.06-.15-2.37,.91-2.93,1.06-.56,2.37-.15,2.93,.91,1.24,2.35-1.57,2.6,.16,4.97Z"/><path class="cls-1" d="M44.03,53.28c1.18-.21,1.57-3.61,1.36-4.79-.21-1.18-1.33-1.97-2.51-1.76-1.18,.21-1.97,1.33-1.76,2.51,.46,2.61,2.83,1.09,2.91,4.04Z"/><path class="cls-1" d="M46.12,52.18c-.76,.93-3.91-.39-4.84-1.15-.93-.76-1.07-2.12-.31-3.05,.76-.93,2.12-1.07,3.05-.31,2.06,1.67-.43,3,2.1,4.51Z"/><path class="cls-1" d="M42.94,53.23c1.17,.27,2.86-2.7,3.13-3.87,.27-1.17-.45-2.33-1.62-2.6-1.17-.27-2.33,.45-2.6,1.62-.6,2.58,2.18,2.11,1.1,4.86Z"/></g><path class="cls-1" d="M27.27,13.78c0,1.69,1.37,3.06,3.06,3.06s3.06-1.37,3.06-3.06-1.37-3.06-3.06-3.06-3.06,1.37-3.06,3.06Z"/><path class="cls-1" d="M33.31,14.83c0,1.69,1.37,3.06,3.06,3.06s3.06-1.37,3.06-3.06-1.37-3.06-3.06-3.06-3.06,1.37-3.06,3.06Z"/><path class="cls-1" d="M38.72,17.36c0,1.69,1.37,3.06,3.06,3.06s3.06-1.37,3.06-3.06-1.37-3.06-3.06-3.06-3.06,1.37-3.06,3.06Z"/><path class="cls-1" d="M42.62,21.76c0,1.69,1.37,3.06,3.06,3.06s3.06-1.37,3.06-3.06-1.37-3.06-3.06-3.06-3.06,1.37-3.06,3.06Z"/><path class="cls-1" d="M45.39,27.13c0,1.69,1.37,3.06,3.06,3.06s3.06-1.37,3.06-3.06-1.37-3.06-3.06-3.06-3.06,1.37-3.06,3.06Z"/><path class="cls-1" d="M44.85,33.12c0,1.69,1.37,3.06,3.06,3.06s3.06-1.37,3.06-3.06-1.37-3.06-3.06-3.06-3.06,1.37-3.06,3.06Z"/><path class="cls-1" d="M42.45,38.44c0,1.69,1.37,3.06,3.06,3.06s3.06-1.37,3.06-3.06-1.37-3.06-3.06-3.06-3.06,1.37-3.06,3.06Z"/><path class="cls-1" d="M36.48,38.56c0,1.69,1.37,3.06,3.06,3.06s3.06-1.37,3.06-3.06-1.37-3.06-3.06-3.06-3.06,1.37-3.06,3.06Z"/><path class="cls-1" d="M30.36,38.73c0,1.69,1.37,3.06,3.06,3.06s3.06-1.37,3.06-3.06-1.37-3.06-3.06-3.06-3.06,1.37-3.06,3.06Z"/><path class="cls-1" d="M24.65,40.8c0,1.69,1.37,3.06,3.06,3.06s3.06-1.37,3.06-3.06-1.37-3.06-3.06-3.06-3.06,1.37-3.06,3.06Z"/><path class="cls-1" d="M18.83,38.98c0,1.69,1.37,3.06,3.06,3.06s3.06-1.37,3.06-3.06-1.37-3.06-3.06-3.06-3.06,1.37-3.06,3.06Z"/><path class="cls-1" d="M13.72,35.67c0,1.69,1.37,3.06,3.06,3.06s3.06-1.37,3.06-3.06-1.37-3.06-3.06-3.06-3.06,1.37-3.06,3.06Z"/><path class="cls-1" d="M12.49,29.67c0,1.69,1.37,3.06,3.06,3.06s3.06-1.37,3.06-3.06-1.37-3.06-3.06-3.06-3.06,1.37-3.06,3.06Z"/><path class="cls-1" d="M12.49,23.63c0,1.69,1.37,3.06,3.06,3.06s3.06-1.37,3.06-3.06-1.37-3.06-3.06-3.06-3.06,1.37-3.06,3.06Z"/><path class="cls-1" d="M16.25,18.81c0,1.69,1.37,3.06,3.06,3.06s3.06-1.37,3.06-3.06-1.37-3.06-3.06-3.06-3.06,1.37-3.06,3.06Z"/><path class="cls-1" d="M20.84,14.58c0,1.78,1.44,3.22,3.21,3.22s3.22-1.44,3.22-3.22-1.44-3.21-3.22-3.21-3.21,1.44-3.21,3.21Z"/></g></g></g></svg>