<?xml version="1.0" encoding="UTF-8"?><svg id="Layer_2" xmlns="http://www.w3.org/2000/svg" viewBox="0 0 64 64"><defs><style>.cls-1{fill:#04a37b;}.cls-2{fill:none;}</style></defs><g id="Layer_1-2"><g><rect class="cls-2" width="64" height="64"/><g><path class="cls-1" d="M46.16,29.36v5.53c0,.26-.04,.52-.11,.76-.32,1.04-1.28,1.79-2.43,1.79h-.22c-1.41,0-2.54-1.14-2.54-2.54v-5.54c0-1.41,1.14-2.55,2.54-2.55h.22c1.14,0,2.11,.75,2.43,1.79,.08,.24,.11,.5,.11,.76Z"/><path class="cls-1" d="M36.86,24.16c-1.47,0-2.66,1.19-2.66,2.66v2.96c0,.41,.13,.82,.4,1.14,.58,.69,.93,1.57,.93,2.54,0,.79-.24,1.51-.63,2.13-.22,.35-.18,.82,.12,1.11,.49,.47,1.14,.75,1.84,.75,1.47,0,2.66-1.19,2.66-2.66v-7.97c0-1.47-1.19-2.66-2.66-2.66h0Z"/><path class="cls-1" d="M46.05,39.22v5.04c0,5.04-4.08,9.12-9.12,9.12h-9.97c-5.04,0-9.12-4.08-9.12-9.12v-7.96c0-1.23,.18-2.45,.54-3.63h0s.04-.08,.05-.12c.06-.17,.14-.33,.23-.48,.09-.15,.19-.29,.31-.41,.11-.12,.24-.24,.38-.34,.14-.1,.28-.19,.43-.26,.32-.15,.66-.24,1.02-.25,.04,0,.08-.01,.13-.01h10.63c1.53,0,2.75,1.29,2.65,2.84-.09,1.41-1.33,2.48-2.74,2.48h-7.21c-.39,0-.7,.34-.66,.73,.03,.35,.35,.6,.7,.6h.13c3.57,0,6.48,4.17,6.48,9.3,0,.39,.33,.7,.73,.66,.34-.03,.6-.35,.6-.69,0-3.64-1.37-6.86-3.44-8.77-.19-.18-.08-.5,.19-.5h2.59c.81,0,1.37-.2,1.67-.35,.17-.09,.38-.04,.49,.11,.31,.39,.68,.73,1.11,.99,.11,.07,.22,.12,.33,.17,.18,.08,.36,.16,.55,.22,.09,.03,.17,.06,.26,.08,.29,.07,.59,.12,.91,.12,.31,0,.61-.04,.91-.12,.09-.02,.18-.05,.27-.08,.38-.12,.75-.29,1.09-.52,.07-.05,.17-.13,.24-.19,.08-.06,.16-.12,.23-.19,.01,0,.02-.02,.03-.03,.3-.29,.79-.26,1.09,.03,.72,.69,1.68,1.09,2.7,1.09h.17c.47,0,.94-.09,1.37-.26,.52-.2,1.08,.17,1.08,.71Z"/><path class="cls-1" d="M32.88,28.6v-1.69c0-1.42-1.07-2.65-2.48-2.74-1.55-.1-2.83,1.13-2.83,2.65v1.78c0,.48,.39,.87,.87,.87h3.57c.48,0,.87-.39,.87-.87Z"/><path class="cls-1" d="M25.99,13.29l-.05,15.36c0,.46-.41,.83-.92,.83h-4c-.51,0-.92-.37-.92-.84l.04-15.38s.02-2.66,2.94-2.64c2.89,.02,2.91,2.62,2.91,2.67Z"/></g></g></g></svg>