<?xml version="1.0" encoding="UTF-8"?><svg id="Layer_2" xmlns="http://www.w3.org/2000/svg" viewBox="0 0 64 64"><defs><style>.cls-1,.cls-2{fill:#04a37b;}.cls-3{fill:none;}.cls-2{fill-rule:evenodd;}</style></defs><g id="Layer_1-2"><g><rect class="cls-3" width="64" height="64"/><g><path class="cls-1" d="M45,32.05c-3.82,1.82-5.24,7.58-9.05,9.4-2.07,.99-4.7,1.18-6.67,1.15-.57,0-.69-.82-.14-.99,1.85-.56,4.25-1.36,5.87-2.13,2.97-1.41,3.33-2.83,2.68-4.2-.93-1.95-3.39-1.95-5.22-1.63-5.18,.9-12.08,1.77-17.42,3.45-.96,.3-1.5,1.32-1.2,2.28,.96,3.13,2.97,9.76,3.84,12.6,.24,.8,1,1.33,1.83,1.3,3.08-.14,6.16-.54,9.19-1.04,2.87-.47,5.8-.94,8.48-2.13s4.68-3.24,6.56-5.45c1.89-2.22,3.59-4.63,4.99-7.18,.58-1.06,1.28-2.3,1.48-3.5,.2-1.21-.8-2.11-1.89-2.39s-2.31-.01-3.31,.47Z"/><path class="cls-2" d="M36.93,20.92c0,3.77-3.06,6.83-6.83,6.83-1.79,0-3.43-.69-4.64-1.82-.18-.16-.11-.46,.12-.53,2.8-.93,4.81-3.57,4.81-6.66,0-2.13-1.01-4.12-2.35-5.8-.18-.23-.16-.55,.05-.75,.65-.63,1.17-1.06,1.38-1.24,.38-.31,.91-.31,1.28,0,.41,.34,1.93,1.63,3.36,3.4,1.4,1.74,2.83,4.1,2.83,6.58Z"/><path class="cls-2" d="M27.64,18.74c0,2.29-1.79,4.15-4.05,4.27-.08,0-.15,0-.23,0-2.36,0-4.28-1.92-4.28-4.28,0-1.55,.9-3.03,1.77-4.12,.89-1.11,1.84-1.92,2.1-2.13,.12-.1,.26-.14,.4-.14s.28,.05,.4,.14c.26,.21,1.21,1.02,2.1,2.13,0,0,0,0,0,0,.87,1.09,1.77,2.57,1.77,4.11Z"/></g></g></g></svg>