<?xml version="1.0" encoding="UTF-8"?><svg id="Layer_2" xmlns="http://www.w3.org/2000/svg" viewBox="0 0 64 64"><defs><style>.cls-1{fill:#04a37b;}.cls-2{fill:none;}</style></defs><g id="Layer_1-2"><g><rect class="cls-2" width="64" height="64"/><g><path class="cls-1" d="M18.59,32.5c3.94-1.88,5.4-7.82,9.34-9.7,2.14-1.02,4.85-1.22,6.87-1.19,.59,0,.71,.84,.14,1.02-1.91,.58-4.38,1.4-6.05,2.2-3.06,1.46-3.44,2.92-2.76,4.33,.96,2.01,3.5,2.01,5.38,1.68,5.35-.93,12.46-1.83,17.97-3.55,.99-.31,1.55-1.36,1.24-2.35-.99-3.23-3.07-10.06-3.96-13-.25-.82-1.03-1.37-1.89-1.34-3.18,.14-6.35,.55-9.48,1.07-2.96,.49-5.99,.97-8.75,2.2s-4.82,3.34-6.76,5.62c-1.95,2.29-3.7,4.77-5.14,7.41-.6,1.1-1.32,2.37-1.52,3.61-.2,1.25,.82,2.18,1.95,2.46s2.38,.01,3.42-.48Z"/><g><path class="cls-1" d="M28.73,52.64c.3,.25,.13,.74-.26,.75-1.82,.02-3.65-.69-5-2.12-2.57-2.72-2.45-7.01,.27-9.57,1.03-.97,2.29-1.56,3.59-1.77,.39-.06,.65,.4,.39,.69-3.07,3.52-2.67,9.01,1.01,12.02Z"/><path class="cls-1" d="M34.57,51.54c-.4,.38-.83,.7-1.29,.96-.96-.35-1.85-.92-2.59-1.71-2.57-2.72-2.45-7.01,.27-9.57,.4-.38,.83-.7,1.29-.96,.96,.35,1.85,.92,2.59,1.71,2.57,2.72,2.45,7.01-.27,9.57Z"/><path class="cls-1" d="M40.26,51.06c-1.31,1.24-2.98,1.85-4.65,1.85-.79,0-1.58-.14-2.33-.41-.96-.35-1.85-.92-2.59-1.71-2.57-2.72-2.45-7.01,.27-9.57,.4-.38,.83-.7,1.29-.96,1.04-.59,2.2-.89,3.36-.89,1.8,0,3.59,.71,4.93,2.12,2.57,2.72,2.45,7.01-.27,9.57Z"/></g></g></g></g></svg>