<?xml version="1.0" encoding="UTF-8"?><svg id="Layer_2" xmlns="http://www.w3.org/2000/svg" viewBox="0 0 1024 1024"><defs><style>.cls-1{fill:#04a37b;}.cls-2{fill:none;}</style></defs><g id="Layer_1-2"><g><rect class="cls-2" width="1024" height="1024"/><g><path class="cls-1" d="M844.95,376.57l-65.87,20.58-37.89,11.85-114.44,35.75-38.14,11.92-59.43,18.57h-.12c-11.09,3.46-23.02,3.46-34.12,0l-60.45-18.89-38.14-11.91-114.44-35.75-37.9-11.83-64.96-20.29c-5.27-1.65-10.63,2.29-10.63,7.81v38.21c0,3.58,2.31,6.73,5.73,7.8l57.14,18c1.04,.32,2.03,.73,2.96,1.19l4.41,1.37c3.03,.94,5.09,3.75,5.09,6.92v24.63c.02,4.89-4.71,8.38-9.38,6.93l-57.75-17.87h-.02c-4.33-.1-8.17,3.39-8.17,8.02v239.36c0,16.7,10.86,31.49,26.72,36.39l305.41,95.44c7.4,2.27,15.39,2.27,22.79,0l305.41-95.44c15.99-4.89,26.84-19.68,26.84-36.39v-239.37c0-5.07-4.62-8.78-9.46-7.89-.32,.05-.63,.13-.95,.23l-27.44,8.55-13.8,4.31c-.35,.11-.68,.2-1.03,.29l-14.38,4.45c-4.68,1.45-9.43-2.05-9.43-6.96v-24.57c0-3.19,2.07-6,5.12-6.95l7.48-2.33c.3-.11,.6-.21,.91-.31l57.25-17.88c3.41-1.07,5.74-4.24,5.74-7.81v-38.32c0-5.52-5.36-9.46-10.63-7.81Zm-470.53,156.22h-.01c-.5-.12-1.01-.25-1.52-.41l-20.59-6.43-.7-.23-66.54-20.59c-1.88-.58-3.15-2.31-3.15-4.28v-30.3c0-3.02,2.93-5.17,5.81-4.27l16.29,5.08h.01c1.28,.12,2.58,.38,3.85,.78l76.35,23.86c1.24,.38,2.4,.88,3.5,1.48h.01s5.42,1.7,5.42,1.7c1.9,.59,3.19,2.35,3.19,4.34v29.9c0,3.06-2.96,5.24-5.89,4.34l-16.04-4.97Zm211.24,19.5l-5.79,1.79c-1.41,.91-2.96,1.65-4.64,2.16l-45.93,14.32c-11.09,3.46-23.02,3.46-34.12,0l-45.93-14.32c-1.05-.33-2.06-.74-3.01-1.23h-.04s-8.32-2.59-8.32-2.59c-2.02-.62-3.39-2.49-3.39-4.6v-29.2c0-3.25,3.15-5.56,6.25-4.6l16.32,5.09c1.17,.13,2.35,.37,3.52,.74h.12l45.93,14.32c3.2,1.03,6.56,1.17,9.81,.42l66.74-20.82c2.7-.84,5.44,1.17,5.44,4v30.51c0,1.84-1.2,3.46-2.95,4Zm152.44-47.18l-7.67,2.37c-.83,.41-1.72,.75-2.62,1.04l-76.35,23.86c-1.34,.42-2.68,.68-4.02,.79l-11.53,3.57c-4.55,1.41-9.15-1.99-9.15-6.75v-15.06c-.01-.49-.01-.98,0-1.47v-8.1c0-3.09,2.01-5.82,4.96-6.74l8.37-2.61h.05s76.35-23.87,76.35-23.87c.35-.11,.68-.2,1.03-.29l18-5.62c2.83-.88,5.7,1.23,5.7,4.19v30.5c0,1.92-1.25,3.62-3.09,4.19Z"/><path class="cls-1" d="M828.86,263.39l-305.41-90.26c-7.4-2.14-15.39-2.14-22.79,0l-305.41,90.26c-15.99,4.63-26.84,18.62-26.84,34.41v16.45c0,15.13,9.96,28.46,24.47,32.75l203.46,60.11,38.14,11.26,71.9,21.24c3.7,1.13,7.64,1.13,11.33,0l70.89-20.95,38.14-11.27,204.36-60.4c14.51-4.29,24.47-17.62,24.47-32.75v-16.45c0-15.8-10.86-29.79-26.72-34.41Zm-61.95,48.49l-238.62,70.47c-10.61,3.14-21.96,3.14-32.57,0l-238.62-70.47c-5.24-1.55-5.24-8.55,0-10.1l238.62-70.48c10.61-3.13,21.96-3.13,32.57,0l238.62,70.48c5.24,1.55,5.24,8.55,0,10.1Z"/></g></g></g></svg>