<?xml version="1.0" encoding="UTF-8"?><svg id="Layer_2" xmlns="http://www.w3.org/2000/svg" viewBox="0 0 1024 1024"><defs><style>.cls-1{fill:#04a37b;}.cls-2{fill:none;}</style></defs><g id="Layer_1-2"><g><rect class="cls-2" width="1024" height="1024"/><path class="cls-1" d="M596.91,401.96c-3.7-3.68-7.39-11.06-7.39-16.6v-36.92h-36.91c-5.54,0-11.07-1.84-16.61-7.39l-25.85-25.83-25.83,25.83c-3.71,3.7-11.07,7.39-16.62,7.39h-36.91v36.92c0,5.54-1.84,11.08-7.39,16.6l-25.83,25.85,25.83,25.84c3.69,3.7,7.39,11.06,7.39,16.61l-1.84,36.91h36.91c5.53,0,11.07,1.84,16.61,7.39l25.84,25.83,25.85-25.83c3.68-3.71,11.06-7.39,16.6-7.39h36.91v-36.91c0-5.55,1.85-11.07,7.38-16.61l25.85-25.84-23.99-25.85Zm-52.8,74.96c-9.31,6.05-20.43,9.54-32.35,9.54-32.9,0-59.57-26.67-59.57-59.58s26.67-59.57,59.57-59.57c11.92,0,23.04,3.49,32.35,9.54,1.54,.98,2.14,2.89,1.44,4.52-.69,1.62-2.42,2.6-4.19,2.23-2.88-.56-5.81-.89-8.84-.89-24.39,0-44.17,19.79-44.17,44.17s19.78,44.17,44.17,44.17c3.03,0,6.01-.32,8.84-.88,1.77-.37,3.54,.6,4.19,2.23,.65,1.63,.05,3.54-1.44,4.52Zm13.08-53.43l-8.19,7.02,2.51,10.52c.61,2.56-2.19,4.61-4.47,3.21l-9.21-5.63-9.22,5.63c-2.28,1.4-5.07-.65-4.47-3.21l2.52-10.52-8.19-7.02c-2.01-1.73-.94-4.98,1.72-5.22l10.75-.88,4.14-9.96c1.03-2.47,4.47-2.47,5.49,0l4.15,9.96,10.75,.88c2.65,.19,3.72,3.49,1.72,5.22Zm39.72-21.53c-3.7-3.68-7.39-11.06-7.39-16.6v-36.92h-36.91c-5.54,0-11.07-1.84-16.61-7.39l-25.85-25.83-25.83,25.83c-3.71,3.7-11.07,7.39-16.62,7.39h-36.91v36.92c0,5.54-1.84,11.08-7.39,16.6l-25.83,25.85,25.83,25.84c3.69,3.7,7.39,11.06,7.39,16.61l-1.84,36.91h36.91c5.53,0,11.07,1.84,16.61,7.39l25.84,25.83,25.85-25.83c3.68-3.71,11.06-7.39,16.6-7.39h36.91v-36.91c0-5.55,1.85-11.07,7.38-16.61l25.85-25.84-23.99-25.85Zm-52.8,74.96c-9.31,6.05-20.43,9.54-32.35,9.54-32.9,0-59.57-26.67-59.57-59.58s26.67-59.57,59.57-59.57c11.92,0,23.04,3.49,32.35,9.54,1.54,.98,2.14,2.89,1.44,4.52-.69,1.62-2.42,2.6-4.19,2.23-2.88-.56-5.81-.89-8.84-.89-24.39,0-44.17,19.79-44.17,44.17s19.78,44.17,44.17,44.17c3.03,0,6.01-.32,8.84-.88,1.77-.37,3.54,.6,4.19,2.23,.65,1.63,.05,3.54-1.44,4.52Zm13.08-53.43l-8.19,7.02,2.51,10.52c.61,2.56-2.19,4.61-4.47,3.21l-9.21-5.63-9.22,5.63c-2.28,1.4-5.07-.65-4.47-3.21l2.52-10.52-8.19-7.02c-2.01-1.73-.94-4.98,1.72-5.22l10.75-.88,4.14-9.96c1.03-2.47,4.47-2.47,5.49,0l4.15,9.96,10.75,.88c2.65,.19,3.72,3.49,1.72,5.22Zm125.05-251.97H256.64c-23.54,0-42.56,19.02-42.56,42.56v425.6c0,23.55,19.02,42.56,42.56,42.56v85.12c-23.54,0-42.56,19.02-42.56,42.56s19.02,42.56,42.56,42.56h425.6c70.49,0,127.68-57.19,127.68-127.68V299.2c0-70.49-57.19-127.68-127.68-127.68Zm-334.51,239.67l36.91-36.9v-51.69c0-12.92,11.07-23.99,24-23.99h51.68l35.06-35.07c3.7-3.69,11.08-7.39,16.63-7.39s11.06,1.84,16.61,7.39l35.05,35.07h51.69c12.92,0,23.99,11.07,23.99,23.99v51.69l36.92,36.9c3.7,3.7,7.38,11.08,7.38,16.62s-1.84,11.07-7.38,16.61l-36.92,35.06v51.68c0,12.93-11.07,24-23.99,24h-51.69l-35.05,35.07c-7.39,3.68-12.93,7.39-18.47,7.39s-11.07-1.85-16.61-7.39l-35.06-35.07h-51.68c-12.93,0-24-11.07-24-24v-51.68l-35.07-35.06c-3.68-3.7-7.38-11.08-7.38-16.61s1.84-11.08,7.38-16.62Zm334.51,356.17H341.76v-85.12h340.48c23.55,0,42.56,19.02,42.56,42.56s-19.01,42.56-42.56,42.56Zm-251.45-297.1l-1.84,36.91h36.91c5.53,0,11.07,1.84,16.61,7.39l25.84,25.83,25.85-25.83c3.68-3.71,11.06-7.39,16.6-7.39h36.91v-36.91c0-5.55,1.85-11.07,7.38-16.61l25.85-25.84-23.99-25.85c-3.7-3.68-7.39-11.06-7.39-16.6v-36.92h-36.91c-5.54,0-11.07-1.84-16.61-7.39l-25.85-25.83-25.83,25.83c-3.71,3.7-11.07,7.39-16.62,7.39h-36.91v36.92c0,5.54-1.84,11.08-7.39,16.6l-25.83,25.85,25.83,25.84c3.69,3.7,7.39,11.06,7.39,16.61Zm124.68-51.99c2.65,.19,3.72,3.49,1.72,5.22l-8.19,7.02,2.51,10.52c.61,2.56-2.19,4.61-4.47,3.21l-9.21-5.63-9.22,5.63c-2.28,1.4-5.07-.65-4.47-3.21l2.52-10.52-8.19-7.02c-2.01-1.73-.94-4.98,1.72-5.22l10.75-.88,4.14-9.96c1.03-2.47,4.47-2.47,5.49,0l4.15,9.96,10.75,.88Zm-43.71-50.96c11.92,0,23.04,3.49,32.35,9.54,1.54,.98,2.14,2.89,1.44,4.52-.69,1.62-2.42,2.6-4.19,2.23-2.88-.56-5.81-.89-8.84-.89-24.39,0-44.17,19.79-44.17,44.17s19.78,44.17,44.17,44.17c3.03,0,6.01-.32,8.84-.88,1.77-.37,3.54,.6,4.19,2.23,.65,1.63,.05,3.54-1.44,4.52-9.31,6.05-20.43,9.54-32.35,9.54-32.9,0-59.57-26.67-59.57-59.58s26.67-59.57,59.57-59.57Zm85.15,34.65c-3.7-3.68-7.39-11.06-7.39-16.6v-36.92h-36.91c-5.54,0-11.07-1.84-16.61-7.39l-25.85-25.83-25.83,25.83c-3.71,3.7-11.07,7.39-16.62,7.39h-36.91v36.92c0,5.54-1.84,11.08-7.39,16.6l-25.83,25.85,25.83,25.84c3.69,3.7,7.39,11.06,7.39,16.61l-1.84,36.91h36.91c5.53,0,11.07,1.84,16.61,7.39l25.84,25.83,25.85-25.83c3.68-3.71,11.06-7.39,16.6-7.39h36.91v-36.91c0-5.55,1.85-11.07,7.38-16.61l25.85-25.84-23.99-25.85Zm-52.8,74.96c-9.31,6.05-20.43,9.54-32.35,9.54-32.9,0-59.57-26.67-59.57-59.58s26.67-59.57,59.57-59.57c11.92,0,23.04,3.49,32.35,9.54,1.54,.98,2.14,2.89,1.44,4.52-.69,1.62-2.42,2.6-4.19,2.23-2.88-.56-5.81-.89-8.84-.89-24.39,0-44.17,19.79-44.17,44.17s19.78,44.17,44.17,44.17c3.03,0,6.01-.32,8.84-.88,1.77-.37,3.54,.6,4.19,2.23,.65,1.63,.05,3.54-1.44,4.52Zm13.08-53.43l-8.19,7.02,2.51,10.52c.61,2.56-2.19,4.61-4.47,3.21l-9.21-5.63-9.22,5.63c-2.28,1.4-5.07-.65-4.47-3.21l2.52-10.52-8.19-7.02c-2.01-1.73-.94-4.98,1.72-5.22l10.75-.88,4.14-9.96c1.03-2.47,4.47-2.47,5.49,0l4.15,9.96,10.75,.88c2.65,.19,3.72,3.49,1.72,5.22Zm39.72-21.53c-3.7-3.68-7.39-11.06-7.39-16.6v-36.92h-36.91c-5.54,0-11.07-1.84-16.61-7.39l-25.85-25.83-25.83,25.83c-3.71,3.7-11.07,7.39-16.62,7.39h-36.91v36.92c0,5.54-1.84,11.08-7.39,16.6l-25.83,25.85,25.83,25.84c3.69,3.7,7.39,11.06,7.39,16.61l-1.84,36.91h36.91c5.53,0,11.07,1.84,16.61,7.39l25.84,25.83,25.85-25.83c3.68-3.71,11.06-7.39,16.6-7.39h36.91v-36.91c0-5.55,1.85-11.07,7.38-16.61l25.85-25.84-23.99-25.85Zm-52.8,74.96c-9.31,6.05-20.43,9.54-32.35,9.54-32.9,0-59.57-26.67-59.57-59.58s26.67-59.57,59.57-59.57c11.92,0,23.04,3.49,32.35,9.54,1.54,.98,2.14,2.89,1.44,4.52-.69,1.62-2.42,2.6-4.19,2.23-2.88-.56-5.81-.89-8.84-.89-24.39,0-44.17,19.79-44.17,44.17s19.78,44.17,44.17,44.17c3.03,0,6.01-.32,8.84-.88,1.77-.37,3.54,.6,4.19,2.23,.65,1.63,.05,3.54-1.44,4.52Zm13.08-53.43l-8.19,7.02,2.51,10.52c.61,2.56-2.19,4.61-4.47,3.21l-9.21-5.63-9.22,5.63c-2.28,1.4-5.07-.65-4.47-3.21l2.52-10.52-8.19-7.02c-2.01-1.73-.94-4.98,1.72-5.22l10.75-.88,4.14-9.96c1.03-2.47,4.47-2.47,5.49,0l4.15,9.96,10.75,.88c2.65,.19,3.72,3.49,1.72,5.22Z"/></g></g></svg>