<?xml version="1.0" encoding="UTF-8"?><svg id="Layer_2" xmlns="http://www.w3.org/2000/svg" viewBox="0 0 1024 1024"><defs><style>.cls-1{fill:#04a37b;}.cls-2{fill:none;}</style></defs><g id="Layer_1-2"><g><rect class="cls-2" width="1024" height="1024"/><g><path class="cls-1" d="M453.53,382.6c42.02,0,94.14-29.37,94.14-85.27,0-52.17-43.56-105.4-89.43-125.04-18.22-7.8-38.95,3.68-42,23.27-2.69,17.32-8.75,24.81-22.18,37.26-65.46,60.68-7.79,149.78,59.46,149.78Z"/><path class="cls-1" d="M724.76,601.59c-50.27,0-91.18,40.9-91.18,91.19,0,10.66,1.84,20.88,5.21,30.39,0,0,0,0,0,0h-30.65c.22-2.06,.32-4.12,.32-6.23v-243.16c0-33.57-27.22-60.79-60.79-60.79h-80.12c-5.46,0-9.87,4.44-9.82,9.89,.09,10.02,0,32.58,0,87.52,0,16.59-13.29,30.08-29.81,30.39-17.04,.32-30.98-14.04-30.98-31.08,0-54.46-.09-76.86,0-86.82,.05-5.46-4.36-9.9-9.82-9.9h-21.83c-33.57,0-60.79,27.22-60.79,60.79v243.16c0,2.11,.1,4.17,.32,6.23h0s-66.38,0-66.38,0c-16.79,0-30.39,13.61-30.39,30.39,0,15,10.87,27.46,25.17,29.94,14.05,41.31,49.09,70.61,90.15,70.68h266.23c40.9-.07,75.84-29.15,89.99-70.22h45.19c.53,0,1.05-.01,1.58-.04,49.55-.85,89.6-41.39,89.6-91.14s-40.9-91.19-91.19-91.19Zm0,121.58c-16.75,0-30.4-13.63-30.4-30.39s13.65-30.4,30.4-30.4,30.4,13.63,30.4,30.4-13.63,30.39-30.4,30.39Z"/></g></g></g></svg>