<?xml version="1.0" encoding="UTF-8"?><svg id="Layer_2" xmlns="http://www.w3.org/2000/svg" viewBox="0 0 1024 1024"><defs><style>.cls-1{fill:#04a37b;}.cls-2{fill:none;}</style></defs><g id="Layer_1-2"><g><rect class="cls-2" width="1024" height="1024"/><g><path class="cls-1" d="M738.56,469.81v88.55c0,4.21-.63,8.28-1.84,12.09-5.15,16.62-20.56,28.66-38.88,28.66h-3.58c-22.48,0-40.71-18.23-40.71-40.71v-88.59c0-22.48,18.23-40.76,40.71-40.76h3.58c18.27,0,33.73,12.05,38.88,28.62,1.21,3.85,1.84,7.93,1.84,12.14Z"/><path class="cls-1" d="M589.78,386.57c-23.48,0-42.51,19.03-42.51,42.51v47.42c0,6.63,2.12,13.16,6.38,18.24,9.23,11.01,14.87,25.1,14.87,40.62,0,12.58-3.77,24.21-10.11,34.04-3.6,5.57-2.82,13.08,1.93,17.7,7.77,7.57,18.28,11.99,29.44,12.03,23.48,0,42.51-19.03,42.51-42.51v-127.53c0-23.48-19.03-42.51-42.51-42.51h0Z"/><path class="cls-1" d="M736.72,627.56v80.72c0,80.58-65.33,145.91-145.91,145.91h-159.47c-80.58,0-145.91-65.33-145.91-145.91v-127.28c0-19.67,2.9-39.24,8.6-58.06h0c.27-.72,.63-1.3,.85-1.97,.99-2.69,2.19-5.24,3.67-7.7,1.43-2.33,3.09-4.57,4.97-6.58,1.84-1.97,3.85-3.76,6-5.38,2.19-1.61,4.52-3,6.94-4.16,5.06-2.47,10.62-3.85,16.26-4.08,.67-.04,1.3-.22,2.02-.22h170.02c24.43,0,44.06,20.64,42.41,45.39-1.51,22.58-21.29,39.62-43.91,39.62h-115.39c-6.23,0-11.24,5.38-10.57,11.73,.54,5.55,5.6,9.54,11.15,9.54h2.06c57.15,0,103.64,66.78,103.64,148.78,0,6.23,5.33,11.2,11.65,10.57,5.51-.54,9.58-5.55,9.58-11.11-.13-58.32-21.95-109.82-55.04-140.32-3.09-2.83-1.21-7.93,3-7.93h41.43c13.03,0,21.86-3.18,26.69-5.64,2.69-1.39,6-.63,7.84,1.79,4.93,6.27,10.93,11.6,17.78,15.77,1.73,1.04,3.5,1.86,5.32,2.72,2.84,1.35,5.77,2.51,8.75,3.5,1.38,.46,2.73,.91,4.16,1.21,4.7,1.16,9.45,1.92,14.51,1.92,4.93-.04,9.81-.67,14.6-1.88,1.43-.31,2.82-.85,4.25-1.3,6.16-1.89,12.02-4.7,17.36-8.37,1.1-.76,2.78-2.15,3.82-3,1.24-1.01,2.49-1.96,3.64-3.01,.18-.15,.34-.3,.49-.45,4.78-4.7,12.68-4.14,17.51,.52,11.48,11.07,26.95,17.49,43.27,17.49h2.64c7.57-.04,15.05-1.48,21.99-4.12,8.38-3.22,17.33,2.64,17.33,11.29Z"/><path class="cls-1" d="M526.01,457.62v-27.08c0-22.64-17.09-42.41-39.68-43.87-24.76-1.6-45.34,18-45.34,42.42v28.54c0,7.72,6.25,13.97,13.97,13.97h57.08c7.72,0,13.97-6.25,13.97-13.97Z"/><path class="cls-1" d="M415.76,212.59l-.75,245.69c-.02,7.36-6.6,13.32-14.71,13.32h-64.04c-8.14,0-14.73-6-14.71-13.39l.61-246.11s.25-42.5,47.05-42.28c46.31,.27,46.55,41.88,46.55,42.77Z"/></g></g></g></svg>