<?xml version="1.0" encoding="UTF-8"?><svg id="Layer_2" xmlns="http://www.w3.org/2000/svg" viewBox="0 0 1024 1024"><defs><style>.cls-1{fill:#04a37b;}.cls-2{fill:none;}</style></defs><g id="Layer_1-2"><g><rect class="cls-2" width="1024" height="1024"/><g><path class="cls-1" d="M297.47,520.06c62.96-30,86.42-125.13,149.38-155.13,34.22-16.31,77.55-19.49,109.98-18.99,9.48,.15,11.35,13.52,2.28,16.28-30.48,9.3-70.08,22.43-96.79,35.16-48.98,23.34-54.99,46.72-44.21,69.35,15.31,32.13,55.93,32.18,86.11,26.91,85.52-14.93,199.35-29.21,287.47-56.86,15.84-4.97,24.73-21.76,19.87-37.64-15.81-51.63-49.06-161.02-63.31-207.93-4-13.18-16.42-21.99-30.18-21.37-50.81,2.29-101.65,8.84-151.71,17.09-47.4,7.81-95.78,15.47-139.98,35.18-44.27,19.74-77.19,53.46-108.18,89.87-31.13,36.59-59.25,76.37-82.29,118.56-9.59,17.56-21.15,37.89-24.37,57.81-3.23,19.92,13.18,34.88,31.26,39.41,18.19,4.56,38.04,.22,54.67-7.7Z"/><g><path class="cls-1" d="M459.68,842.23c4.87,3.99,2.06,11.89-4.24,11.95-29.16,.31-58.35-11.09-79.95-33.96-41.09-43.52-39.12-112.1,4.39-153.2,16.51-15.58,36.62-24.97,57.47-28.25,6.25-.98,10.34,6.33,6.18,11.09-49.16,56.26-42.66,144.22,16.15,192.36Z"/><path class="cls-1" d="M553.09,824.61c-6.4,6.05-13.35,11.15-20.67,15.33-15.3-5.59-29.56-14.73-41.51-27.37-41.09-43.52-39.12-112.11,4.39-153.2,6.41-6.05,13.35-11.16,20.67-15.33,15.3,5.59,29.56,14.73,41.51,27.38,41.09,43.51,39.12,112.1-4.39,153.19Z"/><path class="cls-1" d="M644.1,816.97c-20.94,19.77-47.68,29.57-74.38,29.57-12.65,0-25.29-2.2-37.3-6.6-15.3-5.59-29.56-14.73-41.51-27.37-41.09-43.52-39.12-112.11,4.39-153.2,6.41-6.05,13.35-11.16,20.67-15.33,16.62-9.51,35.18-14.24,53.71-14.24,28.78,0,57.5,11.39,78.82,33.97,41.09,43.52,39.12,112.1-4.4,153.2Z"/></g></g></g></g></svg>