<?xml version="1.0" encoding="UTF-8"?><svg id="Layer_2" xmlns="http://www.w3.org/2000/svg" viewBox="0 0 512 512"><defs><style>.cls-1{fill:#04a37b;}.cls-2{fill:none;}</style></defs><g id="Layer_1-2"><g><rect class="cls-2" width="512" height="512"/><g><path class="cls-1" d="M223.1,332.09c-5.04,21.72-26.72,35.24-48.44,30.2l-42.98-9.97c-49.14-10.86-40.27-69.8-40.16-70.52h0c-1.31-11.74-3.16-28.04-5.68-49.25-.8-6.71,4.23-12.78,11.08-13.13,6.14-.32,11.27,4.46,12.14,9.78,.56,3.47,.94,8.2,1.16,9.68h0c.13,1.39-3.3,34.03,25.33,41.86,18.88,4.38,24.11,27.81,19.69,46.86-.39,1.68,.73,3.35,2.48,3.58,1.52,.2,2.93-.9,3.28-2.39,3.61-15.72,.95-30.97-6.06-41.26-.09-.14-.15-.28-.19-.42-.79-1.56-4.44-7.18-17.51-11.98-.04,0-.2-.09-.5-.16-11.95-4.45-16.72-13.19-18.77-21-1.74-6.63-1.76-13.59-.21-20.26l14.66-63.19c1.48-6.39,7.92-10.35,14.31-8.76,6.26,1.56,10.02,7.97,8.56,14.26l-16.27,70.15c-.63,2.7,1.02,5.54,4.01,6.16,2.71,.56,5.37-1.22,5.99-3.92l21.03-90.65c1.48-6.39,7.92-10.35,14.31-8.75,6.26,1.56,10.02,7.97,8.56,14.25l-21.01,90.59c-.64,2.74,1.07,5.48,3.81,6.11,2.76,.67,5.53-1.03,6.18-3.79l17.63-76.03c1.48-6.39,7.92-10.35,14.31-8.75,6.26,1.56,10.02,7.97,8.56,14.25l-17.59,75.82c-.64,2.74,1.07,5.48,3.81,6.11l.07,.02c2.74,.63,5.47-1.07,6.1-3.81l10.52-45.37c1.46-6.28,7.66-10.39,13.96-9.03,6.44,1.38,10.48,7.76,9,14.16l-25.16,108.55Z"/><path class="cls-1" d="M288.9,332.09c5.04,21.72,26.72,35.24,48.44,30.2l42.98-9.97c49.14-10.86,40.27-69.8,40.16-70.52h0c1.31-11.74,3.16-28.04,5.68-49.25,.8-6.71-4.23-12.78-11.08-13.13-6.14-.32-11.27,4.46-12.14,9.78-.56,3.47-.94,8.2-1.16,9.68h0c-.13,1.39,3.3,34.03-25.33,41.86-18.88,4.38-24.11,27.81-19.69,46.86,.39,1.68-.73,3.35-2.48,3.58-1.52,.2-2.93-.9-3.28-2.39-3.61-15.72-.95-30.97,6.06-41.26,.09-.14,.15-.28,.19-.42,.79-1.56,4.44-7.18,17.51-11.98,.04,0,.2-.09,.5-.16,11.95-4.45,16.72-13.19,18.77-21,1.74-6.63,1.76-13.59,.21-20.26l-14.66-63.19c-1.48-6.39-7.92-10.35-14.31-8.76-6.26,1.56-10.02,7.97-8.56,14.26l16.27,70.15c.63,2.7-1.02,5.54-4.01,6.16-2.71,.56-5.37-1.22-5.99-3.92l-21.03-90.65c-1.48-6.39-7.92-10.35-14.31-8.75-6.26,1.56-10.02,7.97-8.56,14.25l21.01,90.59c.64,2.74-1.07,5.48-3.81,6.11-2.76,.67-5.53-1.03-6.18-3.79l-17.63-76.03c-1.48-6.39-7.92-10.35-14.31-8.75-6.26,1.56-10.02,7.97-8.56,14.25l17.59,75.82c.64,2.74-1.07,5.48-3.81,6.11l-.07,.02c-2.74,.63-5.47-1.07-6.1-3.81l-10.52-45.37c-1.46-6.28-7.66-10.39-13.96-9.03-6.44,1.38-10.48,7.76-9,14.16l25.16,108.55Z"/></g></g></g></svg>