<?xml version="1.0" encoding="UTF-8"?><svg id="Layer_2" xmlns="http://www.w3.org/2000/svg" viewBox="0 0 512 512"><defs><style>.cls-1{fill:#04a37b;}.cls-2{fill:none;}</style></defs><g id="Layer_1-2"><g><rect class="cls-2" width="512" height="512"/><g><path class="cls-1" d="M422.48,188.28l-32.93,10.29-18.94,5.92-57.22,17.88-19.07,5.96-29.72,9.29h-.06c-5.55,1.73-11.51,1.73-17.06,0l-30.22-9.44-19.07-5.95-57.22-17.88-18.95-5.92-32.48-10.15c-2.64-.82-5.31,1.15-5.31,3.91v19.11c0,1.79,1.16,3.36,2.86,3.9l28.57,9c.52,.16,1.01,.36,1.48,.6l2.2,.69c1.51,.47,2.55,1.87,2.55,3.46v12.32c0,2.44-2.36,4.19-4.69,3.47l-28.88-8.94h-.01c-2.17-.05-4.09,1.69-4.09,4.01v119.68c0,8.35,5.43,15.75,13.36,18.19l152.7,47.72c3.7,1.13,7.69,1.13,11.39,0l152.7-47.72c7.99-2.45,13.42-9.84,13.42-18.19v-119.69c0-2.54-2.31-4.39-4.73-3.94-.16,.02-.32,.07-.48,.11l-13.72,4.28-6.9,2.15c-.17,.05-.34,.1-.51,.14l-7.19,2.22c-2.34,.72-4.72-1.03-4.72-3.48v-12.28c0-1.59,1.04-3,2.56-3.48l3.74-1.17c.15-.05,.3-.11,.45-.16l28.63-8.94c1.71-.54,2.87-2.12,2.87-3.91v-19.16c0-2.76-2.68-4.73-5.31-3.91Zm-235.26,78.11h0c-.25-.06-.51-.13-.76-.2l-10.3-3.21-.35-.11-33.27-10.3c-.94-.29-1.58-1.16-1.58-2.14v-15.15c0-1.51,1.46-2.59,2.91-2.14l8.15,2.54h0c.64,.06,1.29,.19,1.93,.39l38.18,11.93c.62,.19,1.2,.44,1.75,.74h0s2.71,.85,2.71,.85c.95,.3,1.6,1.17,1.6,2.17v14.95c0,1.53-1.48,2.62-2.94,2.17l-8.02-2.48Zm105.62,9.75l-2.9,.9c-.7,.45-1.48,.82-2.32,1.08l-22.97,7.16c-5.55,1.73-11.51,1.73-17.06,0l-22.97-7.16c-.52-.17-1.03-.37-1.5-.61h-.02s-4.16-1.29-4.16-1.29c-1.01-.31-1.7-1.24-1.7-2.3v-14.6c0-1.62,1.57-2.78,3.12-2.3l8.16,2.54c.58,.07,1.18,.18,1.76,.37h.06l22.97,7.16c1.6,.51,3.28,.58,4.9,.21l33.37-10.41c1.35-.42,2.72,.59,2.72,2v15.26c0,.92-.6,1.73-1.48,2Zm76.22-23.59l-3.83,1.19c-.42,.2-.86,.38-1.31,.52l-38.18,11.93c-.67,.21-1.34,.34-2.01,.39l-5.77,1.79c-2.27,.7-4.58-.99-4.58-3.37v-7.53c0-.24,0-.49,0-.73v-4.05c0-1.54,1-2.91,2.48-3.37l4.18-1.31h.02s38.18-11.94,38.18-11.94c.17-.05,.34-.1,.51-.14l9-2.81c1.41-.44,2.85,.61,2.85,2.09v15.25c0,.96-.63,1.81-1.55,2.1Z"/><path class="cls-1" d="M414.43,131.69l-152.7-45.13c-3.7-1.07-7.69-1.07-11.39,0l-152.7,45.13c-7.99,2.31-13.42,9.31-13.42,17.21v8.23c0,7.57,4.98,14.23,12.24,16.37l101.73,30.06,19.07,5.63,35.95,10.62c1.85,.56,3.82,.56,5.67,0l35.44-10.48,19.07-5.64,102.18-30.2c7.26-2.14,12.23-8.81,12.23-16.37v-8.23c0-7.9-5.43-14.89-13.36-17.21Zm-30.98,24.25l-119.31,35.23c-5.3,1.57-10.98,1.57-16.28,0l-119.31-35.23c-2.62-.77-2.62-4.28,0-5.05l119.31-35.24c5.3-1.56,10.98-1.56,16.28,0l119.31,35.24c2.62,.77,2.62,4.28,0,5.05Z"/></g></g></g></svg>