<?xml version="1.0" encoding="UTF-8"?><svg id="Layer_2" xmlns="http://www.w3.org/2000/svg" viewBox="0 0 512 512"><defs><style>.cls-1{fill:#04a37b;}.cls-2{fill:none;}</style></defs><g id="Layer_1-2"><g><rect class="cls-2" width="512" height="512"/><g><path class="cls-1" d="M167.77,303.44h176.5c6.71,0,12.99-3.38,16.62-9.02,5.79-8.99,9.14-19.7,9.14-31.22,0-18.86-9.21-36.68-25.05-47.2-3.02-1.97-5.92-3.95-8.77-5.81-24.15-15.95-44.13-29.14-60.87-46.63-4.18-4.77-10.77-14.08-12.79-27.36v-.11c2.94-.26,5.86-.97,8.61-2.16,6.82-2.94,12.08-8.39,14.83-15.35,1.17-2.97-.28-6.32-3.25-7.5-2.97-1.17-6.33,.29-7.5,3.25-1.61,4.08-4.68,7.27-8.66,8.98-4.18,1.8-8.78,1.79-12.93-.02-4.16-1.82-7.28-5.18-8.8-9.47-2.25-6.35-.28-13.53,4.9-17.86,2.45-2.05,2.77-5.69,.73-8.14-2.05-2.44-5.69-2.77-8.14-.73-8.86,7.41-12.23,19.7-8.38,30.58,2.56,7.23,8.05,13.14,15.07,16.21,.14,.06,.29,.12,.43,.18v2.13s-.5,12.77-10.73,25.16c-1.89,2.05-3.83,4.04-5.8,5.98-.31,.28-.59,.56-.85,.83-15.77,15.26-34.3,27.49-56.28,42.01-2.85,1.92-5.81,3.84-8.77,5.81-15.9,10.53-25.05,28.34-25.05,47.2,0,11.48,3.37,22.19,9.17,31.2,3.63,5.65,9.92,9.04,16.64,9.04Z"/><path class="cls-1" d="M370.03,320.98H141.97c-9.69,0-17.54,7.85-17.54,17.54v70.17c0,9.69,7.85,17.54,17.54,17.54h14.59c6.48,0,11.73-5.25,11.73-11.73v-27.74c0-7.35,5.95-13.24,13.32-13.16,7.24,.09,12.99,6.13,12.99,13.37v27.5c0,6.5,5.27,11.76,11.76,11.76h11.57c6.5,0,11.76-5.27,11.76-11.76v-20.04c0-10.42,4.61-20.28,12.61-26.97l13.71-11.4,13.71,11.4c8,6.69,12.61,16.56,12.61,26.97v20.04c0,6.5,5.27,11.76,11.76,11.76h11.57c6.5,0,11.76-5.27,11.76-11.76v-27.71c0-7.35,5.95-13.24,13.32-13.16,7.24,.09,12.99,6.13,12.99,13.37v27.53c0,6.48,5.25,11.73,11.73,11.73h14.59c9.69,0,17.54-7.85,17.54-17.54v-70.17c0-9.69-7.85-17.54-17.54-17.54Z"/></g></g></g></svg>