<?xml version="1.0" encoding="UTF-8"?><svg id="Layer_2" xmlns="http://www.w3.org/2000/svg" viewBox="0 0 512 512"><defs><style>.cls-1{fill:#04a37b;}.cls-2{fill:none;}</style></defs><g id="Layer_1-2"><g><rect class="cls-2" width="512" height="512"/><path class="cls-1" d="M298.45,200.98c-1.85-1.84-3.69-5.53-3.69-8.3v-18.46h-18.46c-2.77,0-5.54-.92-8.31-3.69l-12.92-12.92-12.92,12.92c-1.85,1.85-5.53,3.69-8.3,3.69h-18.46v18.46c0,2.77-.92,5.54-3.69,8.3l-12.92,12.93,12.92,12.91c1.84,1.86,3.69,5.54,3.69,8.31l-.92,18.46h18.46c2.76,0,5.53,.92,8.3,3.69l12.92,12.92,12.92-12.92c1.84-1.85,5.53-3.69,8.31-3.69h18.45v-18.46c0-2.77,.93-5.53,3.69-8.31l12.92-12.91-11.99-12.93Zm-26.4,37.48c-4.66,3.03-10.22,4.77-16.18,4.77-16.45,0-29.78-13.33-29.78-29.79s13.33-29.78,29.78-29.78c5.96,0,11.52,1.74,16.18,4.77,.77,.49,1.07,1.44,.72,2.25-.35,.82-1.21,1.31-2.09,1.12-1.45-.28-2.91-.44-4.43-.44-12.19,0-22.08,9.89-22.08,22.08s9.89,22.09,22.08,22.09c1.52,0,3.01-.16,4.43-.44,.88-.19,1.76,.3,2.09,1.11,.33,.82,.02,1.77-.72,2.26Zm6.54-26.71l-4.1,3.51,1.26,5.26c.3,1.28-1.1,2.3-2.24,1.6l-4.6-2.81-4.61,2.81c-1.14,.7-2.54-.32-2.23-1.6l1.25-5.26-4.09-3.51c-1-.87-.47-2.49,.86-2.61l5.37-.44,2.07-4.98c.52-1.24,2.24-1.24,2.75,0l2.07,4.98,5.38,.44c1.32,.09,1.86,1.74,.86,2.61Zm19.86-10.77c-1.85-1.84-3.69-5.53-3.69-8.3v-18.46h-18.46c-2.77,0-5.54-.92-8.31-3.69l-12.92-12.92-12.92,12.92c-1.85,1.85-5.53,3.69-8.3,3.69h-18.46v18.46c0,2.77-.92,5.54-3.69,8.3l-12.92,12.93,12.92,12.91c1.84,1.86,3.69,5.54,3.69,8.31l-.92,18.46h18.46c2.76,0,5.53,.92,8.3,3.69l12.92,12.92,12.92-12.92c1.84-1.85,5.53-3.69,8.31-3.69h18.45v-18.46c0-2.77,.93-5.53,3.69-8.31l12.92-12.91-11.99-12.93Zm-26.4,37.48c-4.66,3.03-10.22,4.77-16.18,4.77-16.45,0-29.78-13.33-29.78-29.79s13.33-29.78,29.78-29.78c5.96,0,11.52,1.74,16.18,4.77,.77,.49,1.07,1.44,.72,2.25-.35,.82-1.21,1.31-2.09,1.12-1.45-.28-2.91-.44-4.43-.44-12.19,0-22.08,9.89-22.08,22.08s9.89,22.09,22.08,22.09c1.52,0,3.01-.16,4.43-.44,.88-.19,1.76,.3,2.09,1.11,.33,.82,.02,1.77-.72,2.26Zm6.54-26.71l-4.1,3.51,1.26,5.26c.3,1.28-1.1,2.3-2.24,1.6l-4.6-2.81-4.61,2.81c-1.14,.7-2.54-.32-2.23-1.6l1.25-5.26-4.09-3.51c-1-.87-.47-2.49,.86-2.61l5.37-.44,2.07-4.98c.52-1.24,2.24-1.24,2.75,0l2.07,4.98,5.38,.44c1.32,.09,1.86,1.74,.86,2.61Zm62.53-125.99H128.32c-11.77,0-21.28,9.51-21.28,21.28v212.8c0,11.77,9.51,21.28,21.28,21.28v42.56c-11.77,0-21.28,9.51-21.28,21.28s9.51,21.28,21.28,21.28h212.8c35.24,0,63.84-28.59,63.84-63.84V149.6c0-35.24-28.6-63.84-63.84-63.84Zm-167.26,119.84l18.46-18.45v-25.85c0-6.46,5.53-11.99,11.99-11.99h25.84l17.53-17.54c1.85-1.84,5.55-3.69,8.32-3.69s5.53,.92,8.3,3.69l17.53,17.54h25.84c6.46,0,12,5.53,12,11.99v25.85l18.46,18.45c1.85,1.85,3.69,5.54,3.69,8.31s-.92,5.53-3.69,8.3l-18.46,17.53v25.84c0,6.47-5.54,12-12,12h-25.84l-17.53,17.54c-3.69,1.84-6.46,3.69-9.23,3.69s-5.54-.92-8.31-3.69l-17.53-17.54h-25.84c-6.46,0-11.99-5.53-11.99-12v-25.84l-17.54-17.53c-1.84-1.85-3.69-5.54-3.69-8.3s.92-5.54,3.69-8.31Zm167.26,178.08H170.88v-42.56h170.24c11.77,0,21.28,9.51,21.28,21.28s-9.51,21.28-21.28,21.28Zm-125.73-148.55l-.92,18.46h18.46c2.76,0,5.53,.92,8.3,3.69l12.92,12.92,12.92-12.92c1.84-1.85,5.53-3.69,8.31-3.69h18.45v-18.46c0-2.77,.93-5.53,3.69-8.31l12.92-12.91-11.99-12.93c-1.85-1.84-3.69-5.53-3.69-8.3v-18.46h-18.46c-2.77,0-5.54-.92-8.31-3.69l-12.92-12.92-12.92,12.92c-1.85,1.85-5.53,3.69-8.3,3.69h-18.46v18.46c0,2.77-.92,5.54-3.69,8.3l-12.92,12.93,12.92,12.91c1.84,1.86,3.69,5.54,3.69,8.31Zm62.34-25.99c1.32,.09,1.86,1.74,.86,2.61l-4.1,3.51,1.26,5.26c.3,1.28-1.1,2.3-2.24,1.6l-4.6-2.81-4.61,2.81c-1.14,.7-2.54-.32-2.23-1.6l1.25-5.26-4.09-3.51c-1-.87-.47-2.49,.86-2.61l5.37-.44,2.07-4.98c.52-1.24,2.24-1.24,2.75,0l2.07,4.98,5.38,.44Zm-21.86-25.48c5.96,0,11.52,1.74,16.18,4.77,.77,.49,1.07,1.44,.72,2.25-.35,.82-1.21,1.31-2.09,1.12-1.45-.28-2.91-.44-4.43-.44-12.19,0-22.08,9.89-22.08,22.08s9.89,22.09,22.08,22.09c1.52,0,3.01-.16,4.43-.44,.88-.19,1.76,.3,2.09,1.11,.33,.82,.02,1.77-.72,2.26-4.66,3.03-10.22,4.77-16.18,4.77-16.45,0-29.78-13.33-29.78-29.79s13.33-29.78,29.78-29.78Zm42.58,17.32c-1.85-1.84-3.69-5.53-3.69-8.3v-18.46h-18.46c-2.77,0-5.54-.92-8.31-3.69l-12.92-12.92-12.92,12.92c-1.85,1.85-5.53,3.69-8.3,3.69h-18.46v18.46c0,2.77-.92,5.54-3.69,8.3l-12.92,12.93,12.92,12.91c1.84,1.86,3.69,5.54,3.69,8.31l-.92,18.46h18.46c2.76,0,5.53,.92,8.3,3.69l12.92,12.92,12.92-12.92c1.84-1.85,5.53-3.69,8.31-3.69h18.45v-18.46c0-2.77,.93-5.53,3.69-8.31l12.92-12.91-11.99-12.93Zm-26.4,37.48c-4.66,3.03-10.22,4.77-16.18,4.77-16.45,0-29.78-13.33-29.78-29.79s13.33-29.78,29.78-29.78c5.96,0,11.52,1.74,16.18,4.77,.77,.49,1.07,1.44,.72,2.25-.35,.82-1.21,1.31-2.09,1.12-1.45-.28-2.91-.44-4.43-.44-12.19,0-22.08,9.89-22.08,22.08s9.89,22.09,22.08,22.09c1.52,0,3.01-.16,4.43-.44,.88-.19,1.76,.3,2.09,1.11,.33,.82,.02,1.77-.72,2.26Zm6.54-26.71l-4.1,3.51,1.26,5.26c.3,1.28-1.1,2.3-2.24,1.6l-4.6-2.81-4.61,2.81c-1.14,.7-2.54-.32-2.23-1.6l1.25-5.26-4.09-3.51c-1-.87-.47-2.49,.86-2.61l5.37-.44,2.07-4.98c.52-1.24,2.24-1.24,2.75,0l2.07,4.98,5.38,.44c1.32,.09,1.86,1.74,.86,2.61Zm19.86-10.77c-1.85-1.84-3.69-5.53-3.69-8.3v-18.46h-18.46c-2.77,0-5.54-.92-8.31-3.69l-12.92-12.92-12.92,12.92c-1.85,1.85-5.53,3.69-8.3,3.69h-18.46v18.46c0,2.77-.92,5.54-3.69,8.3l-12.92,12.93,12.92,12.91c1.84,1.86,3.69,5.54,3.69,8.31l-.92,18.46h18.46c2.76,0,5.53,.92,8.3,3.69l12.92,12.92,12.92-12.92c1.84-1.85,5.53-3.69,8.31-3.69h18.45v-18.46c0-2.77,.93-5.53,3.69-8.31l12.92-12.91-11.99-12.93Zm-26.4,37.48c-4.66,3.03-10.22,4.77-16.18,4.77-16.45,0-29.78-13.33-29.78-29.79s13.33-29.78,29.78-29.78c5.96,0,11.52,1.74,16.18,4.77,.77,.49,1.07,1.44,.72,2.25-.35,.82-1.21,1.31-2.09,1.12-1.45-.28-2.91-.44-4.43-.44-12.19,0-22.08,9.89-22.08,22.08s9.89,22.09,22.08,22.09c1.52,0,3.01-.16,4.43-.44,.88-.19,1.76,.3,2.09,1.11,.33,.82,.02,1.77-.72,2.26Zm6.54-26.71l-4.1,3.51,1.26,5.26c.3,1.28-1.1,2.3-2.24,1.6l-4.6-2.81-4.61,2.81c-1.14,.7-2.54-.32-2.23-1.6l1.25-5.26-4.09-3.51c-1-.87-.47-2.49,.86-2.61l5.37-.44,2.07-4.98c.52-1.24,2.24-1.24,2.75,0l2.07,4.98,5.38,.44c1.32,.09,1.86,1.74,.86,2.61Z"/></g></g></svg>