<?xml version="1.0" encoding="UTF-8"?><svg id="Layer_2" xmlns="http://www.w3.org/2000/svg" viewBox="0 0 512 512"><defs><style>.cls-1{fill:#04a37b;}.cls-2{fill:none;}</style></defs><g id="Layer_1-2"><g><rect class="cls-2" width="512" height="512"/><g><path class="cls-1" d="M174.56,305.62c4.43-.05,6.75-5.27,3.82-8.59-18.55-21-63.06-76.67-51.88-115.73,5.26-18.38,20.36-28.54,37.17-34.06,29.82-9.79,62.56-4.26,88.02,14.1l143.21,103.04c4.64,3.35,4.73,10.23,.18,13.7l-35.68,27.17c-4.09,3.12-9.73,3.26-13.97,.35l-36.52-25.89c-2.66-1.82-6.25-1.48-8.51,.82l-9.46,9.6c-2.73,2.77-2.61,7.26,.26,9.88l61.55,56.22c4.04,3.69,1.39,10.41-4.08,10.35l-36.33-.38c-1.6-.02-3.13-.68-4.24-1.84l-70-73.1c-5.41-5.65-4.85-14.72,1.22-19.66l37.01-30.11h0c2.41-2.8-.72-6.9-4.06-5.33l-48.24,22.77c-4.8,2.27-6.71,8.11-4.17,12.77l23.8,43.74c6.11,40.15-14.81,52.49-14.81,52.49l-103.48,.9c-4.95,.04-9.14-3.67-9.69-8.59l-.83-7.43c-.33-2.98-3.63-4.63-6.21-3.1l-31.78,18.77c-4.88,2.88-11.07-.54-11.21-6.21l-1.23-47.82c-.11-4.15,3.2-7.58,7.34-7.63l102.79-1.22Z"/><path class="cls-1" d="M429.28,365.26h-12.8c-.73,0-1.32-.59-1.32-1.32v-77.48c0-.7,.57-1.26,1.26-1.26h12.86c10.1,0,18.29,8.19,18.29,18.29v43.47c0,10.1-8.19,18.29-18.29,18.29Z"/><path class="cls-1" d="M357.4,318.53l50.22-32.34c.84-.45,1.86,.16,1.86,1.11v76.09c0,.91-.9,1.55-1.76,1.25l-37.17-12.98c-8.83-3.08-14.74-11.41-14.74-20.76v-9.74c0-1.1,.61-2.12,1.58-2.64Z"/></g></g></g></svg>