<?xml version="1.0" encoding="UTF-8"?><svg id="Layer_2" xmlns="http://www.w3.org/2000/svg" viewBox="0 0 512 512"><defs><style>.cls-1{fill:#04a37b;}.cls-2{fill:none;}</style></defs><g id="Layer_1-2"><g><rect class="cls-2" width="512" height="512"/><g><path class="cls-1" d="M347.8,337.73c-9.54-9.54-25.06-9.54-34.6,0-9.55,9.55-9.55,25.06,0,34.61,9.54,9.54,25.06,9.54,34.6,0,9.55-9.55,9.55-25.06,0-34.61Z"/><g><path class="cls-1" d="M362.54,422.71c-8.47,4.45-27.58-15.16-32.04-23.67-4.47-8.49-1.2-18.97,7.29-23.42,8.49-4.46,18.98-1.2,23.44,7.29,9.88,18.77-12.59,20.76,1.31,39.8Z"/><path class="cls-1" d="M352.21,426.24c9.42-1.66,12.54-28.86,10.87-38.32-1.66-9.45-10.66-15.74-20.1-14.07-9.45,1.67-15.75,10.67-14.08,20.11,3.66,20.89,22.66,8.72,23.31,32.28Z"/><path class="cls-1" d="M368.99,417.43c-6.05,7.42-31.32-3.12-38.76-9.19-7.44-6.05-8.55-16.98-2.49-24.41,6.06-7.44,16.99-8.55,24.42-2.49,16.46,13.38-3.44,24.04,16.82,36.09Z"/><path class="cls-1" d="M343.54,425.87c9.32,2.17,22.86-21.62,25.03-30.98,2.18-9.34-3.62-18.66-12.96-20.83-9.34-2.18-18.67,3.63-20.84,12.97-4.83,20.66,17.42,16.91,8.77,38.84Z"/></g><path class="cls-1" d="M218.16,110.23c0,13.52,10.95,24.49,24.47,24.49s24.49-10.98,24.49-24.49-10.99-24.47-24.49-24.47-24.47,10.99-24.47,24.47Z"/><path class="cls-1" d="M266.52,118.64c0,13.52,10.95,24.49,24.47,24.49s24.49-10.98,24.49-24.49-10.99-24.47-24.49-24.47-24.47,10.99-24.47,24.47Z"/><path class="cls-1" d="M309.79,138.84c0,13.52,10.95,24.49,24.47,24.49s24.49-10.98,24.49-24.49-10.99-24.47-24.49-24.47-24.47,10.99-24.47,24.47Z"/><path class="cls-1" d="M340.97,174.09c0,13.52,10.95,24.49,24.47,24.49s24.49-10.98,24.49-24.49-10.99-24.47-24.49-24.47-24.47,10.99-24.47,24.47Z"/><path class="cls-1" d="M363.12,217.02c0,13.52,10.95,24.49,24.47,24.49s24.49-10.98,24.49-24.49-10.99-24.47-24.49-24.47-24.47,10.99-24.47,24.47Z"/><path class="cls-1" d="M358.79,264.96c0,13.52,10.95,24.49,24.47,24.49s24.49-10.98,24.49-24.49-10.99-24.47-24.49-24.47-24.47,10.99-24.47,24.47Z"/><path class="cls-1" d="M339.61,307.53c0,13.52,10.95,24.49,24.47,24.49s24.49-10.98,24.49-24.49-10.99-24.47-24.49-24.47-24.47,10.99-24.47,24.47Z"/><path class="cls-1" d="M291.86,308.52c0,13.52,10.95,24.49,24.47,24.49s24.49-10.98,24.49-24.49-10.99-24.47-24.49-24.47-24.47,10.99-24.47,24.47Z"/><path class="cls-1" d="M242.9,309.86c0,13.52,10.95,24.49,24.47,24.49s24.49-10.98,24.49-24.49-10.99-24.47-24.49-24.47-24.47,10.99-24.47,24.47Z"/><path class="cls-1" d="M197.22,326.4c0,13.52,10.95,24.49,24.47,24.49s24.49-10.98,24.49-24.49-10.99-24.47-24.49-24.47-24.47,10.99-24.47,24.47Z"/><path class="cls-1" d="M150.66,311.85c0,13.52,10.95,24.49,24.47,24.49s24.49-10.98,24.49-24.49-10.99-24.47-24.49-24.47-24.47,10.99-24.47,24.47Z"/><path class="cls-1" d="M109.73,285.38c0,13.52,10.95,24.49,24.47,24.49s24.49-10.98,24.49-24.49-10.99-24.47-24.49-24.47-24.47,10.99-24.47,24.47Z"/><path class="cls-1" d="M99.92,237.39c0,13.52,10.95,24.49,24.47,24.49s24.49-10.98,24.49-24.49-10.99-24.47-24.49-24.47-24.47,10.99-24.47,24.47Z"/><path class="cls-1" d="M99.92,189.02c0,13.52,10.95,24.49,24.47,24.49s24.49-10.98,24.49-24.49-10.99-24.47-24.49-24.47-24.47,10.99-24.47,24.47Z"/><path class="cls-1" d="M130.01,150.46c0,13.52,10.95,24.49,24.47,24.49s24.49-10.98,24.49-24.49-10.99-24.47-24.49-24.47-24.47,10.99-24.47,24.47Z"/><path class="cls-1" d="M166.71,116.66c0,14.2,11.51,25.74,25.71,25.74s25.74-11.54,25.74-25.74-11.55-25.71-25.74-25.71-25.71,11.55-25.71,25.71Z"/></g></g></g></svg>