<?xml version="1.0" encoding="UTF-8"?><svg id="Layer_2" xmlns="http://www.w3.org/2000/svg" viewBox="0 0 512 512"><defs><style>.cls-1{fill:#04a37b;}.cls-2{fill:none;}</style></defs><g id="Layer_1-2"><g><rect class="cls-2" width="512" height="512"/><g><path class="cls-1" d="M369.28,234.91v44.27c0,2.1-.31,4.14-.92,6.05-2.58,8.31-10.28,14.33-19.44,14.33h-1.79c-11.24,0-20.36-9.12-20.36-20.36v-44.3c0-11.24,9.11-20.38,20.36-20.38h1.79c9.14,0,16.86,6.02,19.44,14.31,.6,1.93,.92,3.96,.92,6.07Z"/><path class="cls-1" d="M294.89,193.28c-11.74,0-21.26,9.52-21.26,21.26v23.71c0,3.31,1.06,6.58,3.19,9.12,4.61,5.5,7.44,12.55,7.44,20.31,0,6.29-1.89,12.1-5.06,17.02-1.8,2.79-1.41,6.54,.96,8.85,3.88,3.78,9.14,5.99,14.72,6.01,11.74,0,21.26-9.52,21.26-21.26v-63.77c0-11.74-9.52-21.26-21.26-21.26h0Z"/><path class="cls-1" d="M368.36,313.78v40.36c0,40.29-32.66,72.95-72.95,72.95h-79.73c-40.29,0-72.95-32.66-72.95-72.95v-63.64c0-9.84,1.45-19.62,4.3-29.03h0c.13-.36,.31-.65,.43-.99,.49-1.34,1.1-2.62,1.84-3.85,.72-1.16,1.55-2.28,2.49-3.29,.92-.99,1.93-1.88,3-2.69,1.1-.81,2.26-1.5,3.47-2.08,2.53-1.23,5.31-1.93,8.13-2.04,.34-.02,.65-.11,1.01-.11h85.01c12.22,0,22.03,10.32,21.2,22.69-.75,11.29-10.64,19.81-21.96,19.81h-57.7c-3.11,0-5.62,2.69-5.28,5.87,.27,2.78,2.8,4.77,5.58,4.77h1.03c28.57,0,51.82,33.39,51.82,74.39,0,3.11,2.66,5.6,5.82,5.29,2.75-.27,4.79-2.78,4.79-5.55-.07-29.16-10.97-54.91-27.52-70.16-1.55-1.41-.6-3.96,1.5-3.96h20.71c6.52,0,10.93-1.59,13.35-2.82,1.34-.7,3-.31,3.92,.89,2.46,3.14,5.46,5.8,8.89,7.88,.86,.52,1.75,.93,2.66,1.36,1.42,.67,2.88,1.26,4.37,1.75,.69,.23,1.37,.46,2.08,.6,2.35,.58,4.72,.96,7.26,.96,2.46-.02,4.9-.33,7.3-.94,.72-.16,1.41-.43,2.13-.65,3.08-.95,6.01-2.35,8.68-4.19,.55-.38,1.39-1.08,1.91-1.5,.62-.5,1.24-.98,1.82-1.5,.09-.07,.17-.15,.25-.22,2.39-2.35,6.34-2.07,8.75,.26,5.74,5.54,13.47,8.74,21.64,8.74h1.32c3.78-.02,7.52-.74,11-2.06,4.19-1.61,8.67,1.32,8.67,5.64Z"/><path class="cls-1" d="M263.01,228.81v-13.54c0-11.32-8.54-21.21-19.84-21.94-12.38-.8-22.67,9-22.67,21.21v14.27c0,3.86,3.13,6.99,6.99,6.99h28.54c3.86,0,6.99-3.13,6.99-6.99Z"/><path class="cls-1" d="M207.88,106.29l-.37,122.84c-.01,3.68-3.3,6.66-7.35,6.66h-32.02c-4.07,0-7.36-3-7.35-6.69l.3-123.06s.12-21.25,23.52-21.14c23.15,.13,23.28,20.94,23.28,21.39Z"/></g></g></g></svg>