<?xml version="1.0" encoding="UTF-8"?><svg id="Layer_2" xmlns="http://www.w3.org/2000/svg" viewBox="0 0 512 512"><defs><style>.cls-1,.cls-2{fill:#04a37b;}.cls-3{fill:none;}.cls-2{fill-rule:evenodd;}</style></defs><g id="Layer_1-2"><g><rect class="cls-3" width="512" height="512"/><g><path class="cls-1" d="M360.01,256.43c-30.52,14.55-41.9,60.67-72.42,75.21-16.59,7.91-37.6,9.45-53.32,9.21-4.6-.07-5.5-6.55-1.11-7.9,14.78-4.51,33.98-10.88,46.93-17.05,23.75-11.32,26.66-22.65,21.43-33.62-7.42-15.58-27.12-15.6-41.75-13.05-41.46,7.24-96.65,14.16-139.37,27.57-7.68,2.41-11.99,10.55-9.63,18.25,7.66,25.03,23.78,78.07,30.69,100.81,1.94,6.39,7.96,10.66,14.63,10.36,24.63-1.11,49.28-4.29,73.55-8.29,22.98-3.79,46.44-7.5,67.87-17.05,21.46-9.57,37.43-25.92,52.45-43.57,15.09-17.74,28.73-37.03,39.9-57.48,4.65-8.51,10.25-18.37,11.81-28.03,1.56-9.66-6.39-16.91-15.16-19.11-8.82-2.21-18.45-.11-26.5,3.73Z"/><path class="cls-2" d="M295.41,167.39c0,30.18-24.47,54.65-54.65,54.65-14.34,0-27.4-5.53-37.16-14.58-1.41-1.31-.88-3.66,.95-4.27,22.44-7.42,38.45-28.55,38.45-53.28,0-17.07-8.09-33-18.8-46.38-1.44-1.8-1.29-4.4,.37-6.01,5.19-5.03,9.33-8.51,11.05-9.93,3-2.46,7.26-2.46,10.26,0,3.31,2.71,15.47,13.01,26.85,27.18,11.2,13.93,22.67,32.84,22.67,52.61Z"/><path class="cls-2" d="M221.13,149.92c0,18.3-14.36,33.24-32.42,34.18-.6,.04-1.2,.05-1.8,.05-18.91,0-34.23-15.33-34.23-34.23,0-12.38,7.18-24.21,14.2-32.94,7.14-8.87,14.75-15.33,16.82-17.02,.94-.77,2.07-1.15,3.21-1.15s2.27,.38,3.21,1.15c2.07,1.69,9.68,8.15,16.81,17.02,.02,.02,.03,.04,.06,.07,7,8.71,14.14,20.53,14.14,32.87Z"/></g></g></g></svg>