<?xml version="1.0" encoding="UTF-8"?><svg id="Layer_2" xmlns="http://www.w3.org/2000/svg" viewBox="0 0 512 512"><defs><style>.cls-1{fill:#04a37b;}.cls-2{fill:none;}</style></defs><g id="Layer_1-2"><g><rect class="cls-2" width="512" height="512"/><g><path class="cls-1" d="M148.73,260.03c31.48-15,43.21-62.56,74.69-77.57,17.11-8.15,38.78-9.74,54.99-9.5,4.74,.07,5.68,6.76,1.14,8.14-15.24,4.65-35.04,11.22-48.4,17.58-24.49,11.67-27.5,23.36-22.1,34.68,7.66,16.07,27.96,16.09,43.05,13.45,42.76-7.47,99.67-14.6,143.73-28.43,7.92-2.49,12.36-10.88,9.93-18.82-7.9-25.81-24.53-80.51-31.66-103.96-2-6.59-8.21-11-15.09-10.69-25.4,1.14-50.83,4.42-75.85,8.55-23.7,3.91-47.89,7.73-69.99,17.59-22.13,9.87-38.6,26.73-54.09,44.94-15.57,18.29-29.63,38.18-41.14,59.28-4.79,8.78-10.57,18.95-12.18,28.9-1.61,9.96,6.59,17.44,15.63,19.71,9.1,2.28,19.02,.11,27.33-3.85Z"/><g><path class="cls-1" d="M229.84,421.11c2.44,2,1.03,5.94-2.12,5.98-14.58,.15-29.18-5.54-39.97-16.98-20.55-21.76-19.56-56.05,2.2-76.6,8.25-7.79,18.31-12.49,28.73-14.12,3.12-.49,5.17,3.17,3.09,5.55-24.58,28.13-21.33,72.11,8.07,96.18Z"/><path class="cls-1" d="M276.54,412.31c-3.2,3.02-6.67,5.58-10.33,7.67-7.65-2.79-14.78-7.36-20.75-13.68-20.55-21.76-19.56-56.06,2.2-76.6,3.2-3.02,6.67-5.58,10.33-7.67,7.65,2.79,14.78,7.36,20.75,13.69,20.55,21.76,19.56,56.05-2.2,76.6Z"/><path class="cls-1" d="M322.05,408.49c-10.47,9.89-23.84,14.79-37.19,14.79-6.32,0-12.65-1.1-18.65-3.3-7.65-2.79-14.78-7.36-20.75-13.68-20.55-21.76-19.56-56.06,2.2-76.6,3.2-3.02,6.67-5.58,10.33-7.67,8.31-4.76,17.59-7.12,26.86-7.12,14.39,0,28.75,5.7,39.41,16.99,20.55,21.76,19.56,56.05-2.2,76.6Z"/></g></g></g></g></svg>