<?xml version="1.0" encoding="UTF-8"?><svg id="Layer_2" xmlns="http://www.w3.org/2000/svg" viewBox="0 0 16 16"><defs><style>.cls-1{fill:#04a37b;}.cls-2{fill:none;}</style></defs><g id="Layer_1-2"><g><rect class="cls-2" width="16" height="16"/><g><path class="cls-1" d="M6.97,10.38c-.16,.68-.84,1.1-1.51,.94l-1.34-.31c-1.54-.34-1.26-2.18-1.25-2.2h0c-.04-.37-.1-.88-.18-1.54-.02-.21,.13-.4,.35-.41,.19,0,.35,.14,.38,.31,.02,.11,.03,.26,.04,.3h0s-.1,1.06,.79,1.31c.59,.14,.75,.87,.62,1.46-.01,.05,.02,.1,.08,.11,.05,0,.09-.03,.1-.07,.11-.49,.03-.97-.19-1.29,0,0,0,0,0-.01-.02-.05-.14-.22-.55-.37,0,0,0,0-.02,0-.37-.14-.52-.41-.59-.66-.05-.21-.05-.42,0-.63l.46-1.97c.05-.2,.25-.32,.45-.27,.2,.05,.31,.25,.27,.45l-.51,2.19c-.02,.08,.03,.17,.13,.19,.08,.02,.17-.04,.19-.12l.66-2.83c.05-.2,.25-.32,.45-.27,.2,.05,.31,.25,.27,.45l-.66,2.83c-.02,.09,.03,.17,.12,.19,.09,.02,.17-.03,.19-.12l.55-2.38c.05-.2,.25-.32,.45-.27,.2,.05,.31,.25,.27,.45l-.55,2.37c-.02,.09,.03,.17,.12,.19h0c.09,.02,.17-.03,.19-.12l.33-1.42c.05-.2,.24-.32,.44-.28,.2,.04,.33,.24,.28,.44l-.79,3.39Z"/><path class="cls-1" d="M9.03,10.38c.16,.68,.84,1.1,1.51,.94l1.34-.31c1.54-.34,1.26-2.18,1.25-2.2h0c.04-.37,.1-.88,.18-1.54,.02-.21-.13-.4-.35-.41-.19,0-.35,.14-.38,.31-.02,.11-.03,.26-.04,.3h0s.1,1.06-.79,1.31c-.59,.14-.75,.87-.62,1.46,.01,.05-.02,.1-.08,.11-.05,0-.09-.03-.1-.07-.11-.49-.03-.97,.19-1.29,0,0,0,0,0-.01,.02-.05,.14-.22,.55-.37,0,0,0,0,.02,0,.37-.14,.52-.41,.59-.66,.05-.21,.05-.42,0-.63l-.46-1.97c-.05-.2-.25-.32-.45-.27-.2,.05-.31,.25-.27,.45l.51,2.19c.02,.08-.03,.17-.13,.19-.08,.02-.17-.04-.19-.12l-.66-2.83c-.05-.2-.25-.32-.45-.27-.2,.05-.31,.25-.27,.45l.66,2.83c.02,.09-.03,.17-.12,.19-.09,.02-.17-.03-.19-.12l-.55-2.38c-.05-.2-.25-.32-.45-.27-.2,.05-.31,.25-.27,.45l.55,2.37c.02,.09-.03,.17-.12,.19h0c-.09,.02-.17-.03-.19-.12l-.33-1.42c-.05-.2-.24-.32-.44-.28-.2,.04-.33,.24-.28,.44l.79,3.39Z"/></g></g></g></svg>