<?xml version="1.0" encoding="UTF-8"?><svg id="Layer_2" xmlns="http://www.w3.org/2000/svg" viewBox="0 0 16 16"><defs><style>.cls-1{fill:#04a37b;}.cls-2{fill:none;}</style></defs><g id="Layer_1-2"><g><rect class="cls-2" width="16" height="16"/><g><path class="cls-1" d="M5.24,9.48h5.52c.21,0,.41-.11,.52-.28,.18-.28,.29-.62,.29-.98,0-.59-.29-1.15-.78-1.48-.09-.06-.19-.12-.27-.18-.75-.5-1.38-.91-1.9-1.46-.13-.15-.34-.44-.4-.85h0c.09-.01,.18-.03,.27-.07,.21-.09,.38-.26,.46-.48,.04-.09,0-.2-.1-.23-.09-.04-.2,0-.23,.1-.05,.13-.15,.23-.27,.28-.13,.06-.27,.06-.4,0-.13-.06-.23-.16-.28-.3-.07-.2,0-.42,.15-.56,.08-.06,.09-.18,.02-.25-.06-.08-.18-.09-.25-.02-.28,.23-.38,.62-.26,.96,.08,.23,.25,.41,.47,.51,0,0,0,0,.01,0v.07s-.02,.4-.34,.79c-.06,.06-.12,.13-.18,.19,0,0-.02,.02-.03,.03-.49,.48-1.07,.86-1.76,1.31-.09,.06-.18,.12-.27,.18-.5,.33-.78,.89-.78,1.48,0,.36,.11,.69,.29,.97,.11,.18,.31,.28,.52,.28Z"/><path class="cls-1" d="M11.56,10.03H4.44c-.3,0-.55,.25-.55,.55v2.19c0,.3,.25,.55,.55,.55h.46c.2,0,.37-.16,.37-.37v-.87c0-.23,.19-.41,.42-.41,.23,0,.41,.19,.41,.42v.86c0,.2,.16,.37,.37,.37h.36c.2,0,.37-.16,.37-.37v-.63c0-.33,.14-.63,.39-.84l.43-.36,.43,.36c.25,.21,.39,.52,.39,.84v.63c0,.2,.16,.37,.37,.37h.36c.2,0,.37-.16,.37-.37v-.87c0-.23,.19-.41,.42-.41,.23,0,.41,.19,.41,.42v.86c0,.2,.16,.37,.37,.37h.46c.3,0,.55-.25,.55-.55v-2.19c0-.3-.25-.55-.55-.55Z"/></g></g></g></svg>