<?xml version="1.0" encoding="UTF-8"?><svg id="Layer_2" xmlns="http://www.w3.org/2000/svg" viewBox="0 0 16 16"><defs><style>.cls-1{fill:#04a37b;}.cls-2{fill:none;}</style></defs><g id="Layer_1-2"><g><rect class="cls-2" width="16" height="16"/><path class="cls-1" d="M9.32,6.29c-.05-.06-.11-.18-.11-.26v-.58h-.58c-.09,0-.17-.03-.26-.12l-.4-.4-.41,.4c-.05,.06-.17,.12-.26,.12h-.57v.58c0,.08-.03,.17-.12,.26l-.4,.4,.4,.4c.06,.06,.12,.18,.12,.26l-.03,.58h.58c.08,0,.17,.03,.26,.11l.4,.41,.4-.41c.06-.05,.18-.11,.26-.11h.58v-.58c0-.08,.03-.17,.11-.26l.41-.4-.38-.4Zm-.82,1.17c-.15,.09-.32,.15-.51,.15-.51,0-.93-.42-.93-.94s.42-.93,.93-.93c.19,0,.36,.06,.51,.15,.02,.02,.03,.05,.02,.07-.01,.03-.04,.04-.06,.04-.05-.01-.1-.02-.14-.02-.38,0-.69,.31-.69,.69s.31,.69,.69,.69c.04,0,.09,0,.14,0,.02-.01,.05,0,.06,.04,.01,.02,0,.05-.02,.07Zm.2-.84l-.13,.11,.04,.17s-.03,.07-.07,.05l-.14-.09-.14,.09s-.08-.01-.07-.05l.04-.17-.13-.11s-.02-.08,.02-.08h.17s.07-.17,.07-.17c.01-.04,.07-.04,.08,0l.07,.16h.17s.05,.06,.02,.09Zm.62-.33c-.05-.06-.11-.18-.11-.26v-.58h-.58c-.09,0-.17-.03-.26-.12l-.4-.4-.41,.4c-.05,.06-.17,.12-.26,.12h-.57v.58c0,.08-.03,.17-.12,.26l-.4,.4,.4,.4c.06,.06,.12,.18,.12,.26l-.03,.58h.58c.08,0,.17,.03,.26,.11l.4,.41,.4-.41c.06-.05,.18-.11,.26-.11h.58v-.58c0-.08,.03-.17,.11-.26l.41-.4-.38-.4Zm-.82,1.17c-.15,.09-.32,.15-.51,.15-.51,0-.93-.42-.93-.94s.42-.93,.93-.93c.19,0,.36,.06,.51,.15,.02,.02,.03,.05,.02,.07-.01,.03-.04,.04-.06,.04-.05-.01-.1-.02-.14-.02-.38,0-.69,.31-.69,.69s.31,.69,.69,.69c.04,0,.09,0,.14,0,.02-.01,.05,0,.06,.04,.01,.02,0,.05-.02,.07Zm.2-.84l-.13,.11,.04,.17s-.03,.07-.07,.05l-.14-.09-.14,.09s-.08-.01-.07-.05l.04-.17-.13-.11s-.02-.08,.02-.08h.17s.07-.17,.07-.17c.01-.04,.07-.04,.08,0l.07,.16h.17s.05,.06,.02,.09Zm1.96-3.94H4.01c-.37,0-.67,.3-.67,.67v6.65c0,.37,.3,.66,.67,.66v1.33c-.37,0-.67,.3-.67,.67s.3,.66,.67,.66h6.65c1.1,0,1.99-.89,1.99-1.99V4.68c0-1.1-.89-2-1.99-2Zm-5.23,3.75l.58-.58v-.8c0-.21,.17-.38,.37-.38h.81l.55-.55c.06-.06,.17-.11,.26-.11,.08,0,.17,.03,.26,.11l.54,.55h.81c.2,0,.38,.17,.38,.38v.8l.57,.58c.06,.06,.12,.17,.12,.26s-.03,.17-.12,.26l-.57,.55v.8c0,.21-.18,.38-.38,.38h-.81l-.54,.55c-.12,.05-.21,.11-.29,.11-.09,0-.17-.03-.26-.11l-.55-.55h-.81c-.2,0-.37-.17-.37-.38v-.8l-.55-.55c-.06-.06-.12-.17-.12-.26s.03-.17,.12-.26Zm5.23,5.56H5.34v-1.33h5.32c.36,0,.66,.3,.66,.67s-.3,.66-.66,.66Zm-3.93-4.64l-.03,.58h.58c.08,0,.17,.03,.26,.11l.4,.41,.4-.41c.06-.05,.18-.11,.26-.11h.58v-.58c0-.08,.03-.17,.11-.26l.41-.4-.38-.4c-.05-.06-.11-.18-.11-.26v-.58h-.58c-.09,0-.17-.03-.26-.12l-.4-.4-.41,.4c-.05,.06-.17,.12-.26,.12h-.57v.58c0,.08-.03,.17-.12,.26l-.4,.4,.4,.4c.06,.06,.12,.18,.12,.26Zm1.95-.81s.05,.05,.02,.08l-.13,.11,.04,.17s-.03,.07-.07,.05l-.14-.09-.14,.09s-.08-.01-.07-.05l.04-.17-.13-.11s-.02-.08,.02-.08h.17s.07-.17,.07-.17c.01-.04,.07-.04,.08,0l.07,.16h.17Zm-.69-.79c.19,0,.36,.06,.51,.15,.02,.02,.03,.05,.02,.07-.01,.03-.04,.04-.06,.04-.05-.01-.1-.02-.14-.02-.38,0-.69,.31-.69,.69s.31,.69,.69,.69c.04,0,.09,0,.14,0,.02-.01,.05,0,.06,.04,.01,.02,0,.05-.02,.07-.15,.09-.32,.15-.51,.15-.51,0-.93-.42-.93-.94s.42-.93,.93-.93Zm1.33,.55c-.05-.06-.11-.18-.11-.26v-.58h-.58c-.09,0-.17-.03-.26-.12l-.4-.4-.41,.4c-.05,.06-.17,.12-.26,.12h-.57v.58c0,.08-.03,.17-.12,.26l-.4,.4,.4,.4c.06,.06,.12,.18,.12,.26l-.03,.58h.58c.08,0,.17,.03,.26,.11l.4,.41,.4-.41c.06-.05,.18-.11,.26-.11h.58v-.58c0-.08,.03-.17,.11-.26l.41-.4-.38-.4Zm-.82,1.17c-.15,.09-.32,.15-.51,.15-.51,0-.93-.42-.93-.94s.42-.93,.93-.93c.19,0,.36,.06,.51,.15,.02,.02,.03,.05,.02,.07-.01,.03-.04,.04-.06,.04-.05-.01-.1-.02-.14-.02-.38,0-.69,.31-.69,.69s.31,.69,.69,.69c.04,0,.09,0,.14,0,.02-.01,.05,0,.06,.04,.01,.02,0,.05-.02,.07Zm.2-.84l-.13,.11,.04,.17s-.03,.07-.07,.05l-.14-.09-.14,.09s-.08-.01-.07-.05l.04-.17-.13-.11s-.02-.08,.02-.08h.17s.07-.17,.07-.17c.01-.04,.07-.04,.08,0l.07,.16h.17s.05,.06,.02,.09Zm.62-.33c-.05-.06-.11-.18-.11-.26v-.58h-.58c-.09,0-.17-.03-.26-.12l-.4-.4-.41,.4c-.05,.06-.17,.12-.26,.12h-.57v.58c0,.08-.03,.17-.12,.26l-.4,.4,.4,.4c.06,.06,.12,.18,.12,.26l-.03,.58h.58c.08,0,.17,.03,.26,.11l.4,.41,.4-.41c.06-.05,.18-.11,.26-.11h.58v-.58c0-.08,.03-.17,.11-.26l.41-.4-.38-.4Zm-.82,1.17c-.15,.09-.32,.15-.51,.15-.51,0-.93-.42-.93-.94s.42-.93,.93-.93c.19,0,.36,.06,.51,.15,.02,.02,.03,.05,.02,.07-.01,.03-.04,.04-.06,.04-.05-.01-.1-.02-.14-.02-.38,0-.69,.31-.69,.69s.31,.69,.69,.69c.04,0,.09,0,.14,0,.02-.01,.05,0,.06,.04,.01,.02,0,.05-.02,.07Zm.2-.84l-.13,.11,.04,.17s-.03,.07-.07,.05l-.14-.09-.14,.09s-.08-.01-.07-.05l.04-.17-.13-.11s-.02-.08,.02-.08h.17s.07-.17,.07-.17c.01-.04,.07-.04,.08,0l.07,.16h.17s.05,.06,.02,.09Z"/></g></g></svg>