<?xml version="1.0" encoding="UTF-8"?><svg id="Layer_2" xmlns="http://www.w3.org/2000/svg" viewBox="0 0 16 16"><defs><style>.cls-1{fill:#04a37b;}.cls-2{fill:none;}</style></defs><g id="Layer_1-2"><g><rect class="cls-2" width="16" height="16"/><g><path class="cls-1" d="M5.46,9.55c.14,0,.21-.16,.12-.27-.58-.66-1.97-2.4-1.62-3.62,.16-.57,.64-.89,1.16-1.06,.93-.31,1.96-.13,2.75,.44l4.48,3.22c.15,.1,.15,.32,0,.43l-1.11,.85c-.13,.1-.3,.1-.44,.01l-1.14-.81c-.08-.06-.2-.05-.27,.03l-.3,.3c-.09,.09-.08,.23,0,.31l1.92,1.76c.13,.12,.04,.33-.13,.32h-1.14c-.05-.01-.1-.03-.13-.07l-2.19-2.28c-.17-.18-.15-.46,.04-.61l1.16-.94h0c.08-.09-.02-.22-.13-.17l-1.51,.71c-.15,.07-.21,.25-.13,.4l.74,1.37c.19,1.25-.46,1.64-.46,1.64l-3.23,.03c-.15,0-.29-.11-.3-.27l-.03-.23c-.01-.09-.11-.14-.19-.1l-.99,.59c-.15,.09-.35-.02-.35-.19l-.04-1.49c0-.13,.1-.24,.23-.24l3.21-.04Z"/><path class="cls-1" d="M13.41,11.41h-.4s-.04-.02-.04-.04v-2.42s.02-.04,.04-.04h.4c.32,0,.57,.26,.57,.57v1.36c0,.32-.26,.57-.57,.57Z"/><path class="cls-1" d="M11.17,9.95l1.57-1.01s.06,0,.06,.03v2.38s-.03,.05-.05,.04l-1.16-.41c-.28-.1-.46-.36-.46-.65v-.3s.02-.07,.05-.08Z"/></g></g></g></svg>