<?xml version="1.0" encoding="UTF-8"?><svg id="Layer_2" xmlns="http://www.w3.org/2000/svg" viewBox="0 0 16 16"><defs><style>.cls-1{fill:#04a37b;}.cls-2{fill:none;}</style></defs><g id="Layer_1-2"><g><rect class="cls-2" width="16" height="16"/><g><path class="cls-1" d="M7.09,5.98c.66,0,1.47-.46,1.47-1.33,0-.82-.68-1.65-1.4-1.95-.28-.12-.61,.06-.66,.36-.04,.27-.14,.39-.35,.58-1.02,.95-.12,2.34,.93,2.34Z"/><path class="cls-1" d="M11.32,9.4c-.79,0-1.42,.64-1.42,1.42,0,.17,.03,.33,.08,.47,0,0,0,0,0,0h-.48s0-.06,0-.1v-3.8c0-.52-.43-.95-.95-.95h-1.25c-.09,0-.15,.07-.15,.15,0,.16,0,.51,0,1.37,0,.26-.21,.47-.47,.47-.27,0-.48-.22-.48-.49,0-.85,0-1.2,0-1.36,0-.09-.07-.15-.15-.15h-.34c-.52,0-.95,.43-.95,.95v3.8s0,.07,0,.1h0s-1.04,0-1.04,0c-.26,0-.47,.21-.47,.47,0,.23,.17,.43,.39,.47,.22,.65,.77,1.1,1.41,1.1h4.16c.64,0,1.18-.46,1.41-1.1h.71s.02,0,.02,0c.77-.01,1.4-.65,1.4-1.42s-.64-1.42-1.42-1.42Zm0,1.9c-.26,0-.47-.21-.47-.47s.21-.47,.47-.47,.47,.21,.47,.47-.21,.47-.47,.47Z"/></g></g></g></svg>