<?xml version="1.0" encoding="UTF-8"?><svg id="Layer_2" xmlns="http://www.w3.org/2000/svg" viewBox="0 0 16 16"><defs><style>.cls-1{fill:#04a37b;}.cls-2{fill:none;}</style></defs><g id="Layer_1-2"><g><rect class="cls-2" width="16" height="16"/><g><path class="cls-1" d="M10.87,10.55c-.3-.3-.78-.3-1.08,0-.3,.3-.3,.78,0,1.08,.3,.3,.78,.3,1.08,0,.3-.3,.3-.78,0-1.08Z"/><g><path class="cls-1" d="M11.33,13.21c-.26,.14-.86-.47-1-.74-.14-.27-.04-.59,.23-.73,.27-.14,.59-.04,.73,.23,.31,.59-.39,.65,.04,1.24Z"/><path class="cls-1" d="M11.01,13.32c.29-.05,.39-.9,.34-1.2-.05-.3-.33-.49-.63-.44-.3,.05-.49,.33-.44,.63,.11,.65,.71,.27,.73,1.01Z"/><path class="cls-1" d="M11.53,13.04c-.19,.23-.98-.1-1.21-.29-.23-.19-.27-.53-.08-.76,.19-.23,.53-.27,.76-.08,.51,.42-.11,.75,.53,1.13Z"/><path class="cls-1" d="M10.74,13.31c.29,.07,.71-.68,.78-.97,.07-.29-.11-.58-.41-.65-.29-.07-.58,.11-.65,.41-.15,.65,.54,.53,.27,1.21Z"/></g><path class="cls-1" d="M6.82,3.44c0,.42,.34,.77,.76,.77s.77-.34,.77-.77-.34-.76-.77-.76-.76,.34-.76,.76Z"/><path class="cls-1" d="M8.33,3.71c0,.42,.34,.77,.76,.77s.77-.34,.77-.77-.34-.76-.77-.76-.76,.34-.76,.76Z"/><path class="cls-1" d="M9.68,4.34c0,.42,.34,.77,.76,.77s.77-.34,.77-.77-.34-.76-.77-.76-.76,.34-.76,.76Z"/><path class="cls-1" d="M10.66,5.44c0,.42,.34,.77,.76,.77s.77-.34,.77-.77-.34-.76-.77-.76-.76,.34-.76,.76Z"/><path class="cls-1" d="M11.35,6.78c0,.42,.34,.77,.76,.77s.77-.34,.77-.77-.34-.76-.77-.76-.76,.34-.76,.76Z"/><path class="cls-1" d="M11.21,8.28c0,.42,.34,.77,.76,.77s.77-.34,.77-.77-.34-.76-.77-.76-.76,.34-.76,.76Z"/><path class="cls-1" d="M10.61,9.61c0,.42,.34,.77,.76,.77s.77-.34,.77-.77-.34-.76-.77-.76-.76,.34-.76,.76Z"/><path class="cls-1" d="M9.12,9.64c0,.42,.34,.77,.76,.77s.77-.34,.77-.77-.34-.76-.77-.76-.76,.34-.76,.76Z"/><path class="cls-1" d="M7.59,9.68c0,.42,.34,.77,.76,.77s.77-.34,.77-.77-.34-.76-.77-.76-.76,.34-.76,.76Z"/><path class="cls-1" d="M6.16,10.2c0,.42,.34,.77,.76,.77s.77-.34,.77-.77-.34-.76-.77-.76-.76,.34-.76,.76Z"/><path class="cls-1" d="M4.71,9.75c0,.42,.34,.77,.76,.77s.77-.34,.77-.77-.34-.76-.77-.76-.76,.34-.76,.76Z"/><path class="cls-1" d="M3.43,8.92c0,.42,.34,.77,.76,.77s.77-.34,.77-.77-.34-.76-.77-.76-.76,.34-.76,.76Z"/><path class="cls-1" d="M3.12,7.42c0,.42,.34,.77,.76,.77s.77-.34,.77-.77-.34-.76-.77-.76-.76,.34-.76,.76Z"/><path class="cls-1" d="M3.12,5.91c0,.42,.34,.77,.76,.77s.77-.34,.77-.77-.34-.76-.77-.76-.76,.34-.76,.76Z"/><path class="cls-1" d="M4.06,4.7c0,.42,.34,.77,.76,.77s.77-.34,.77-.77-.34-.76-.77-.76-.76,.34-.76,.76Z"/><path class="cls-1" d="M5.21,3.65c0,.44,.36,.8,.8,.8s.8-.36,.8-.8-.36-.8-.8-.8-.8,.36-.8,.8Z"/></g></g></g></svg>