<?xml version="1.0" encoding="UTF-8"?><svg id="Layer_2" xmlns="http://www.w3.org/2000/svg" viewBox="0 0 16 16"><defs><style>.cls-1{fill:#04a37b;}.cls-2{fill:none;}</style></defs><g id="Layer_1-2"><g><rect class="cls-2" width="16" height="16"/><g><path class="cls-1" d="M4.65,8.13c.98-.47,1.35-1.96,2.33-2.42,.53-.25,1.21-.3,1.72-.3,.15,0,.18,.21,.04,.25-.48,.15-1.1,.35-1.51,.55-.77,.36-.86,.73-.69,1.08,.24,.5,.87,.5,1.35,.42,1.34-.23,3.11-.46,4.49-.89,.25-.08,.39-.34,.31-.59-.25-.81-.77-2.52-.99-3.25-.06-.21-.26-.34-.47-.33-.79,.04-1.59,.14-2.37,.27-.74,.12-1.5,.24-2.19,.55s-1.21,.84-1.69,1.4c-.49,.57-.93,1.19-1.29,1.85-.15,.27-.33,.59-.38,.9-.05,.31,.21,.55,.49,.62s.59,0,.85-.12Z"/><g><path class="cls-1" d="M7.18,13.16c.08,.06,.03,.19-.07,.19-.46,0-.91-.17-1.25-.53-.64-.68-.61-1.75,.07-2.39,.26-.24,.57-.39,.9-.44,.1-.02,.16,.1,.1,.17-.77,.88-.67,2.25,.25,3.01Z"/><path class="cls-1" d="M8.64,12.88c-.1,.09-.21,.17-.32,.24-.24-.09-.46-.23-.65-.43-.64-.68-.61-1.75,.07-2.39,.1-.09,.21-.17,.32-.24,.24,.09,.46,.23,.65,.43,.64,.68,.61,1.75-.07,2.39Z"/><path class="cls-1" d="M10.06,12.77c-.33,.31-.75,.46-1.16,.46-.2,0-.4-.03-.58-.1-.24-.09-.46-.23-.65-.43-.64-.68-.61-1.75,.07-2.39,.1-.09,.21-.17,.32-.24,.26-.15,.55-.22,.84-.22,.45,0,.9,.18,1.23,.53,.64,.68,.61,1.75-.07,2.39Z"/></g></g></g></g></svg>