<?xml version="1.0" encoding="UTF-8"?><svg id="Layer_2" xmlns="http://www.w3.org/2000/svg" viewBox="0 0 128 128"><defs><style>.cls-1{fill:#04a37b;}.cls-2{fill:none;}</style></defs><g id="Layer_1-2"><g><rect class="cls-2" width="128" height="128"/><g><path class="cls-1" d="M55.77,83.02c-1.26,5.43-6.68,8.81-12.11,7.55l-10.74-2.49c-12.28-2.72-10.07-17.45-10.04-17.63h0c-.33-2.93-.79-7.01-1.42-12.31-.2-1.68,1.06-3.19,2.77-3.28,1.54-.08,2.82,1.12,3.03,2.45,.14,.87,.23,2.05,.29,2.42h0c.03,.35-.83,8.51,6.33,10.47,4.72,1.09,6.03,6.95,4.92,11.72-.1,.42,.18,.84,.62,.89,.38,.05,.73-.22,.82-.6,.9-3.93,.24-7.74-1.52-10.31-.02-.03-.04-.07-.05-.1-.2-.39-1.11-1.79-4.38-3,0,0-.05-.02-.13-.04-2.99-1.11-4.18-3.3-4.69-5.25-.44-1.66-.44-3.4-.05-5.07l3.66-15.8c.37-1.6,1.98-2.59,3.58-2.19,1.56,.39,2.5,1.99,2.14,3.56l-4.07,17.54c-.16,.67,.25,1.39,1,1.54,.68,.14,1.34-.31,1.5-.98l5.26-22.66c.37-1.6,1.98-2.59,3.58-2.19,1.56,.39,2.5,1.99,2.14,3.56l-5.25,22.65c-.16,.69,.27,1.37,.95,1.53,.69,.17,1.38-.26,1.54-.95l4.41-19.01c.37-1.6,1.98-2.59,3.58-2.19,1.56,.39,2.5,1.99,2.14,3.56l-4.4,18.96c-.16,.68,.27,1.37,.95,1.53h.02c.68,.16,1.37-.26,1.53-.95l2.63-11.34c.36-1.57,1.91-2.6,3.49-2.26,1.61,.35,2.62,1.94,2.25,3.54l-6.29,27.14Z"/><path class="cls-1" d="M72.23,83.02c1.26,5.43,6.68,8.81,12.11,7.55l10.74-2.49c12.28-2.72,10.07-17.45,10.04-17.63h0c.33-2.93,.79-7.01,1.42-12.31,.2-1.68-1.06-3.19-2.77-3.28-1.54-.08-2.82,1.12-3.03,2.45-.14,.87-.23,2.05-.29,2.42h0c-.03,.35,.83,8.51-6.33,10.47-4.72,1.09-6.03,6.95-4.92,11.72,.1,.42-.18,.84-.62,.89-.38,.05-.73-.22-.82-.6-.9-3.93-.24-7.74,1.52-10.31,.02-.03,.04-.07,.05-.1,.2-.39,1.11-1.79,4.38-3,0,0,.05-.02,.13-.04,2.99-1.11,4.18-3.3,4.69-5.25,.44-1.66,.44-3.4,.05-5.07l-3.66-15.8c-.37-1.6-1.98-2.59-3.58-2.19-1.56,.39-2.5,1.99-2.14,3.56l4.07,17.54c.16,.67-.25,1.39-1,1.54-.68,.14-1.34-.31-1.5-.98l-5.26-22.66c-.37-1.6-1.98-2.59-3.58-2.19-1.56,.39-2.5,1.99-2.14,3.56l5.25,22.65c.16,.69-.27,1.37-.95,1.53-.69,.17-1.38-.26-1.54-.95l-4.41-19.01c-.37-1.6-1.98-2.59-3.58-2.19-1.56,.39-2.5,1.99-2.14,3.56l4.4,18.96c.16,.68-.27,1.37-.95,1.53h-.02c-.68,.16-1.37-.26-1.53-.95l-2.63-11.34c-.36-1.57-1.91-2.6-3.49-2.26-1.61,.35-2.62,1.94-2.25,3.54l6.29,27.14Z"/></g></g></g></svg>