<?xml version="1.0" encoding="UTF-8"?><svg id="Layer_2" xmlns="http://www.w3.org/2000/svg" viewBox="0 0 128 128"><defs><style>.cls-1{fill:#04a37b;}.cls-2{fill:none;}</style></defs><g id="Layer_1-2"><g><rect class="cls-2" width="128" height="128"/><g><path class="cls-1" d="M105.62,47.07l-8.23,2.57-4.74,1.48-14.31,4.47-4.77,1.49-7.43,2.32h-.01c-1.39,.43-2.88,.43-4.26,0l-7.56-2.36-4.77-1.49-14.31-4.47-4.74-1.48-8.12-2.54c-.66-.21-1.33,.29-1.33,.98v4.78c0,.45,.29,.84,.72,.98l7.14,2.25c.13,.04,.25,.09,.37,.15l.55,.17c.38,.12,.64,.47,.64,.86v3.08c0,.61-.59,1.05-1.17,.87l-7.22-2.23h0c-.54-.01-1.02,.42-1.02,1v29.92c0,2.09,1.36,3.94,3.34,4.55l38.18,11.93c.92,.28,1.92,.28,2.85,0l38.18-11.93c2-.61,3.36-2.46,3.36-4.55v-29.92c0-.63-.58-1.1-1.18-.99-.04,0-.08,.02-.12,.03l-3.43,1.07-1.73,.54s-.09,.03-.13,.04l-1.8,.56c-.59,.18-1.18-.26-1.18-.87v-3.07c0-.4,.26-.75,.64-.87l.94-.29s.07-.03,.11-.04l7.16-2.24c.43-.13,.72-.53,.72-.98v-4.79c0-.69-.67-1.18-1.33-.98Zm-58.82,19.53h0c-.06-.01-.13-.03-.19-.05l-2.57-.8-.09-.03-8.32-2.57c-.23-.07-.39-.29-.39-.53v-3.79c0-.38,.37-.65,.73-.53l2.04,.64h0c.16,.01,.32,.05,.48,.1l9.54,2.98c.16,.05,.3,.11,.44,.18h0s.68,.21,.68,.21c.24,.07,.4,.29,.4,.54v3.74c0,.38-.37,.66-.74,.54l-2.01-.62Zm26.4,2.44l-.72,.22c-.18,.11-.37,.21-.58,.27l-5.74,1.79c-1.39,.43-2.88,.43-4.26,0l-5.74-1.79c-.13-.04-.26-.09-.38-.15h0s-1.04-.32-1.04-.32c-.25-.08-.42-.31-.42-.58v-3.65c0-.41,.39-.7,.78-.57l2.04,.64c.15,.02,.29,.05,.44,.09h.01l5.74,1.79c.4,.13,.82,.15,1.23,.05l8.34-2.6c.34-.11,.68,.15,.68,.5v3.81c0,.23-.15,.43-.37,.5Zm19.06-5.9l-.96,.3c-.1,.05-.21,.09-.33,.13l-9.54,2.98c-.17,.05-.34,.09-.5,.1l-1.44,.45c-.57,.18-1.14-.25-1.14-.84v-1.88c0-.06,0-.12,0-.18v-1.01c0-.39,.25-.73,.62-.84l1.05-.33h0s9.54-2.98,9.54-2.98c.04-.01,.08-.03,.13-.04l2.25-.7c.35-.11,.71,.15,.71,.52v3.81c0,.24-.16,.45-.39,.52Z"/><path class="cls-1" d="M103.61,32.92l-38.18-11.28c-.92-.27-1.92-.27-2.85,0l-38.18,11.28c-2,.58-3.36,2.33-3.36,4.3v2.06c0,1.89,1.24,3.56,3.06,4.09l25.43,7.51,4.77,1.41,8.99,2.66c.46,.14,.95,.14,1.42,0l8.86-2.62,4.77-1.41,25.54-7.55c1.81-.54,3.06-2.2,3.06-4.09v-2.06c0-1.97-1.36-3.72-3.34-4.3Zm-7.74,6.06l-29.83,8.81c-1.33,.39-2.75,.39-4.07,0l-29.83-8.81c-.65-.19-.65-1.07,0-1.26l29.83-8.81c1.33-.39,2.75-.39,4.07,0l29.83,8.81c.65,.19,.65,1.07,0,1.26Z"/></g></g></g></svg>