<?xml version="1.0" encoding="UTF-8"?><svg id="Layer_2" xmlns="http://www.w3.org/2000/svg" viewBox="0 0 128 128"><defs><style>.cls-1{fill:#04a37b;}.cls-2{fill:none;}</style></defs><g id="Layer_1-2"><g><rect class="cls-2" width="128" height="128"/><g><path class="cls-1" d="M41.94,75.86h44.12c1.68,0,3.25-.84,4.16-2.25,1.45-2.25,2.28-4.93,2.28-7.81,0-4.71-2.3-9.17-6.26-11.8-.75-.49-1.48-.99-2.19-1.45-6.04-3.99-11.03-7.28-15.22-11.66-1.05-1.19-2.69-3.52-3.2-6.84v-.03c.74-.06,1.46-.24,2.15-.54,1.7-.73,3.02-2.1,3.71-3.84,.29-.74-.07-1.58-.81-1.87-.74-.29-1.58,.07-1.87,.81-.4,1.02-1.17,1.82-2.16,2.25-1.05,.45-2.19,.45-3.23,0-1.04-.45-1.82-1.29-2.2-2.37-.56-1.59-.07-3.38,1.22-4.46,.61-.51,.69-1.42,.18-2.03-.51-.61-1.42-.69-2.03-.18-2.22,1.85-3.06,4.93-2.09,7.64,.64,1.81,2.01,3.28,3.77,4.05,.04,.02,.07,.03,.11,.04v.53s-.13,3.19-2.68,6.29c-.47,.51-.96,1.01-1.45,1.5-.08,.07-.15,.14-.21,.21-3.94,3.82-8.58,6.87-14.07,10.5-.71,.48-1.45,.96-2.19,1.45-3.97,2.63-6.26,7.09-6.26,11.8,0,2.87,.84,5.55,2.29,7.8,.91,1.41,2.48,2.26,4.16,2.26Z"/><path class="cls-1" d="M92.51,80.24H35.49c-2.42,0-4.39,1.96-4.39,4.39v17.54c0,2.42,1.96,4.39,4.39,4.39h3.65c1.62,0,2.93-1.31,2.93-2.93v-6.94c0-1.84,1.49-3.31,3.33-3.29,1.81,.02,3.25,1.53,3.25,3.34v6.88c0,1.62,1.32,2.94,2.94,2.94h2.89c1.62,0,2.94-1.32,2.94-2.94v-5.01c0-2.6,1.15-5.07,3.15-6.74l3.43-2.85,3.43,2.85c2,1.67,3.15,4.14,3.15,6.74v5.01c0,1.62,1.32,2.94,2.94,2.94h2.89c1.62,0,2.94-1.32,2.94-2.94v-6.93c0-1.84,1.49-3.31,3.33-3.29,1.81,.02,3.25,1.53,3.25,3.34v6.88c0,1.62,1.31,2.93,2.93,2.93h3.65c2.42,0,4.39-1.96,4.39-4.39v-17.54c0-2.42-1.96-4.39-4.39-4.39Z"/></g></g></g></svg>