<?xml version="1.0" encoding="UTF-8"?><svg id="Layer_2" xmlns="http://www.w3.org/2000/svg" viewBox="0 0 128 128"><defs><style>.cls-1{fill:#04a37b;}.cls-2{fill:none;}</style></defs><g id="Layer_1-2"><g><rect class="cls-2" width="128" height="128"/><g><path class="cls-1" d="M74.61,50.25c-.46-.46-.92-1.38-.92-2.08v-4.61h-4.62c-.69,0-1.38-.23-2.07-.92l-3.23-3.23-3.23,3.23c-.47,.46-1.39,.92-2.08,.92h-4.61v4.61c0,.7-.23,1.39-.93,2.08l-3.23,3.23,3.23,3.23c.46,.46,.93,1.38,.93,2.08l-.23,4.61h4.61c.69,0,1.38,.23,2.08,.92l3.23,3.23,3.23-3.23c.46-.46,1.38-.92,2.07-.92h4.62v-4.61c0-.7,.23-1.39,.92-2.08l3.23-3.23-3-3.23Zm-6.6,9.37c-1.16,.75-2.55,1.19-4.04,1.19-4.11,0-7.45-3.33-7.45-7.45s3.34-7.44,7.45-7.44c1.49,0,2.88,.43,4.04,1.19,.19,.12,.27,.36,.18,.56-.09,.21-.3,.33-.52,.28-.36-.07-.73-.11-1.11-.11-3.05,0-5.52,2.48-5.52,5.52s2.47,5.53,5.52,5.53c.38,0,.75-.05,1.11-.12,.22-.04,.44,.08,.52,.28,.08,.21,0,.45-.18,.57Zm6.6-9.37c-.46-.46-.92-1.38-.92-2.08v-4.61h-4.62c-.69,0-1.38-.23-2.07-.92l-3.23-3.23-3.23,3.23c-.47,.46-1.39,.92-2.08,.92h-4.61v4.61c0,.7-.23,1.39-.93,2.08l-3.23,3.23,3.23,3.23c.46,.46,.93,1.38,.93,2.08l-.23,4.61h4.61c.69,0,1.38,.23,2.08,.92l3.23,3.23,3.23-3.23c.46-.46,1.38-.92,2.07-.92h4.62v-4.61c0-.7,.23-1.39,.92-2.08l3.23-3.23-3-3.23Zm-6.6,9.37c-1.16,.75-2.55,1.19-4.04,1.19-4.11,0-7.45-3.33-7.45-7.45s3.34-7.44,7.45-7.44c1.49,0,2.88,.43,4.04,1.19,.19,.12,.27,.36,.18,.56-.09,.21-.3,.33-.52,.28-.36-.07-.73-.11-1.11-.11-3.05,0-5.52,2.48-5.52,5.52s2.47,5.53,5.52,5.53c.38,0,.75-.05,1.11-.12,.22-.04,.44,.08,.52,.28,.08,.21,0,.45-.18,.57Zm17.27-38.18H32.08c-2.94,0-5.32,2.38-5.32,5.32v53.2c0,2.95,2.38,5.32,5.32,5.32v10.64c-2.94,0-5.32,2.38-5.32,5.32s2.38,5.32,5.32,5.32h53.2c8.81,0,15.96-7.14,15.96-15.96V37.4c0-8.81-7.15-15.96-15.96-15.96Zm-41.82,29.96l4.62-4.61v-6.46c0-1.62,1.38-3,3-3h6.46l4.38-4.38c.46-.46,1.39-.93,2.08-.93s1.38,.23,2.08,.93l4.38,4.38h6.46c1.61,0,3,1.38,3,3v6.46l4.61,4.61c.46,.47,.92,1.39,.92,2.08s-.23,1.38-.92,2.08l-4.61,4.38v6.46c0,1.62-1.39,3-3,3h-6.46l-4.38,4.38c-.93,.46-1.62,.93-2.31,.93s-1.39-.23-2.08-.93l-4.38-4.38h-6.46c-1.62,0-3-1.38-3-3v-6.46l-4.39-4.38c-.46-.47-.92-1.39-.92-2.08s.23-1.38,.92-2.08Zm41.82,44.52H42.72v-10.64h42.56c2.94,0,5.32,2.38,5.32,5.32s-2.38,5.32-5.32,5.32Zm-31.43-37.13l-.23,4.61h4.61c.69,0,1.38,.23,2.08,.92l3.23,3.23,3.23-3.23c.46-.46,1.38-.92,2.07-.92h4.62v-4.61c0-.7,.23-1.39,.92-2.08l3.23-3.23-3-3.23c-.46-.46-.92-1.38-.92-2.08v-4.61h-4.62c-.69,0-1.38-.23-2.07-.92l-3.23-3.23-3.23,3.23c-.47,.46-1.39,.92-2.08,.92h-4.61v4.61c0,.7-.23,1.39-.93,2.08l-3.23,3.23,3.23,3.23c.46,.46,.93,1.38,.93,2.08Zm10.12-12.87c1.49,0,2.88,.43,4.04,1.19,.19,.12,.27,.36,.18,.56-.09,.21-.3,.33-.52,.28-.36-.07-.73-.11-1.11-.11-3.05,0-5.52,2.48-5.52,5.52s2.47,5.53,5.52,5.53c.38,0,.75-.05,1.11-.12,.22-.04,.44,.08,.52,.28,.08,.21,0,.45-.18,.57-1.16,.75-2.55,1.19-4.04,1.19-4.11,0-7.45-3.33-7.45-7.45s3.34-7.44,7.45-7.44Z"/><path class="cls-2" d="M69.65,52.94l-1.02,.88,.31,1.31c.08,.32-.27,.58-.56,.4l-1.15-.7-1.15,.7c-.29,.17-.63-.08-.56-.4l.31-1.31-1.02-.88c-.25-.22-.12-.62,.22-.65l1.34-.11,.52-1.25c.13-.31,.56-.31,.69,0l.52,1.25,1.34,.11c.33,.02,.47,.44,.22,.65Z"/></g></g></g></svg>