<?xml version="1.0" encoding="UTF-8"?><svg id="Layer_2" xmlns="http://www.w3.org/2000/svg" viewBox="0 0 128 128"><defs><style>.cls-1{fill:#04a37b;}.cls-2{fill:none;}</style></defs><g id="Layer_1-2"><g><rect class="cls-2" width="128" height="128"/><g><path class="cls-1" d="M43.64,76.4c1.11-.01,1.69-1.32,.95-2.15-4.64-5.25-15.77-19.17-12.97-28.93,1.32-4.6,5.09-7.14,9.29-8.52,7.46-2.45,15.64-1.06,22.01,3.53l35.8,25.76c1.16,.84,1.18,2.56,.04,3.43l-8.92,6.79c-1.02,.78-2.43,.81-3.49,.09l-9.13-6.47c-.67-.46-1.56-.37-2.13,.2l-2.36,2.4c-.68,.69-.65,1.81,.07,2.47l15.39,14.05c1.01,.92,.35,2.6-1.02,2.59l-9.08-.09c-.4,0-.78-.17-1.06-.46l-17.5-18.27c-1.35-1.41-1.21-3.68,.31-4.91l9.25-7.53h0c.6-.7-.18-1.73-1.01-1.33l-12.06,5.69c-1.2,.57-1.68,2.03-1.04,3.19l5.95,10.94c1.53,10.04-3.7,13.12-3.7,13.12l-25.87,.23c-1.24,.01-2.28-.92-2.42-2.15l-.21-1.86c-.08-.75-.91-1.16-1.55-.78l-7.95,4.69c-1.22,.72-2.77-.14-2.8-1.55l-.31-11.95c-.03-1.04,.8-1.89,1.84-1.91l25.7-.31Z"/><path class="cls-1" d="M107.32,91.31h-3.2c-.18,0-.33-.15-.33-.33v-19.37c0-.17,.14-.32,.32-.32h3.21c2.53,0,4.57,2.05,4.57,4.57v10.87c0,2.53-2.05,4.57-4.57,4.57Z"/><path class="cls-1" d="M89.35,79.63l12.56-8.09c.21-.11,.46,.04,.46,.28v19.02c0,.23-.22,.39-.44,.31l-9.29-3.24c-2.21-.77-3.68-2.85-3.68-5.19v-2.44c0-.28,.15-.53,.4-.66Z"/></g></g></g></svg>