<?xml version="1.0" encoding="UTF-8"?><svg id="Layer_2" xmlns="http://www.w3.org/2000/svg" viewBox="0 0 128 128"><defs><style>.cls-1{fill:#04a37b;}.cls-2{fill:none;}</style></defs><g id="Layer_1-2"><g><rect class="cls-2" width="128" height="128"/><g><path class="cls-1" d="M56.69,47.82c5.25,0,11.77-3.67,11.77-10.66,0-6.52-5.45-13.18-11.18-15.63-2.28-.98-4.87,.46-5.25,2.91-.34,2.16-1.09,3.1-2.77,4.66-8.18,7.59-.97,18.72,7.43,18.72Z"/><path class="cls-1" d="M90.6,75.2c-6.28,0-11.4,5.11-11.4,11.4,0,1.33,.23,2.61,.65,3.8,0,0,0,0,0,0h-3.83c.03-.26,.04-.52,.04-.78v-30.4c0-4.2-3.4-7.6-7.6-7.6h-10.01c-.68,0-1.23,.55-1.23,1.24,.01,1.25,0,4.07,0,10.94,0,2.07-1.66,3.76-3.73,3.8-2.13,.04-3.87-1.76-3.87-3.89,0-6.81-.01-9.61,0-10.85,0-.68-.55-1.24-1.23-1.24h-2.73c-4.2,0-7.6,3.4-7.6,7.6v30.4c0,.26,.01,.52,.04,.78h0s-8.3,0-8.3,0c-2.1,0-3.8,1.7-3.8,3.8,0,1.88,1.36,3.43,3.15,3.74,1.76,5.16,6.14,8.83,11.27,8.83h33.28c5.11,0,9.48-3.64,11.25-8.78h5.65c.07,0,.13,0,.2,0,6.19-.11,11.2-5.17,11.2-11.39s-5.11-11.4-11.4-11.4Zm0,15.2c-2.09,0-3.8-1.7-3.8-3.8s1.71-3.8,3.8-3.8,3.8,1.7,3.8,3.8-1.7,3.8-3.8,3.8Z"/></g></g></g></svg>