<?xml version="1.0" encoding="UTF-8"?><svg id="Layer_2" xmlns="http://www.w3.org/2000/svg" viewBox="0 0 128 128"><defs><style>.cls-1{fill:#04a37b;}.cls-2{fill:none;}</style></defs><g id="Layer_1-2"><g><rect class="cls-2" width="128" height="128"/><g><path class="cls-1" d="M86.95,84.43c-2.39-2.39-6.26-2.39-8.65,0-2.39,2.39-2.39,6.26,0,8.65,2.39,2.39,6.26,2.39,8.65,0,2.39-2.39,2.39-6.26,0-8.65Z"/><g><path class="cls-1" d="M90.64,105.68c-2.12,1.11-6.89-3.79-8.01-5.92-1.12-2.12-.3-4.74,1.82-5.86,2.12-1.12,4.75-.3,5.86,1.82,2.47,4.69-3.15,5.19,.33,9.95Z"/><path class="cls-1" d="M88.05,106.56c2.36-.42,3.14-7.22,2.72-9.58-.41-2.36-2.66-3.93-5.02-3.52-2.36,.42-3.94,2.67-3.52,5.03,.92,5.22,5.67,2.18,5.83,8.07Z"/><path class="cls-1" d="M92.25,104.36c-1.51,1.85-7.83-.78-9.69-2.3-1.86-1.51-2.14-4.24-.62-6.1,1.52-1.86,4.25-2.14,6.1-.62,4.11,3.35-.86,6.01,4.21,9.02Z"/><path class="cls-1" d="M85.89,106.47c2.33,.54,5.72-5.41,6.26-7.75,.55-2.33-.91-4.66-3.24-5.21-2.34-.54-4.67,.91-5.21,3.24-1.21,5.16,4.36,4.23,2.19,9.71Z"/></g><path class="cls-1" d="M54.54,27.56c0,3.38,2.74,6.12,6.12,6.12s6.12-2.74,6.12-6.12-2.75-6.12-6.12-6.12-6.12,2.75-6.12,6.12Z"/><path class="cls-1" d="M66.63,29.66c0,3.38,2.74,6.12,6.12,6.12s6.12-2.74,6.12-6.12-2.75-6.12-6.12-6.12-6.12,2.75-6.12,6.12Z"/><path class="cls-1" d="M77.45,34.71c0,3.38,2.74,6.12,6.12,6.12s6.12-2.74,6.12-6.12-2.75-6.12-6.12-6.12-6.12,2.75-6.12,6.12Z"/><path class="cls-1" d="M85.24,43.52c0,3.38,2.74,6.12,6.12,6.12s6.12-2.74,6.12-6.12-2.75-6.12-6.12-6.12-6.12,2.75-6.12,6.12Z"/><path class="cls-1" d="M90.78,54.25c0,3.38,2.74,6.12,6.12,6.12s6.12-2.74,6.12-6.12-2.75-6.12-6.12-6.12-6.12,2.75-6.12,6.12Z"/><path class="cls-1" d="M89.7,66.24c0,3.38,2.74,6.12,6.12,6.12s6.12-2.74,6.12-6.12-2.75-6.12-6.12-6.12-6.12,2.75-6.12,6.12Z"/><path class="cls-1" d="M84.9,76.88c0,3.38,2.74,6.12,6.12,6.12s6.12-2.74,6.12-6.12-2.75-6.12-6.12-6.12-6.12,2.75-6.12,6.12Z"/><path class="cls-1" d="M72.96,77.13c0,3.38,2.74,6.12,6.12,6.12s6.12-2.74,6.12-6.12-2.75-6.12-6.12-6.12-6.12,2.75-6.12,6.12Z"/><path class="cls-1" d="M60.72,77.47c0,3.38,2.74,6.12,6.12,6.12s6.12-2.74,6.12-6.12-2.75-6.12-6.12-6.12-6.12,2.75-6.12,6.12Z"/><path class="cls-1" d="M49.31,81.6c0,3.38,2.74,6.12,6.12,6.12s6.12-2.74,6.12-6.12-2.75-6.12-6.12-6.12-6.12,2.75-6.12,6.12Z"/><path class="cls-1" d="M37.66,77.96c0,3.38,2.74,6.12,6.12,6.12s6.12-2.74,6.12-6.12-2.75-6.12-6.12-6.12-6.12,2.75-6.12,6.12Z"/><path class="cls-1" d="M27.43,71.35c0,3.38,2.74,6.12,6.12,6.12s6.12-2.74,6.12-6.12-2.75-6.12-6.12-6.12-6.12,2.75-6.12,6.12Z"/><path class="cls-1" d="M24.98,59.35c0,3.38,2.74,6.12,6.12,6.12s6.12-2.74,6.12-6.12-2.75-6.12-6.12-6.12-6.12,2.75-6.12,6.12Z"/><path class="cls-1" d="M24.98,47.25c0,3.38,2.74,6.12,6.12,6.12s6.12-2.74,6.12-6.12-2.75-6.12-6.12-6.12-6.12,2.75-6.12,6.12Z"/><path class="cls-1" d="M32.5,37.62c0,3.38,2.74,6.12,6.12,6.12s6.12-2.74,6.12-6.12-2.75-6.12-6.12-6.12-6.12,2.75-6.12,6.12Z"/><path class="cls-1" d="M41.68,29.17c0,3.55,2.88,6.44,6.43,6.44s6.44-2.88,6.44-6.44-2.89-6.43-6.44-6.43-6.43,2.89-6.43,6.43Z"/></g></g></g></svg>