<?xml version="1.0" encoding="UTF-8"?><svg id="Layer_2" xmlns="http://www.w3.org/2000/svg" viewBox="0 0 128 128"><defs><style>.cls-1{fill:#04a37b;}.cls-2{fill:none;}</style></defs><g id="Layer_1-2"><g><rect class="cls-2" width="128" height="128"/><g><path class="cls-1" d="M92.32,58.73v11.07c0,.53-.08,1.04-.23,1.51-.64,2.08-2.57,3.58-4.86,3.58h-.45c-2.81,0-5.09-2.28-5.09-5.09v-11.07c0-2.81,2.28-5.09,5.09-5.09h.45c2.28,0,4.22,1.51,4.86,3.58,.15,.48,.23,.99,.23,1.52Z"/><path class="cls-1" d="M73.72,48.32c-2.93,0-5.31,2.38-5.31,5.31v5.93c0,.83,.27,1.64,.8,2.28,1.15,1.38,1.86,3.14,1.86,5.08,0,1.57-.47,3.03-1.26,4.25-.45,.7-.35,1.63,.24,2.21,.97,.95,2.28,1.5,3.68,1.5,2.93,0,5.31-2.38,5.31-5.31v-15.94c0-2.93-2.38-5.31-5.31-5.31h0Z"/><path class="cls-1" d="M92.09,78.45v10.09c0,10.07-8.17,18.24-18.24,18.24h-19.93c-10.07,0-18.24-8.17-18.24-18.24v-15.91c0-2.46,.36-4.9,1.08-7.26h0c.03-.09,.08-.16,.11-.25,.12-.34,.27-.65,.46-.96,.18-.29,.39-.57,.62-.82,.23-.25,.48-.47,.75-.67,.27-.2,.57-.38,.87-.52,.63-.31,1.33-.48,2.03-.51,.08,0,.16-.03,.25-.03h21.25c3.05,0,5.51,2.58,5.3,5.67-.19,2.82-2.66,4.95-5.49,4.95h-14.42c-.78,0-1.41,.67-1.32,1.47,.07,.69,.7,1.19,1.39,1.19h.26c7.14,0,12.95,8.35,12.95,18.6,0,.78,.67,1.4,1.46,1.32,.69-.07,1.2-.69,1.2-1.39-.02-7.29-2.74-13.73-6.88-17.54-.39-.35-.15-.99,.38-.99h5.18c1.63,0,2.73-.4,3.34-.71,.34-.17,.75-.08,.98,.22,.62,.78,1.37,1.45,2.22,1.97,.22,.13,.44,.23,.66,.34,.35,.17,.72,.31,1.09,.44,.17,.06,.34,.11,.52,.15,.59,.15,1.18,.24,1.81,.24,.62,0,1.23-.08,1.83-.24,.18-.04,.35-.11,.53-.16,.77-.24,1.5-.59,2.17-1.05,.14-.09,.35-.27,.48-.37,.16-.13,.31-.24,.45-.38,.02-.02,.04-.04,.06-.06,.6-.59,1.59-.52,2.19,.06,1.43,1.38,3.37,2.19,5.41,2.19h.33c.95,0,1.88-.18,2.75-.52,1.05-.4,2.17,.33,2.17,1.41Z"/><path class="cls-1" d="M65.75,57.2v-3.39c0-2.83-2.14-5.3-4.96-5.48-3.09-.2-5.67,2.25-5.67,5.3v3.57c0,.96,.78,1.75,1.75,1.75h7.13c.96,0,1.75-.78,1.75-1.75Z"/><path class="cls-1" d="M51.97,26.57l-.09,30.71c0,.92-.83,1.67-1.84,1.67h-8c-1.02,0-1.84-.75-1.84-1.67l.08-30.76s.03-5.31,5.88-5.28c5.79,.03,5.82,5.23,5.82,5.35Z"/></g></g></g></svg>