<?xml version="1.0" encoding="UTF-8"?><svg id="Layer_2" xmlns="http://www.w3.org/2000/svg" viewBox="0 0 128 128"><defs><style>.cls-1,.cls-2{fill:#04a37b;}.cls-3{fill:none;}.cls-2{fill-rule:evenodd;}</style></defs><g id="Layer_1-2"><g><rect class="cls-3" width="128" height="128"/><g><path class="cls-1" d="M90,64.11c-7.63,3.64-10.47,15.17-18.11,18.8-4.15,1.98-9.4,2.36-13.33,2.3-1.15-.02-1.38-1.64-.28-1.97,3.69-1.13,8.49-2.72,11.73-4.26,5.94-2.83,6.67-5.66,5.36-8.41-1.86-3.89-6.78-3.9-10.44-3.26-10.37,1.81-24.16,3.54-34.84,6.89-1.92,.6-3,2.64-2.41,4.56,1.92,6.26,5.95,19.52,7.67,25.2,.49,1.6,1.99,2.67,3.66,2.59,6.16-.28,12.32-1.07,18.39-2.07,5.75-.95,11.61-1.87,16.97-4.26,5.37-2.39,9.36-6.48,13.11-10.89,3.77-4.43,7.18-9.26,9.97-14.37,1.16-2.13,2.56-4.59,2.95-7.01,.39-2.41-1.6-4.23-3.79-4.78s-4.61-.03-6.63,.93Z"/><path class="cls-2" d="M73.85,41.85c0,7.55-6.12,13.66-13.66,13.66-3.59,0-6.85-1.38-9.29-3.64-.35-.33-.22-.92,.24-1.07,5.61-1.85,9.61-7.14,9.61-13.32,0-4.27-2.02-8.25-4.7-11.59-.36-.45-.32-1.1,.09-1.5,1.3-1.26,2.33-2.13,2.76-2.48,.75-.62,1.81-.62,2.57,0,.83,.68,3.87,3.25,6.71,6.79,2.8,3.48,5.67,8.21,5.67,13.15Z"/><path class="cls-2" d="M55.28,37.48c0,4.58-3.59,8.31-8.1,8.55-.15,0-.3,.01-.45,.01-4.73,0-8.56-3.83-8.56-8.56,0-3.09,1.79-6.05,3.55-8.24,1.78-2.22,3.69-3.83,4.2-4.25,.24-.19,.52-.29,.8-.29s.57,.1,.8,.29c.52,.42,2.42,2.04,4.2,4.25,0,0,0,.01,.01,.02,1.75,2.18,3.54,5.13,3.54,8.22Z"/></g></g></g></svg>