<?xml version="1.0" encoding="UTF-8"?><svg id="Layer_2" xmlns="http://www.w3.org/2000/svg" viewBox="0 0 128 128"><defs><style>.cls-1{fill:#04a37b;}.cls-2{fill:none;}</style></defs><g id="Layer_1-2"><g><rect class="cls-2" width="128" height="128"/><g><path class="cls-1" d="M37.18,65.01c7.87-3.75,10.8-15.64,18.67-19.39,4.28-2.04,9.69-2.44,13.75-2.37,1.19,.02,1.42,1.69,.29,2.04-3.81,1.16-8.76,2.8-12.1,4.4-6.12,2.92-6.87,5.84-5.53,8.67,1.91,4.02,6.99,4.02,10.76,3.36,10.69-1.87,24.92-3.65,35.93-7.11,1.98-.62,3.09-2.72,2.48-4.7-1.98-6.45-6.13-20.13-7.91-25.99-.5-1.65-2.05-2.75-3.77-2.67-6.35,.29-12.71,1.11-18.96,2.14-5.92,.98-11.97,1.93-17.5,4.4s-9.65,6.68-13.52,11.23c-3.89,4.57-7.41,9.55-10.29,14.82-1.2,2.19-2.64,4.74-3.05,7.23-.4,2.49,1.65,4.36,3.91,4.93s4.76,.03,6.83-.96Z"/><g><path class="cls-1" d="M57.46,105.28c.61,.5,.26,1.49-.53,1.49-3.64,.04-7.29-1.39-9.99-4.24-5.14-5.44-4.89-14.01,.55-19.15,2.06-1.95,4.58-3.12,7.18-3.53,.78-.12,1.29,.79,.77,1.39-6.15,7.03-5.33,18.03,2.02,24.04Z"/><path class="cls-1" d="M69.14,103.08c-.8,.76-1.67,1.39-2.58,1.92-1.91-.7-3.7-1.84-5.19-3.42-5.14-5.44-4.89-14.01,.55-19.15,.8-.76,1.67-1.4,2.58-1.92,1.91,.7,3.7,1.84,5.19,3.42,5.14,5.44,4.89,14.01-.55,19.15Z"/><path class="cls-1" d="M80.51,102.12c-2.62,2.47-5.96,3.7-9.3,3.7-1.58,0-3.16-.28-4.66-.82-1.91-.7-3.7-1.84-5.19-3.42-5.14-5.44-4.89-14.01,.55-19.15,.8-.76,1.67-1.4,2.58-1.92,2.08-1.19,4.4-1.78,6.71-1.78,3.6,0,7.19,1.42,9.85,4.25,5.14,5.44,4.89,14.01-.55,19.15Z"/></g></g></g></g></svg>