<?xml version="1.0" encoding="UTF-8"?><svg id="Layer_2" xmlns="http://www.w3.org/2000/svg" viewBox="0 0 256 256"><defs><style>.cls-1{fill:#04a37b;}.cls-2{fill:none;}</style></defs><g id="Layer_1-2"><g><rect class="cls-2" width="256" height="256"/><g><path class="cls-1" d="M111.55,166.05c-2.52,10.86-13.36,17.62-24.22,15.1l-21.49-4.98c-24.57-5.43-20.13-34.9-20.08-35.26h0c-.65-5.87-1.58-14.02-2.84-24.63-.4-3.36,2.11-6.39,5.54-6.57,3.07-.16,5.64,2.23,6.07,4.89,.28,1.73,.47,4.1,.58,4.84h0c.07,.7-1.65,17.02,12.67,20.93,9.44,2.19,12.05,13.9,9.85,23.43-.19,.84,.37,1.68,1.24,1.79,.76,.1,1.47-.45,1.64-1.2,1.8-7.86,.47-15.48-3.03-20.63-.05-.07-.08-.14-.1-.21-.4-.78-2.22-3.59-8.76-5.99-.02,0-.1-.04-.25-.08-5.97-2.22-8.36-6.59-9.39-10.5-.87-3.31-.88-6.79-.1-10.13l7.33-31.6c.74-3.2,3.96-5.17,7.15-4.38,3.13,.78,5.01,3.99,4.28,7.13l-8.14,35.08c-.31,1.35,.51,2.77,2.01,3.08,1.36,.28,2.68-.61,3-1.96l10.51-45.33c.74-3.2,3.96-5.17,7.15-4.38,3.13,.78,5.01,3.99,4.28,7.13l-10.51,45.29c-.32,1.37,.53,2.74,1.9,3.06,1.38,.34,2.77-.52,3.09-1.9l8.82-38.01c.74-3.2,3.96-5.17,7.15-4.38,3.13,.78,5.01,3.99,4.28,7.13l-8.79,37.91c-.32,1.37,.54,2.74,1.9,3.06h.03c1.37,.33,2.73-.53,3.05-1.9l5.26-22.68c.73-3.14,3.83-5.19,6.98-4.52,3.22,.69,5.24,3.88,4.5,7.08l-12.58,54.28Z"/><path class="cls-1" d="M144.45,166.05c2.52,10.86,13.36,17.62,24.22,15.1l21.49-4.98c24.57-5.43,20.13-34.9,20.08-35.26h0c.65-5.87,1.58-14.02,2.84-24.63,.4-3.36-2.11-6.39-5.54-6.57-3.07-.16-5.64,2.23-6.07,4.89-.28,1.73-.47,4.1-.58,4.84h0c-.07,.7,1.65,17.02-12.67,20.93-9.44,2.19-12.05,13.9-9.85,23.43,.19,.84-.37,1.68-1.24,1.79-.76,.1-1.47-.45-1.64-1.2-1.8-7.86-.47-15.48,3.03-20.63,.05-.07,.08-.14,.1-.21,.4-.78,2.22-3.59,8.76-5.99,.02,0,.1-.04,.25-.08,5.97-2.22,8.36-6.59,9.39-10.5,.87-3.31,.88-6.79,.1-10.13l-7.33-31.6c-.74-3.2-3.96-5.17-7.15-4.38-3.13,.78-5.01,3.99-4.28,7.13l8.14,35.08c.31,1.35-.51,2.77-2.01,3.08-1.36,.28-2.68-.61-3-1.96l-10.51-45.33c-.74-3.2-3.96-5.17-7.15-4.38-3.13,.78-5.01,3.99-4.28,7.13l10.51,45.29c.32,1.37-.53,2.74-1.9,3.06-1.38,.34-2.77-.52-3.09-1.9l-8.82-38.01c-.74-3.2-3.96-5.17-7.15-4.38-3.13,.78-5.01,3.99-4.28,7.13l8.79,37.91c.32,1.37-.54,2.74-1.9,3.06h-.03c-1.37,.33-2.73-.53-3.05-1.9l-5.26-22.68c-.73-3.14-3.83-5.19-6.98-4.52-3.22,.69-5.24,3.88-4.5,7.08l12.58,54.28Z"/></g></g></g></svg>