<?xml version="1.0" encoding="UTF-8"?><svg id="Layer_2" xmlns="http://www.w3.org/2000/svg" viewBox="0 0 256 256"><defs><style>.cls-1{fill:#04a37b;}.cls-2{fill:none;}</style></defs><g id="Layer_1-2"><g><rect class="cls-2" width="256" height="256"/><g><path class="cls-1" d="M83.89,151.72h88.25c3.35,0,6.49-1.69,8.31-4.51,2.9-4.49,4.57-9.85,4.57-15.61,0-9.43-4.61-18.34-12.53-23.6-1.51-.99-2.96-1.97-4.39-2.91-12.07-7.98-22.07-14.57-30.43-23.31-2.09-2.38-5.38-7.04-6.39-13.68v-.06c1.47-.13,2.93-.48,4.31-1.08,3.41-1.47,6.04-4.2,7.41-7.68,.59-1.49-.14-3.16-1.63-3.75-1.48-.58-3.16,.14-3.75,1.63-.81,2.04-2.34,3.64-4.33,4.49-2.09,.9-4.39,.9-6.47,0-2.08-.91-3.64-2.59-4.4-4.74-1.12-3.18-.14-6.76,2.45-8.93,1.22-1.02,1.39-2.85,.36-4.07-1.02-1.22-2.85-1.39-4.07-.36-4.43,3.71-6.12,9.85-4.19,15.29,1.28,3.62,4.03,6.57,7.54,8.1,.07,.03,.14,.06,.22,.09v1.07s-.25,6.38-5.36,12.58c-.95,1.03-1.91,2.02-2.9,2.99-.16,.14-.3,.28-.42,.42-7.89,7.63-17.15,13.74-28.14,21-1.43,.96-2.91,1.92-4.39,2.91-7.95,5.26-12.53,14.17-12.53,23.6,0,5.74,1.69,11.1,4.58,15.6,1.82,2.83,4.96,4.52,8.32,4.52Z"/><path class="cls-1" d="M185.02,160.49H70.98c-4.84,0-8.77,3.93-8.77,8.77v35.09c0,4.84,3.93,8.77,8.77,8.77h7.29c3.24,0,5.86-2.63,5.86-5.86v-13.87c0-3.67,2.98-6.62,6.66-6.58,3.62,.04,6.5,3.06,6.5,6.68v13.75c0,3.25,2.63,5.88,5.88,5.88h5.78c3.25,0,5.88-2.63,5.88-5.88v-10.02c0-5.21,2.3-10.14,6.3-13.49l6.85-5.7,6.85,5.7c4,3.34,6.3,8.28,6.3,13.49v10.02c0,3.25,2.63,5.88,5.88,5.88h5.78c3.25,0,5.88-2.63,5.88-5.88v-13.86c0-3.67,2.98-6.62,6.66-6.58,3.62,.04,6.5,3.06,6.5,6.68v13.77c0,3.24,2.63,5.86,5.86,5.86h7.29c4.84,0,8.77-3.93,8.77-8.77v-35.09c0-4.84-3.93-8.77-8.77-8.77Z"/></g></g></g></svg>