<?xml version="1.0" encoding="UTF-8"?><svg id="Layer_2" xmlns="http://www.w3.org/2000/svg" viewBox="0 0 256 256"><defs><style>.cls-1{fill:#04a37b;}.cls-2{fill:none;}</style></defs><g id="Layer_1-2"><g><rect class="cls-2" width="256" height="256"/><path class="cls-1" d="M149.22,100.49c-.92-.92-1.84-2.76-1.84-4.15v-9.23h-9.23c-1.39,0-2.77-.46-4.15-1.84l-6.47-6.46-6.46,6.46c-.92,.92-2.76,1.84-4.15,1.84h-9.23v9.23c0,1.39-.46,2.77-1.84,4.15l-6.46,6.47,6.46,6.45c.92,.93,1.84,2.77,1.84,4.16l-.46,9.23h9.23c1.38,0,2.77,.46,4.15,1.84l6.46,6.46,6.47-6.46c.92-.92,2.76-1.84,4.15-1.84h9.22v-9.23c0-1.39,.47-2.77,1.85-4.16l6.46-6.45-6-6.47Zm-13.2,18.74c-2.32,1.52-5.1,2.39-8.08,2.39-8.23,0-14.9-6.67-14.9-14.9s6.67-14.89,14.9-14.89c2.98,0,5.76,.87,8.08,2.39,.39,.24,.54,.72,.36,1.12-.17,.41-.6,.66-1.04,.56-.72-.14-1.46-.22-2.21-.22-6.1,0-11.05,4.95-11.05,11.04s4.95,11.05,11.05,11.05c.75,0,1.5-.09,2.21-.22,.44-.1,.88,.15,1.04,.55,.17,.41,.02,.89-.36,1.13Zm3.27-13.36l-2.04,1.76,.62,2.63c.15,.64-.54,1.15-1.11,.8l-2.31-1.4-2.3,1.4c-.57,.35-1.27-.16-1.12-.8l.63-2.63-2.05-1.76c-.5-.43-.23-1.24,.43-1.3l2.69-.22,1.04-2.49c.25-.62,1.11-.62,1.37,0l1.03,2.49,2.69,.22c.67,.05,.93,.87,.43,1.3Zm9.93-5.38c-.92-.92-1.84-2.76-1.84-4.15v-9.23h-9.23c-1.39,0-2.77-.46-4.15-1.84l-6.47-6.46-6.46,6.46c-.92,.92-2.76,1.84-4.15,1.84h-9.23v9.23c0,1.39-.46,2.77-1.84,4.15l-6.46,6.47,6.46,6.45c.92,.93,1.84,2.77,1.84,4.16l-.46,9.23h9.23c1.38,0,2.77,.46,4.15,1.84l6.46,6.46,6.47-6.46c.92-.92,2.76-1.84,4.15-1.84h9.22v-9.23c0-1.39,.47-2.77,1.85-4.16l6.46-6.45-6-6.47Zm-13.2,18.74c-2.32,1.52-5.1,2.39-8.08,2.39-8.23,0-14.9-6.67-14.9-14.9s6.67-14.89,14.9-14.89c2.98,0,5.76,.87,8.08,2.39,.39,.24,.54,.72,.36,1.12-.17,.41-.6,.66-1.04,.56-.72-.14-1.46-.22-2.21-.22-6.1,0-11.05,4.95-11.05,11.04s4.95,11.05,11.05,11.05c.75,0,1.5-.09,2.21-.22,.44-.1,.88,.15,1.04,.55,.17,.41,.02,.89-.36,1.13Zm3.27-13.36l-2.04,1.76,.62,2.63c.15,.64-.54,1.15-1.11,.8l-2.31-1.4-2.3,1.4c-.57,.35-1.27-.16-1.12-.8l.63-2.63-2.05-1.76c-.5-.43-.23-1.24,.43-1.3l2.69-.22,1.04-2.49c.25-.62,1.11-.62,1.37,0l1.03,2.49,2.69,.22c.67,.05,.93,.87,.43,1.3Zm9.93-5.38c-.92-.92-1.84-2.76-1.84-4.15v-9.23h-9.23c-1.39,0-2.77-.46-4.15-1.84l-6.47-6.46-6.46,6.46c-.92,.92-2.76,1.84-4.15,1.84h-9.23v9.23c0,1.39-.46,2.77-1.84,4.15l-6.46,6.47,6.46,6.45c.92,.93,1.84,2.77,1.84,4.16l-.46,9.23h9.23c1.38,0,2.77,.46,4.15,1.84l6.46,6.46,6.47-6.46c.92-.92,2.76-1.84,4.15-1.84h9.22v-9.23c0-1.39,.47-2.77,1.85-4.16l6.46-6.45-6-6.47Zm-13.2,18.74c-2.32,1.52-5.1,2.39-8.08,2.39-8.23,0-14.9-6.67-14.9-14.9s6.67-14.89,14.9-14.89c2.98,0,5.76,.87,8.08,2.39,.39,.24,.54,.72,.36,1.12-.17,.41-.6,.66-1.04,.56-.72-.14-1.46-.22-2.21-.22-6.1,0-11.05,4.95-11.05,11.04s4.95,11.05,11.05,11.05c.75,0,1.5-.09,2.21-.22,.44-.1,.88,.15,1.04,.55,.17,.41,.02,.89-.36,1.13Zm3.27-13.36l-2.04,1.76,.62,2.63c.15,.64-.54,1.15-1.11,.8l-2.31-1.4-2.3,1.4c-.57,.35-1.27-.16-1.12-.8l.63-2.63-2.05-1.76c-.5-.43-.23-1.24,.43-1.3l2.69-.22,1.04-2.49c.25-.62,1.11-.62,1.37,0l1.03,2.49,2.69,.22c.67,.05,.93,.87,.43,1.3Zm9.93-5.38c-.92-.92-1.84-2.76-1.84-4.15v-9.23h-9.23c-1.39,0-2.77-.46-4.15-1.84l-6.47-6.46-6.46,6.46c-.92,.92-2.76,1.84-4.15,1.84h-9.23v9.23c0,1.39-.46,2.77-1.84,4.15l-6.46,6.47,6.46,6.45c.92,.93,1.84,2.77,1.84,4.16l-.46,9.23h9.23c1.38,0,2.77,.46,4.15,1.84l6.46,6.46,6.47-6.46c.92-.92,2.76-1.84,4.15-1.84h9.22v-9.23c0-1.39,.47-2.77,1.85-4.16l6.46-6.45-6-6.47Zm-13.2,18.74c-2.32,1.52-5.1,2.39-8.08,2.39-8.23,0-14.9-6.67-14.9-14.9s6.67-14.89,14.9-14.89c2.98,0,5.76,.87,8.08,2.39,.39,.24,.54,.72,.36,1.12-.17,.41-.6,.66-1.04,.56-.72-.14-1.46-.22-2.21-.22-6.1,0-11.05,4.95-11.05,11.04s4.95,11.05,11.05,11.05c.75,0,1.5-.09,2.21-.22,.44-.1,.88,.15,1.04,.55,.17,.41,.02,.89-.36,1.13Zm3.27-13.36l-2.04,1.76,.62,2.63c.15,.64-.54,1.15-1.11,.8l-2.31-1.4-2.3,1.4c-.57,.35-1.27-.16-1.12-.8l.63-2.63-2.05-1.76c-.5-.43-.23-1.24,.43-1.3l2.69-.22,1.04-2.49c.25-.62,1.11-.62,1.37,0l1.03,2.49,2.69,.22c.67,.05,.93,.87,.43,1.3Zm9.93-5.38c-.92-.92-1.84-2.76-1.84-4.15v-9.23h-9.23c-1.39,0-2.77-.46-4.15-1.84l-6.47-6.46-6.46,6.46c-.92,.92-2.76,1.84-4.15,1.84h-9.23v9.23c0,1.39-.46,2.77-1.84,4.15l-6.46,6.47,6.46,6.45c.92,.93,1.84,2.77,1.84,4.16l-.46,9.23h9.23c1.38,0,2.77,.46,4.15,1.84l6.46,6.46,6.47-6.46c.92-.92,2.76-1.84,4.15-1.84h9.22v-9.23c0-1.39,.47-2.77,1.85-4.16l6.46-6.45-6-6.47Zm-13.2,18.74c-2.32,1.52-5.1,2.39-8.08,2.39-8.23,0-14.9-6.67-14.9-14.9s6.67-14.89,14.9-14.89c2.98,0,5.76,.87,8.08,2.39,.39,.24,.54,.72,.36,1.12-.17,.41-.6,.66-1.04,.56-.72-.14-1.46-.22-2.21-.22-6.1,0-11.05,4.95-11.05,11.04s4.95,11.05,11.05,11.05c.75,0,1.5-.09,2.21-.22,.44-.1,.88,.15,1.04,.55,.17,.41,.02,.89-.36,1.13Zm3.27-13.36l-2.04,1.76,.62,2.63c.15,.64-.54,1.15-1.11,.8l-2.31-1.4-2.3,1.4c-.57,.35-1.27-.16-1.12-.8l.63-2.63-2.05-1.76c-.5-.43-.23-1.24,.43-1.3l2.69-.22,1.04-2.49c.25-.62,1.11-.62,1.37,0l1.03,2.49,2.69,.22c.67,.05,.93,.87,.43,1.3Zm9.93-5.38c-.92-.92-1.84-2.76-1.84-4.15v-9.23h-9.23c-1.39,0-2.77-.46-4.15-1.84l-6.47-6.46-6.46,6.46c-.92,.92-2.76,1.84-4.15,1.84h-9.23v9.23c0,1.39-.46,2.77-1.84,4.15l-6.46,6.47,6.46,6.45c.92,.93,1.84,2.77,1.84,4.16l-.46,9.23h9.23c1.38,0,2.77,.46,4.15,1.84l6.46,6.46,6.47-6.46c.92-.92,2.76-1.84,4.15-1.84h9.22v-9.23c0-1.39,.47-2.77,1.85-4.16l6.46-6.45-6-6.47Zm-13.2,18.74c-2.32,1.52-5.1,2.39-8.08,2.39-8.23,0-14.9-6.67-14.9-14.9s6.67-14.89,14.9-14.89c2.98,0,5.76,.87,8.08,2.39,.39,.24,.54,.72,.36,1.12-.17,.41-.6,.66-1.04,.56-.72-.14-1.46-.22-2.21-.22-6.1,0-11.05,4.95-11.05,11.04s4.95,11.05,11.05,11.05c.75,0,1.5-.09,2.21-.22,.44-.1,.88,.15,1.04,.55,.17,.41,.02,.89-.36,1.13Zm3.27-13.36l-2.04,1.76,.62,2.63c.15,.64-.54,1.15-1.11,.8l-2.31-1.4-2.3,1.4c-.57,.35-1.27-.16-1.12-.8l.63-2.63-2.05-1.76c-.5-.43-.23-1.24,.43-1.3l2.69-.22,1.04-2.49c.25-.62,1.11-.62,1.37,0l1.03,2.49,2.69,.22c.67,.05,.93,.87,.43,1.3Zm31.27-62.99H64.16c-5.89,0-10.64,4.76-10.64,10.64v106.4c0,5.89,4.75,10.64,10.64,10.64v21.28c-5.89,0-10.64,4.76-10.64,10.64s4.75,10.64,10.64,10.64h106.4c17.62,0,31.92-14.29,31.92-31.92V74.8c0-17.62-14.3-31.92-31.92-31.92Zm-83.63,59.92l9.23-9.22v-12.93c0-3.23,2.76-5.99,6-5.99h12.92l8.76-8.77c.93-.92,2.77-1.85,4.16-1.85s2.76,.46,4.15,1.85l8.76,8.77h12.93c3.23,0,5.99,2.76,5.99,5.99v12.93l9.23,9.22c.93,.93,1.85,2.77,1.85,4.16s-.46,2.76-1.85,4.15l-9.23,8.76v12.92c0,3.24-2.76,6-5.99,6h-12.93l-8.76,8.77c-1.85,.92-3.23,1.85-4.62,1.85s-2.76-.46-4.15-1.85l-8.76-8.77h-12.92c-3.24,0-6-2.76-6-6v-12.92l-8.77-8.76c-.92-.93-1.85-2.77-1.85-4.15s.46-2.77,1.85-4.16Zm83.63,89.04H85.44v-21.28h85.12c5.88,0,10.64,4.76,10.64,10.64s-4.76,10.64-10.64,10.64Zm-62.87-74.27l-.46,9.23h9.23c1.38,0,2.77,.46,4.15,1.84l6.46,6.46,6.47-6.46c.92-.92,2.76-1.84,4.15-1.84h9.22v-9.23c0-1.39,.47-2.77,1.85-4.16l6.46-6.45-6-6.47c-.92-.92-1.84-2.76-1.84-4.15v-9.23h-9.23c-1.39,0-2.77-.46-4.15-1.84l-6.47-6.46-6.46,6.46c-.92,.92-2.76,1.84-4.15,1.84h-9.23v9.23c0,1.39-.46,2.77-1.84,4.15l-6.46,6.47,6.46,6.45c.92,.93,1.84,2.77,1.84,4.16Zm31.17-13c.67,.05,.93,.87,.43,1.3l-2.04,1.76,.62,2.63c.15,.64-.54,1.15-1.11,.8l-2.31-1.4-2.3,1.4c-.57,.35-1.27-.16-1.12-.8l.63-2.63-2.05-1.76c-.5-.43-.23-1.24,.43-1.3l2.69-.22,1.04-2.49c.25-.62,1.11-.62,1.37,0l1.03,2.49,2.69,.22Zm-10.92-12.74c2.98,0,5.76,.87,8.08,2.39,.39,.24,.54,.72,.36,1.12-.17,.41-.6,.66-1.04,.56-.72-.14-1.46-.22-2.21-.22-6.1,0-11.05,4.95-11.05,11.04s4.95,11.05,11.05,11.05c.75,0,1.5-.09,2.21-.22,.44-.1,.88,.15,1.04,.55,.17,.41,.02,.89-.36,1.13-2.32,1.52-5.1,2.39-8.08,2.39-8.23,0-14.9-6.67-14.9-14.9s6.67-14.89,14.9-14.89Zm21.28,8.66c-.92-.92-1.84-2.76-1.84-4.15v-9.23h-9.23c-1.39,0-2.77-.46-4.15-1.84l-6.47-6.46-6.46,6.46c-.92,.92-2.76,1.84-4.15,1.84h-9.23v9.23c0,1.39-.46,2.77-1.84,4.15l-6.46,6.47,6.46,6.45c.92,.93,1.84,2.77,1.84,4.16l-.46,9.23h9.23c1.38,0,2.77,.46,4.15,1.84l6.46,6.46,6.47-6.46c.92-.92,2.76-1.84,4.15-1.84h9.22v-9.23c0-1.39,.47-2.77,1.85-4.16l6.46-6.45-6-6.47Zm-13.2,18.74c-2.32,1.52-5.1,2.39-8.08,2.39-8.23,0-14.9-6.67-14.9-14.9s6.67-14.89,14.9-14.89c2.98,0,5.76,.87,8.08,2.39,.39,.24,.54,.72,.36,1.12-.17,.41-.6,.66-1.04,.56-.72-.14-1.46-.22-2.21-.22-6.1,0-11.05,4.95-11.05,11.04s4.95,11.05,11.05,11.05c.75,0,1.5-.09,2.21-.22,.44-.1,.88,.15,1.04,.55,.17,.41,.02,.89-.36,1.13Zm3.27-13.36l-2.04,1.76,.62,2.63c.15,.64-.54,1.15-1.11,.8l-2.31-1.4-2.3,1.4c-.57,.35-1.27-.16-1.12-.8l.63-2.63-2.05-1.76c-.5-.43-.23-1.24,.43-1.3l2.69-.22,1.04-2.49c.25-.62,1.11-.62,1.37,0l1.03,2.49,2.69,.22c.67,.05,.93,.87,.43,1.3Zm9.93-5.38c-.92-.92-1.84-2.76-1.84-4.15v-9.23h-9.23c-1.39,0-2.77-.46-4.15-1.84l-6.47-6.46-6.46,6.46c-.92,.92-2.76,1.84-4.15,1.84h-9.23v9.23c0,1.39-.46,2.77-1.84,4.15l-6.46,6.47,6.46,6.45c.92,.93,1.84,2.77,1.84,4.16l-.46,9.23h9.23c1.38,0,2.77,.46,4.15,1.84l6.46,6.46,6.47-6.46c.92-.92,2.76-1.84,4.15-1.84h9.22v-9.23c0-1.39,.47-2.77,1.85-4.16l6.46-6.45-6-6.47Zm-13.2,18.74c-2.32,1.52-5.1,2.39-8.08,2.39-8.23,0-14.9-6.67-14.9-14.9s6.67-14.89,14.9-14.89c2.98,0,5.76,.87,8.08,2.39,.39,.24,.54,.72,.36,1.12-.17,.41-.6,.66-1.04,.56-.72-.14-1.46-.22-2.21-.22-6.1,0-11.05,4.95-11.05,11.04s4.95,11.05,11.05,11.05c.75,0,1.5-.09,2.21-.22,.44-.1,.88,.15,1.04,.55,.17,.41,.02,.89-.36,1.13Zm3.27-13.36l-2.04,1.76,.62,2.63c.15,.64-.54,1.15-1.11,.8l-2.31-1.4-2.3,1.4c-.57,.35-1.27-.16-1.12-.8l.63-2.63-2.05-1.76c-.5-.43-.23-1.24,.43-1.3l2.69-.22,1.04-2.49c.25-.62,1.11-.62,1.37,0l1.03,2.49,2.69,.22c.67,.05,.93,.87,.43,1.3Zm9.93-5.38c-.92-.92-1.84-2.76-1.84-4.15v-9.23h-9.23c-1.39,0-2.77-.46-4.15-1.84l-6.47-6.46-6.46,6.46c-.92,.92-2.76,1.84-4.15,1.84h-9.23v9.23c0,1.39-.46,2.77-1.84,4.15l-6.46,6.47,6.46,6.45c.92,.93,1.84,2.77,1.84,4.16l-.46,9.23h9.23c1.38,0,2.77,.46,4.15,1.84l6.46,6.46,6.47-6.46c.92-.92,2.76-1.84,4.15-1.84h9.22v-9.23c0-1.39,.47-2.77,1.85-4.16l6.46-6.45-6-6.47Zm-13.2,18.74c-2.32,1.52-5.1,2.39-8.08,2.39-8.23,0-14.9-6.67-14.9-14.9s6.67-14.89,14.9-14.89c2.98,0,5.76,.87,8.08,2.39,.39,.24,.54,.72,.36,1.12-.17,.41-.6,.66-1.04,.56-.72-.14-1.46-.22-2.21-.22-6.1,0-11.05,4.95-11.05,11.04s4.95,11.05,11.05,11.05c.75,0,1.5-.09,2.21-.22,.44-.1,.88,.15,1.04,.55,.17,.41,.02,.89-.36,1.13Zm3.27-13.36l-2.04,1.76,.62,2.63c.15,.64-.54,1.15-1.11,.8l-2.31-1.4-2.3,1.4c-.57,.35-1.27-.16-1.12-.8l.63-2.63-2.05-1.76c-.5-.43-.23-1.24,.43-1.3l2.69-.22,1.04-2.49c.25-.62,1.11-.62,1.37,0l1.03,2.49,2.69,.22c.67,.05,.93,.87,.43,1.3Zm9.93-5.38c-.92-.92-1.84-2.76-1.84-4.15v-9.23h-9.23c-1.39,0-2.77-.46-4.15-1.84l-6.47-6.46-6.46,6.46c-.92,.92-2.76,1.84-4.15,1.84h-9.23v9.23c0,1.39-.46,2.77-1.84,4.15l-6.46,6.47,6.46,6.45c.92,.93,1.84,2.77,1.84,4.16l-.46,9.23h9.23c1.38,0,2.77,.46,4.15,1.84l6.46,6.46,6.47-6.46c.92-.92,2.76-1.84,4.15-1.84h9.22v-9.23c0-1.39,.47-2.77,1.85-4.16l6.46-6.45-6-6.47Zm-13.2,18.74c-2.32,1.52-5.1,2.39-8.08,2.39-8.23,0-14.9-6.67-14.9-14.9s6.67-14.89,14.9-14.89c2.98,0,5.76,.87,8.08,2.39,.39,.24,.54,.72,.36,1.12-.17,.41-.6,.66-1.04,.56-.72-.14-1.46-.22-2.21-.22-6.1,0-11.05,4.95-11.05,11.04s4.95,11.05,11.05,11.05c.75,0,1.5-.09,2.21-.22,.44-.1,.88,.15,1.04,.55,.17,.41,.02,.89-.36,1.13Zm3.27-13.36l-2.04,1.76,.62,2.63c.15,.64-.54,1.15-1.11,.8l-2.31-1.4-2.3,1.4c-.57,.35-1.27-.16-1.12-.8l.63-2.63-2.05-1.76c-.5-.43-.23-1.24,.43-1.3l2.69-.22,1.04-2.49c.25-.62,1.11-.62,1.37,0l1.03,2.49,2.69,.22c.67,.05,.93,.87,.43,1.3Z"/></g></g></svg>