<?xml version="1.0" encoding="UTF-8"?><svg id="Layer_2" xmlns="http://www.w3.org/2000/svg" viewBox="0 0 256 256"><defs><style>.cls-1{fill:#04a37b;}.cls-2{fill:none;}</style></defs><g id="Layer_1-2"><g><rect class="cls-2" width="256" height="256"/><g><path class="cls-1" d="M87.28,152.81c2.21-.03,3.37-2.64,1.91-4.3-9.27-10.5-31.53-38.33-25.94-57.86,2.63-9.19,10.18-14.27,18.59-17.03,14.91-4.9,31.28-2.13,44.01,7.05l71.61,51.52c2.32,1.67,2.37,5.12,.09,6.85l-17.84,13.59c-2.05,1.56-4.86,1.63-6.99,.17l-18.26-12.94c-1.33-.91-3.12-.74-4.25,.41l-4.73,4.8c-1.36,1.39-1.31,3.63,.13,4.94l30.78,28.11c2.02,1.84,.69,5.2-2.04,5.18l-18.16-.19c-.8,0-1.57-.34-2.12-.92l-35-36.55c-2.71-2.83-2.42-7.36,.61-9.83l18.5-15.05h0c1.2-1.4-.36-3.45-2.03-2.66l-24.12,11.38c-2.4,1.13-3.35,4.05-2.09,6.39l11.9,21.87c3.05,20.07-7.41,26.24-7.41,26.24l-51.74,.45c-2.48,.02-4.57-1.83-4.84-4.3l-.41-3.72c-.17-1.49-1.82-2.31-3.11-1.55l-15.89,9.39c-2.44,1.44-5.53-.27-5.61-3.11l-.62-23.91c-.05-2.07,1.6-3.79,3.67-3.81l51.4-.61Z"/><path class="cls-1" d="M214.64,182.63h-6.4c-.37,0-.66-.3-.66-.66v-38.74c0-.35,.28-.63,.63-.63h6.43c5.05,0,9.15,4.1,9.15,9.15v21.74c0,5.05-4.1,9.15-9.15,9.15Z"/><path class="cls-1" d="M178.7,159.27l25.11-16.17c.42-.22,.93,.08,.93,.56v38.05c0,.46-.45,.77-.88,.62l-18.58-6.49c-4.41-1.54-7.37-5.7-7.37-10.38v-4.87c0-.55,.3-1.06,.79-1.32Z"/></g></g></g></svg>