<?xml version="1.0" encoding="UTF-8"?><svg id="Layer_2" xmlns="http://www.w3.org/2000/svg" viewBox="0 0 256 256"><defs><style>.cls-1{fill:#04a37b;}.cls-2{fill:none;}</style></defs><g id="Layer_1-2"><g><rect class="cls-2" width="256" height="256"/><g><path class="cls-1" d="M113.38,95.65c10.51,0,23.53-7.34,23.53-21.32,0-13.04-10.89-26.35-22.36-31.26-4.56-1.95-9.74,.92-10.5,5.82-.67,4.33-2.19,6.2-5.55,9.32-16.36,15.17-1.95,37.45,14.87,37.45Z"/><path class="cls-1" d="M181.19,150.4c-12.57,0-22.8,10.23-22.8,22.8,0,2.66,.46,5.22,1.3,7.6,0,0,0,0,0,0h-7.66c.05-.51,.08-1.03,.08-1.56v-60.79c0-8.39-6.8-15.2-15.2-15.2h-20.03c-1.36,0-2.47,1.11-2.45,2.47,.02,2.5,0,8.14,0,21.88,0,4.15-3.32,7.52-7.45,7.6-4.26,.08-7.75-3.51-7.75-7.77,0-13.61-.02-19.21,0-21.71,.01-1.36-1.09-2.47-2.45-2.47h-5.46c-8.39,0-15.2,6.8-15.2,15.2v60.79c0,.53,.03,1.04,.08,1.56h0s-16.59,0-16.59,0c-4.2,0-7.6,3.4-7.6,7.6,0,3.75,2.72,6.86,6.29,7.48,3.51,10.33,12.27,17.65,22.54,17.67h66.56c10.23-.02,18.96-7.29,22.5-17.56h11.3c.13,0,.26,0,.39-.01,12.39-.21,22.4-10.35,22.4-22.79s-10.23-22.8-22.8-22.8Zm0,30.4c-4.19,0-7.6-3.41-7.6-7.6s3.41-7.6,7.6-7.6,7.6,3.41,7.6,7.6-3.41,7.6-7.6,7.6Z"/></g></g></g></svg>