<?xml version="1.0" encoding="UTF-8"?><svg id="Layer_2" xmlns="http://www.w3.org/2000/svg" viewBox="0 0 256 256"><defs><style>.cls-1{fill:#04a37b;}.cls-2{fill:none;}</style></defs><g id="Layer_1-2"><g><rect class="cls-2" width="256" height="256"/><g><path class="cls-1" d="M173.9,168.87c-4.77-4.77-12.53-4.77-17.3,0-4.78,4.78-4.78,12.53,0,17.31,4.77,4.77,12.53,4.77,17.3,0,4.78-4.78,4.78-12.53,0-17.31Z"/><g><path class="cls-1" d="M181.27,211.36c-4.24,2.23-13.79-7.58-16.02-11.83-2.23-4.24-.6-9.48,3.65-11.71,4.25-2.23,9.49-.6,11.72,3.65,4.94,9.38-6.3,10.38,.66,19.9Z"/><path class="cls-1" d="M176.1,213.12c4.71-.83,6.27-14.43,5.43-19.16-.83-4.72-5.33-7.87-10.05-7.03-4.72,.83-7.87,5.33-7.04,10.05,1.83,10.45,11.33,4.36,11.65,16.14Z"/><path class="cls-1" d="M184.49,208.72c-3.02,3.71-15.66-1.56-19.38-4.6-3.72-3.03-4.27-8.49-1.24-12.2,3.03-3.72,8.49-4.27,12.21-1.25,8.23,6.69-1.72,12.02,8.41,18.04Z"/><path class="cls-1" d="M171.77,212.93c4.66,1.08,11.43-10.81,12.52-15.49,1.09-4.67-1.81-9.33-6.48-10.41-4.67-1.09-9.33,1.82-10.42,6.48-2.42,10.33,8.71,8.46,4.38,19.42Z"/></g><path class="cls-1" d="M109.08,55.11c0,6.76,5.47,12.25,12.23,12.25s12.25-5.49,12.25-12.25-5.49-12.23-12.25-12.23-12.23,5.49-12.23,12.23Z"/><path class="cls-1" d="M133.26,59.32c0,6.76,5.47,12.25,12.23,12.25s12.25-5.49,12.25-12.25-5.49-12.23-12.25-12.23-12.23,5.49-12.23,12.23Z"/><path class="cls-1" d="M154.89,69.42c0,6.76,5.47,12.25,12.23,12.25s12.25-5.49,12.25-12.25-5.49-12.23-12.25-12.23-12.23,5.49-12.23,12.23Z"/><path class="cls-1" d="M170.49,87.05c0,6.76,5.47,12.25,12.23,12.25s12.25-5.49,12.25-12.25-5.49-12.23-12.25-12.23-12.23,5.49-12.23,12.23Z"/><path class="cls-1" d="M181.56,108.51c0,6.76,5.47,12.25,12.23,12.25s12.25-5.49,12.25-12.25-5.49-12.23-12.25-12.23-12.23,5.49-12.23,12.23Z"/><path class="cls-1" d="M179.4,132.48c0,6.76,5.47,12.25,12.23,12.25s12.25-5.49,12.25-12.25-5.49-12.23-12.25-12.23-12.23,5.49-12.23,12.23Z"/><path class="cls-1" d="M169.81,153.77c0,6.76,5.47,12.25,12.23,12.25s12.25-5.49,12.25-12.25-5.49-12.23-12.25-12.23-12.23,5.49-12.23,12.23Z"/><path class="cls-1" d="M145.93,154.26c0,6.76,5.47,12.25,12.23,12.25s12.25-5.49,12.25-12.25-5.49-12.23-12.25-12.23-12.23,5.49-12.23,12.23Z"/><path class="cls-1" d="M121.45,154.93c0,6.76,5.47,12.25,12.23,12.25s12.25-5.49,12.25-12.25-5.49-12.23-12.25-12.23-12.23,5.49-12.23,12.23Z"/><path class="cls-1" d="M98.61,163.2c0,6.76,5.47,12.25,12.23,12.25s12.25-5.49,12.25-12.25-5.49-12.23-12.25-12.23-12.23,5.49-12.23,12.23Z"/><path class="cls-1" d="M75.33,155.93c0,6.76,5.47,12.25,12.23,12.25s12.25-5.49,12.25-12.25-5.49-12.23-12.25-12.23-12.23,5.49-12.23,12.23Z"/><path class="cls-1" d="M54.86,142.69c0,6.76,5.47,12.25,12.23,12.25s12.25-5.49,12.25-12.25-5.49-12.23-12.25-12.23-12.23,5.49-12.23,12.23Z"/><path class="cls-1" d="M49.96,118.7c0,6.76,5.47,12.25,12.23,12.25s12.25-5.49,12.25-12.25-5.49-12.23-12.25-12.23-12.23,5.49-12.23,12.23Z"/><path class="cls-1" d="M49.96,94.51c0,6.76,5.47,12.25,12.23,12.25s12.25-5.49,12.25-12.25-5.49-12.23-12.25-12.23-12.23,5.49-12.23,12.23Z"/><path class="cls-1" d="M65.01,75.23c0,6.76,5.47,12.25,12.23,12.25s12.25-5.49,12.25-12.25-5.49-12.23-12.25-12.23-12.23,5.49-12.23,12.23Z"/><path class="cls-1" d="M83.35,58.33c0,7.1,5.75,12.87,12.86,12.87s12.87-5.77,12.87-12.87-5.77-12.86-12.87-12.86-12.86,5.77-12.86,12.86Z"/></g></g></g></svg>