<?xml version="1.0" encoding="UTF-8"?><svg id="Layer_2" xmlns="http://www.w3.org/2000/svg" viewBox="0 0 256 256"><defs><style>.cls-1{fill:#04a37b;}.cls-2{fill:none;}</style></defs><g id="Layer_1-2"><g><rect class="cls-2" width="256" height="256"/><g><path class="cls-1" d="M184.64,117.45v22.14c0,1.05-.16,2.07-.46,3.02-1.29,4.15-5.14,7.17-9.72,7.17h-.9c-5.62,0-10.18-4.56-10.18-10.18v-22.15c0-5.62,4.56-10.19,10.18-10.19h.9c4.57,0,8.43,3.01,9.72,7.15,.3,.96,.46,1.98,.46,3.03Z"/><path class="cls-1" d="M147.44,96.64c-5.87,0-10.63,4.76-10.63,10.63v11.86c0,1.66,.53,3.29,1.6,4.56,2.31,2.75,3.72,6.27,3.72,10.15,0,3.15-.94,6.05-2.53,8.51-.9,1.39-.7,3.27,.48,4.43,1.94,1.89,4.57,3,7.36,3.01,5.87,0,10.63-4.76,10.63-10.63v-31.88c0-5.87-4.76-10.63-10.63-10.63h0Z"/><path class="cls-1" d="M184.18,156.89v20.18c0,20.15-16.33,36.48-36.48,36.48h-39.87c-20.15,0-36.48-16.33-36.48-36.48v-31.82c0-4.92,.72-9.81,2.15-14.52h0c.07-.18,.16-.32,.21-.49,.25-.67,.55-1.31,.92-1.93,.36-.58,.77-1.14,1.24-1.65,.46-.49,.96-.94,1.5-1.34,.55-.4,1.13-.75,1.74-1.04,1.27-.62,2.65-.96,4.06-1.02,.17-.01,.32-.06,.5-.06h42.5c6.11,0,11.02,5.16,10.6,11.35-.38,5.64-5.32,9.9-10.98,9.9h-28.85c-1.56,0-2.81,1.34-2.64,2.93,.13,1.39,1.4,2.38,2.79,2.38h.52c14.29,0,25.91,16.69,25.91,37.2,0,1.56,1.33,2.8,2.91,2.64,1.38-.13,2.4-1.39,2.4-2.78-.03-14.58-5.49-27.46-13.76-35.08-.77-.71-.3-1.98,.75-1.98h10.36c3.26,0,5.46-.79,6.67-1.41,.67-.35,1.5-.16,1.96,.45,1.23,1.57,2.73,2.9,4.45,3.94,.43,.26,.87,.47,1.33,.68,.71,.34,1.44,.63,2.19,.88,.35,.11,.68,.23,1.04,.3,1.18,.29,2.36,.48,3.63,.48,1.23-.01,2.45-.17,3.65-.47,.36-.08,.71-.21,1.06-.32,1.54-.47,3.01-1.17,4.34-2.09,.27-.19,.7-.54,.95-.75,.31-.25,.62-.49,.91-.75,.04-.04,.08-.07,.12-.11,1.2-1.17,3.17-1.03,4.38,.13,2.87,2.77,6.74,4.37,10.82,4.37h.66c1.89-.01,3.76-.37,5.5-1.03,2.09-.81,4.33,.66,4.33,2.82Z"/><path class="cls-1" d="M131.5,114.4v-6.77c0-5.66-4.27-10.6-9.92-10.97-6.19-.4-11.34,4.5-11.34,10.6v7.13c0,1.93,1.56,3.49,3.49,3.49h14.27c1.93,0,3.49-1.56,3.49-3.49Z"/><path class="cls-1" d="M103.94,53.15l-.19,61.42c0,1.84-1.65,3.33-3.68,3.33h-16.01c-2.03,0-3.68-1.5-3.68-3.35l.15-61.53s.06-10.63,11.76-10.57c11.58,.07,11.64,10.47,11.64,10.69Z"/></g></g></g></svg>