<?xml version="1.0" encoding="UTF-8"?><svg id="Layer_2" xmlns="http://www.w3.org/2000/svg" viewBox="0 0 256 256"><defs><style>.cls-1,.cls-2{fill:#04a37b;}.cls-3{fill:none;}.cls-2{fill-rule:evenodd;}</style></defs><g id="Layer_1-2"><g><rect class="cls-3" width="256" height="256"/><g><path class="cls-1" d="M180.01,128.21c-15.26,7.27-20.95,30.33-36.21,37.61-8.3,3.95-18.8,4.72-26.66,4.6-2.3-.04-2.75-3.28-.55-3.95,7.39-2.26,16.99-5.44,23.46-8.52,11.87-5.66,13.33-11.33,10.72-16.81-3.71-7.79-13.56-7.8-20.87-6.52-20.73,3.62-48.32,7.08-69.69,13.78-3.84,1.21-5.99,5.28-4.82,9.12,3.83,12.52,11.89,39.03,15.35,50.4,.97,3.19,3.98,5.33,7.32,5.18,12.32-.55,24.64-2.14,36.78-4.14,11.49-1.89,23.22-3.75,33.93-8.53,10.73-4.78,18.71-12.96,26.22-21.79,7.55-8.87,14.36-18.51,19.95-28.74,2.32-4.26,5.13-9.19,5.91-14.01,.78-4.83-3.2-8.46-7.58-9.55-4.41-1.1-9.22-.05-13.25,1.87Z"/><path class="cls-2" d="M147.7,83.7c0,15.09-12.24,27.33-27.33,27.33-7.17,0-13.7-2.77-18.58-7.29-.71-.66-.44-1.83,.48-2.13,11.22-3.71,19.23-14.28,19.23-26.64,0-8.54-4.04-16.5-9.4-23.19-.72-.9-.64-2.2,.19-3.01,2.59-2.51,4.66-4.25,5.53-4.96,1.5-1.23,3.63-1.23,5.13,0,1.65,1.36,7.73,6.5,13.43,13.59,5.6,6.97,11.33,16.42,11.33,26.31Z"/><path class="cls-2" d="M110.56,74.96c0,9.15-7.18,16.62-16.21,17.09-.3,.02-.6,.02-.9,.02-9.45,0-17.12-7.66-17.12-17.12,0-6.19,3.59-12.11,7.1-16.47,3.57-4.44,7.37-7.66,8.41-8.51,.47-.38,1.04-.57,1.6-.57s1.14,.19,1.61,.57c1.03,.85,4.84,4.07,8.41,8.51,.01,.01,.02,.02,.03,.03,3.5,4.36,7.07,10.27,7.07,16.44Z"/></g></g></g></svg>