<?xml version="1.0" encoding="UTF-8"?><svg id="Layer_2" xmlns="http://www.w3.org/2000/svg" viewBox="0 0 1024 1024"><defs><style>.cls-1{fill:#04a37b;}.cls-2{fill:none;}</style></defs><g id="Layer_1-2"><g><rect class="cls-2" width="1024" height="1024"/><g><path class="cls-1" d="M446.19,664.19c-10.07,43.43-53.45,70.48-96.88,60.4l-85.95-19.94c-98.27-21.72-80.54-139.59-80.31-141.04h0c-2.62-23.48-6.32-56.07-11.36-98.5-1.59-13.42,8.46-25.56,22.16-26.26,12.29-.64,22.55,8.92,24.27,19.56,1.13,6.94,1.88,16.4,2.33,19.36h0c.27,2.78-6.6,68.06,50.67,83.73,37.75,8.76,48.22,55.62,39.38,93.72-.78,3.36,1.47,6.71,4.95,7.16,3.03,.4,5.86-1.79,6.56-4.79,7.21-31.45,1.9-61.94-12.13-82.52-.19-.27-.31-.55-.38-.84-1.59-3.12-8.88-14.36-35.02-23.96-.07-.02-.4-.18-1.01-.32-23.89-8.89-33.43-26.37-37.54-41.99-3.49-13.25-3.51-27.18-.42-40.52l29.31-126.39c2.97-12.79,15.83-20.7,28.62-17.51,12.51,3.12,20.03,15.95,17.12,28.52l-32.54,140.3c-1.25,5.4,2.03,11.08,8.02,12.31,5.43,1.12,10.73-2.44,11.98-7.84l42.05-181.31c2.97-12.78,15.83-20.7,28.62-17.5,12.51,3.12,20.03,15.95,17.12,28.51l-42.02,181.17c-1.27,5.48,2.14,10.96,7.62,12.23,5.51,1.35,11.07-2.06,12.35-7.59l35.27-152.05c2.97-12.78,15.83-20.7,28.62-17.5,12.51,3.12,20.03,15.95,17.12,28.51l-35.17,151.64c-1.27,5.48,2.14,10.95,7.62,12.22l.13,.03c5.47,1.27,10.94-2.14,12.21-7.61l21.05-90.74c2.92-12.57,15.31-20.77,27.92-18.06,12.89,2.76,20.96,15.53,17.99,28.31l-50.32,217.1Z"/><path class="cls-1" d="M577.81,664.19c10.07,43.43,53.45,70.48,96.88,60.4l85.95-19.94c98.27-21.72,80.54-139.59,80.31-141.04h0c2.62-23.48,6.32-56.07,11.36-98.5,1.59-13.42-8.46-25.56-22.16-26.26-12.29-.64-22.55,8.92-24.27,19.56-1.13,6.94-1.88,16.4-2.33,19.36h0c-.27,2.78,6.6,68.06-50.67,83.73-37.75,8.76-48.22,55.62-39.38,93.72,.78,3.36-1.47,6.71-4.95,7.16-3.03,.4-5.86-1.79-6.56-4.79-7.21-31.45-1.9-61.94,12.13-82.52,.19-.27,.31-.55,.38-.84,1.59-3.12,8.88-14.36,35.02-23.96,.07-.02,.4-.18,1.01-.32,23.89-8.89,33.43-26.37,37.54-41.99,3.49-13.25,3.51-27.18,.42-40.52l-29.31-126.39c-2.97-12.79-15.83-20.7-28.62-17.51-12.51,3.12-20.03,15.95-17.12,28.52l32.54,140.3c1.25,5.4-2.03,11.08-8.02,12.31-5.43,1.12-10.73-2.44-11.98-7.84l-42.05-181.31c-2.97-12.78-15.83-20.7-28.62-17.5-12.51,3.12-20.03,15.95-17.12,28.51l42.02,181.17c1.27,5.48-2.14,10.96-7.62,12.23-5.51,1.35-11.07-2.06-12.35-7.59l-35.27-152.05c-2.97-12.78-15.83-20.7-28.62-17.5-12.51,3.12-20.03,15.95-17.12,28.51l35.17,151.64c1.27,5.48-2.14,10.95-7.62,12.22l-.13,.03c-5.47,1.27-10.94-2.14-12.21-7.61l-21.05-90.74c-2.92-12.57-15.31-20.77-27.92-18.06-12.89,2.76-20.96,15.53-17.99,28.31l50.32,217.1Z"/></g></g></g></svg>