<?xml version="1.0" encoding="UTF-8"?><svg id="Layer_2" xmlns="http://www.w3.org/2000/svg" viewBox="0 0 1024 1024"><defs><style>.cls-1{fill:#04a37b;}.cls-2{fill:none;}</style></defs><g id="Layer_1-2"><g><rect class="cls-2" width="1024" height="1024"/><g><path class="cls-1" d="M335.55,606.87h353c13.42,0,25.97-6.76,33.25-18.03,11.59-17.97,18.28-39.41,18.28-62.45,0-37.72-18.42-73.35-50.11-94.4-6.03-3.95-11.84-7.89-17.54-11.62-48.29-31.9-88.26-58.27-121.74-93.25-8.37-9.53-21.53-28.17-25.58-54.72v-.22c5.89-.51,11.71-1.94,17.22-4.31,13.63-5.88,24.17-16.79,29.66-30.71,2.34-5.94-.57-12.65-6.5-14.99-5.93-2.33-12.65,.58-14.99,6.51-3.22,8.16-9.37,14.55-17.31,17.97-8.36,3.61-17.55,3.59-25.87-.04-8.32-3.63-14.57-10.36-17.61-18.94-4.5-12.7-.57-27.06,9.79-35.72,4.89-4.1,5.55-11.38,1.45-16.28-4.09-4.89-11.39-5.55-16.28-1.45-17.73,14.83-24.46,39.41-16.75,61.16,5.12,14.47,16.11,26.28,30.14,32.41,.29,.12,.58,.23,.87,.35v4.27s-1.01,25.53-21.45,50.32c-3.78,4.1-7.65,8.08-11.61,11.96-.62,.56-1.18,1.11-1.7,1.66-31.55,30.53-68.61,54.98-112.56,84.02-5.7,3.84-11.62,7.67-17.54,11.62-31.8,21.05-50.11,56.69-50.11,94.4,0,22.96,6.75,44.38,18.33,62.4,7.27,11.3,19.84,18.08,33.28,18.08Z"/><path class="cls-1" d="M740.06,641.96H283.94c-19.38,0-35.09,15.71-35.09,35.09v140.35c0,19.38,15.71,35.09,35.09,35.09h29.17c12.96,0,23.46-10.5,23.46-23.46v-55.49c0-14.69,11.91-26.49,26.64-26.31,14.47,.17,25.99,12.25,25.99,26.73v55.01c0,12.99,10.53,23.52,23.52,23.52h23.13c12.99,0,23.52-10.53,23.52-23.52v-40.07c0-20.83,9.21-40.57,25.22-53.95l27.41-22.81,27.41,22.81c16.01,13.38,25.22,33.11,25.22,53.95v40.07c0,12.99,10.53,23.52,23.52,23.52h23.13c12.99,0,23.52-10.53,23.52-23.52v-55.42c0-14.69,11.91-26.49,26.64-26.31,14.47,.17,25.99,12.25,25.99,26.73v55.07c0,12.96,10.5,23.46,23.46,23.46h29.17c19.38,0,35.09-15.71,35.09-35.09v-140.35c0-19.38-15.71-35.09-35.09-35.09Z"/></g></g></g></svg>