<?xml version="1.0" encoding="UTF-8"?><svg id="Layer_2" xmlns="http://www.w3.org/2000/svg" viewBox="0 0 1024 1024"><defs><style>.cls-1{fill:#04a37b;}.cls-2{fill:none;}</style></defs><g id="Layer_1-2"><g id="SalÄh"><rect class="cls-2" width="1024" height="1024"/><g><path class="cls-1" d="M349.13,611.24c8.85-.11,13.5-10.55,7.64-17.19-37.09-42-126.12-153.33-103.76-231.45,10.52-36.76,40.72-57.09,74.34-68.13,59.64-19.59,125.13-8.52,176.04,28.2l286.43,206.09c9.29,6.7,9.47,20.47,.36,27.41l-71.36,54.34c-8.19,6.24-19.45,6.52-27.94,.7l-73.04-51.77c-5.32-3.65-12.49-2.96-17.02,1.64l-18.91,19.2c-5.46,5.54-5.22,14.51,.52,19.76l123.1,112.43c8.07,7.37,2.78,20.82-8.16,20.7l-72.66-.76c-3.21-.03-6.26-1.36-8.48-3.67l-139.99-146.19c-10.82-11.3-9.7-29.44,2.44-39.32l74.02-60.22h0c4.81-5.61-1.44-13.81-8.12-10.65l-96.47,45.54c-9.6,4.53-13.42,16.21-8.34,25.54l47.6,87.49c12.21,80.29-29.63,104.98-29.63,104.98l-206.96,1.8c-9.91,.09-18.28-7.34-19.37-17.18l-1.66-14.87c-.66-5.97-7.26-9.26-12.43-6.21l-63.57,37.54c-9.77,5.77-22.14-1.08-22.43-12.42l-2.47-95.63c-.21-8.29,6.4-15.15,14.69-15.25l205.58-2.45Z"/><path class="cls-1" d="M858.56,730.52h-25.6c-1.46,0-2.64-1.18-2.64-2.64v-154.96c0-1.4,1.13-2.53,2.53-2.53h25.72c20.21,0,36.59,16.38,36.59,36.59v86.95c0,20.21-16.38,36.59-36.59,36.59Z"/><path class="cls-1" d="M714.81,637.07l100.45-64.69c1.68-.9,3.72,.32,3.72,2.23v152.19c0,1.82-1.8,3.1-3.52,2.5l-74.33-25.95c-17.65-6.16-29.48-22.81-29.48-41.51v-19.49c0-2.21,1.21-4.23,3.16-5.27Z"/></g></g></g></svg>