<?xml version="1.0" encoding="UTF-8"?><svg id="Layer_2" xmlns="http://www.w3.org/2000/svg" viewBox="0 0 1024 1024"><defs><style>.cls-1{fill:#04a37b;}.cls-2{fill:none;}</style></defs><g id="Layer_1-2"><g><rect class="cls-2" width="1024" height="1024"/><g><path class="cls-1" d="M695.59,675.46c-19.09-19.09-50.11-19.09-69.2,0-19.11,19.11-19.11,50.11,0,69.22,19.09,19.09,50.11,19.09,69.2,0,19.11-19.11,19.11-50.11,0-69.22Z"/><g><path class="cls-1" d="M725.09,845.42c-16.94,8.9-55.16-30.32-64.08-47.33-8.93-16.97-2.4-37.94,14.58-46.85,16.99-8.92,37.96-2.39,46.87,14.59,19.77,37.54-25.19,41.52,2.62,79.59Z"/><path class="cls-1" d="M704.42,852.48c18.85-3.32,25.09-57.73,21.73-76.64-3.32-18.89-21.31-31.48-40.19-28.14-18.9,3.33-31.49,21.33-28.16,40.21,7.33,41.79,45.32,17.44,46.62,64.57Z"/><path class="cls-1" d="M737.97,834.87c-12.09,14.84-62.63-6.24-77.51-18.39-14.88-12.1-17.09-33.95-4.98-48.81,12.12-14.88,33.98-17.1,48.84-4.98,32.92,26.77-6.87,48.07,33.65,72.18Z"/><path class="cls-1" d="M687.09,851.74c18.64,4.34,45.73-43.25,50.07-61.96,4.36-18.68-7.25-37.32-25.92-41.65-18.69-4.35-37.34,7.26-41.68,25.94-9.66,41.31,34.84,33.83,17.54,77.68Z"/></g><path class="cls-1" d="M436.32,220.45c0,27.03,21.9,48.99,48.93,48.99s48.99-21.96,48.99-48.99-21.98-48.93-48.99-48.93-48.93,21.98-48.93,48.93Z"/><path class="cls-1" d="M533.03,237.28c0,27.03,21.9,48.99,48.93,48.99s48.99-21.96,48.99-48.99-21.98-48.93-48.99-48.93-48.93,21.98-48.93,48.93Z"/><path class="cls-1" d="M619.58,277.69c0,27.03,21.9,48.99,48.93,48.99s48.99-21.96,48.99-48.99-21.98-48.93-48.99-48.93-48.93,21.98-48.93,48.93Z"/><path class="cls-1" d="M681.95,348.19c0,27.03,21.9,48.99,48.93,48.99s48.99-21.96,48.99-48.99-21.98-48.93-48.99-48.93-48.93,21.98-48.93,48.93Z"/><path class="cls-1" d="M726.24,434.04c0,27.03,21.9,48.99,48.93,48.99s48.99-21.96,48.99-48.99-21.98-48.93-48.99-48.93-48.93,21.98-48.93,48.93Z"/><path class="cls-1" d="M717.59,529.93c0,27.03,21.9,48.99,48.93,48.99s48.99-21.96,48.99-48.99-21.98-48.93-48.99-48.93-48.93,21.98-48.93,48.93Z"/><path class="cls-1" d="M679.22,615.07c0,27.03,21.9,48.99,48.93,48.99s48.99-21.96,48.99-48.99-21.98-48.93-48.99-48.93-48.93,21.98-48.93,48.93Z"/><path class="cls-1" d="M583.71,617.03c0,27.03,21.9,48.99,48.93,48.99s48.99-21.96,48.99-48.99-21.98-48.93-48.99-48.93-48.93,21.98-48.93,48.93Z"/><path class="cls-1" d="M485.79,619.72c0,27.03,21.9,48.99,48.93,48.99s48.99-21.96,48.99-48.99-21.98-48.93-48.99-48.93-48.93,21.98-48.93,48.93Z"/><path class="cls-1" d="M394.45,652.8c0,27.03,21.9,48.99,48.93,48.99s48.99-21.96,48.99-48.99-21.98-48.93-48.99-48.93-48.93,21.98-48.93,48.93Z"/><path class="cls-1" d="M301.31,623.71c0,27.03,21.9,48.99,48.93,48.99s48.99-21.96,48.99-48.99-21.98-48.93-48.99-48.93-48.93,21.98-48.93,48.93Z"/><path class="cls-1" d="M219.46,570.76c0,27.03,21.9,48.99,48.93,48.99s48.99-21.96,48.99-48.99-21.98-48.93-48.99-48.93-48.93,21.98-48.93,48.93Z"/><path class="cls-1" d="M199.84,474.78c0,27.03,21.9,48.99,48.93,48.99s48.99-21.96,48.99-48.99-21.98-48.93-48.99-48.93-48.93,21.98-48.93,48.93Z"/><path class="cls-1" d="M199.84,378.03c0,27.03,21.9,48.99,48.93,48.99s48.99-21.96,48.99-48.99-21.98-48.93-48.99-48.93-48.93,21.98-48.93,48.93Z"/><path class="cls-1" d="M260.02,300.92c0,27.03,21.9,48.99,48.93,48.99s48.99-21.96,48.99-48.99-21.98-48.93-48.99-48.93-48.93,21.98-48.93,48.93Z"/><path class="cls-1" d="M333.42,233.33c0,28.41,23.01,51.48,51.42,51.48s51.48-23.07,51.48-51.48-23.09-51.42-51.48-51.42-51.42,23.09-51.42,51.42Z"/></g></g></g></svg>