<?xml version="1.0" encoding="UTF-8"?><svg id="Layer_2" xmlns="http://www.w3.org/2000/svg" viewBox="0 0 16 16"><defs><style>.cls-1,.cls-2{fill:#04a37b;}.cls-3{fill:none;}.cls-2{fill-rule:evenodd;}</style></defs><g id="Layer_1-2"><g><rect class="cls-3" width="16" height="16"/><g><path class="cls-1" d="M11.25,8.01c-.95,.45-1.31,1.9-2.26,2.35-.52,.25-1.17,.3-1.67,.29-.14,0-.17-.2-.03-.25,.46-.14,1.06-.34,1.47-.53,.74-.35,.83-.71,.67-1.05-.23-.49-.85-.49-1.3-.41-1.3,.23-3.02,.44-4.36,.86-.24,.08-.37,.33-.3,.57,.24,.78,.74,2.44,.96,3.15,.06,.2,.25,.33,.46,.32,.77-.03,1.54-.13,2.3-.26,.72-.12,1.45-.23,2.12-.53s1.17-.81,1.64-1.36c.47-.55,.9-1.16,1.25-1.8,.15-.27,.32-.57,.37-.88,.05-.3-.2-.53-.47-.6s-.58,0-.83,.12Z"/><path class="cls-2" d="M9.23,5.23c0,.94-.76,1.71-1.71,1.71-.45,0-.86-.17-1.16-.46-.04-.04-.03-.11,.03-.13,.7-.23,1.2-.89,1.2-1.66,0-.53-.25-1.03-.59-1.45-.05-.06-.04-.14,.01-.19,.16-.16,.29-.27,.35-.31,.09-.08,.23-.08,.32,0,.1,.08,.48,.41,.84,.85,.35,.44,.71,1.03,.71,1.64Z"/><path class="cls-2" d="M6.91,4.69c0,.57-.45,1.04-1.01,1.07-.02,0-.04,0-.06,0-.59,0-1.07-.48-1.07-1.07,0-.39,.22-.76,.44-1.03,.22-.28,.46-.48,.53-.53,.03-.02,.06-.04,.1-.04s.07,.01,.1,.04c.06,.05,.3,.25,.53,.53,0,0,0,0,0,0,.22,.27,.44,.64,.44,1.03Z"/></g></g></g></svg>