<?xml version="1.0" encoding="UTF-8"?><svg id="Layer_2" xmlns="http://www.w3.org/2000/svg" viewBox="0 0 1024 1024"><defs><style>.cls-1,.cls-2{fill:#04a37b;}.cls-3{fill:none;}.cls-2{fill-rule:evenodd;}</style></defs><g id="Layer_1-2"><g><rect class="cls-3" width="1024" height="1024"/><g><path class="cls-1" d="M720.03,512.86c-61.05,29.09-83.8,121.33-144.85,150.43-33.18,15.81-75.2,18.9-106.64,18.41-9.19-.14-11.01-13.11-2.21-15.79,29.56-9.02,67.96-21.75,93.86-34.09,47.5-22.64,53.33-45.3,42.87-67.25-14.85-31.16-54.23-31.2-83.49-26.09-82.93,14.48-193.3,28.32-278.74,55.14-15.36,4.82-23.98,21.1-19.27,36.49,15.33,50.06,47.57,156.13,61.39,201.62,3.88,12.78,15.92,21.33,29.26,20.73,49.26-2.22,98.57-8.58,147.1-16.57,45.96-7.57,92.88-15,135.74-34.11,42.92-19.14,74.85-51.84,104.89-87.15,30.19-35.48,57.45-74.05,79.79-114.96,9.3-17.02,20.5-36.74,23.63-56.05,3.13-19.32-12.78-33.83-30.32-38.22-17.64-4.42-36.89-.22-53.01,7.47Z"/><path class="cls-2" d="M590.82,334.79c0,60.36-48.95,109.31-109.31,109.31-28.69,0-54.8-11.06-74.31-29.16-2.83-2.62-1.75-7.32,1.91-8.53,44.87-14.83,76.9-57.1,76.9-106.56,0-34.14-16.17-66-37.61-92.76-2.89-3.6-2.57-8.81,.74-12.02,10.37-10.05,18.65-17.02,22.11-19.86,6.01-4.92,14.51-4.92,20.52,0,6.61,5.43,30.94,26.01,53.71,54.35,22.41,27.86,45.34,65.68,45.34,105.22Z"/><path class="cls-2" d="M442.26,299.85c0,36.61-28.71,66.48-64.84,68.37-1.2,.07-2.4,.09-3.6,.09-37.82,0-68.46-30.65-68.46-68.46,0-24.75,14.35-48.43,28.4-65.88,14.27-17.74,29.49-30.65,33.63-34.03,1.88-1.53,4.15-2.3,6.42-2.3s4.54,.77,6.42,2.3c4.13,3.38,19.36,16.29,33.63,34.03,.04,.04,.07,.09,.12,.13,13.99,17.43,28.29,41.06,28.29,65.75Z"/></g></g></g></svg>